<svg width="339" height="211" viewBox="0 0 339 211" fill="none" xmlns="http://www.w3.org/2000/svg">
<rect x="252" y="40.9836" width="87" height="131.213" fill="#F5F5F5"/>
<ellipse cx="295.5" cy="40.2705" rx="43.5" ry="9.27049" fill="#00B2FF"/>
<ellipse cx="295.5" cy="171.484" rx="43.5" ry="9.27049" fill="#F5F5F5"/>
<ellipse cx="295.5" cy="155.795" rx="19.2541" ry="9.27049" fill="#E1E1E1"/>
<ellipse cx="295.5" cy="37.418" rx="39.2213" ry="6.41803" fill="#F5F5F5"/>
<mask id="mask0" mask-type="alpha" maskUnits="userSpaceOnUse" x="0" y="0" width="210" height="211">
<rect width="209.882" height="211" rx="33" fill="#C4C4C4"/>
</mask>
<g mask="url(#mask0)">
<path d="M195.876 1.9624H16.0424C7.96455 1.9624 1.41614 8.51081 1.41614 16.5887V196.422C1.41614 204.5 7.96455 211.049 16.0424 211.049H195.876C203.954 211.049 210.502 204.5 210.502 196.422V16.5887C210.502 8.51081 203.954 1.9624 195.876 1.9624Z" fill="#F5EBDD"/>
<path d="M73.4754 118.28H161.946V264.891H33.1372V158.613C33.1385 147.915 37.389 137.656 44.9537 130.093C52.5185 122.529 62.7779 118.28 73.4754 118.28V118.28Z" fill="#FFB7D5"/>
<path d="M132.15 139.882V264.876" stroke="#A15842" stroke-width="2" stroke-miterlimit="10" stroke-linecap="round"/>
<path d="M105.236 101.918C116.771 103.359 120.366 98.462 122.057 94.2283C123.977 89.426 122.74 85.2969 121.244 79.9311C121.244 79.9311 125.054 77.8566 124.46 75.4779C123.962 73.558 119.628 73.3436 119.628 73.3436C119.458 72.4858 119.307 71.5965 119.174 70.6756C118.212 63.9434 116.771 60.0986 116.771 60.0986C113.405 61.0611 109.081 60.5973 107.64 60.0986C105.693 65.4927 102.178 70.1816 97.5465 73.563C97.5465 73.563 86.9695 62.0285 80.2423 70.6806C74.7569 77.7369 82.646 86.5386 87.932 87.5011C84.7903 94.1285 76.3377 97.9733 71.9393 99.5791C72.2086 101.664 72.4629 103.598 72.6874 105.284H105.6L105.236 101.918Z" fill="#EAA58B"/>
<path d="M219.708 143.766C221.445 137.59 222.863 131.328 223.957 125.006L212.422 93.7637C212.422 93.7637 217.23 80.7981 212.921 78.8632C208.612 76.9283 198.963 89.4501 195.118 99.5334C193.458 103.892 188.92 113.91 184.307 123.879L219.708 143.766Z" fill="#EAA58B"/>
<path d="M172.044 150C172.044 150 144.168 126.448 132.1 117.791C120.032 109.134 106.199 110.59 106.199 110.59L105.595 105.299H72.6824C73.1811 109.054 73.5052 111.547 73.5052 111.547L49.0001 199.031L122.052 193.261L120.132 166.332C120.132 166.332 159.527 199.245 182.138 196.133C202.529 193.311 214.113 163.869 219.703 143.772L184.297 123.885C178.248 136.98 172.044 150 172.044 150Z" fill="#3EC1F3"/>
<path d="M87.9321 87.5154C82.6461 86.5529 74.752 77.7512 80.2425 70.6949C86.9697 62.0428 97.5466 73.5773 97.5466 73.5773C102.178 70.1958 105.693 65.507 107.64 60.1129C109.081 60.6116 113.405 61.0754 116.771 60.1129C116.771 60.1129 123.982 57.7093 123.498 51.9446C122.855 44.2051 111.001 47.616 111.001 47.616C111.001 47.616 98.0354 38.0015 84.0723 44.2499C69.1917 50.9472 67.7456 64.4464 68.6931 73.5773C69.2416 78.8184 70.7426 90.5324 71.9245 99.5934C76.3378 97.9827 84.7904 94.1428 87.9321 87.5154Z" fill="#30242A"/>
<path d="M221.618 131.015C219.419 131.923 217.489 132.187 216.631 131.693C214.477 130.467 214.138 127.899 216.696 124.288C216.696 124.288 210.617 126.657 208.742 123.575C206.867 120.493 209.685 117.656 209.685 117.656C209.685 117.656 205.381 118.843 204.329 115.013C203.277 111.183 206.822 109.178 206.822 109.178C206.822 109.178 204.399 108.275 204.329 105.747C204.234 102.072 210.223 99.0898 211.949 98.3069" stroke="#A15842" stroke-width="4" stroke-miterlimit="10" stroke-linecap="round"/>
<path d="M121.194 166.227L119.414 145.437" stroke="#4756DF" stroke-width="2" stroke-miterlimit="10" stroke-linecap="round"/>
<path d="M104.783 102.805C101.994 102.175 99.3076 101.154 96.8037 99.7732" stroke="#A15842" stroke-width="2" stroke-miterlimit="10" stroke-linecap="round"/>
<path d="M52.1221 192.537L64.5093 159.6" stroke="#4756DF" stroke-width="2" stroke-miterlimit="10" stroke-linecap="round"/>
<path d="M117.324 84.8575C116.531 85.3562 113.549 85.7352 112.338 83.4463" stroke="#A15842" stroke-width="2" stroke-miterlimit="10" stroke-linecap="round"/>
<path d="M112.926 74.0562C113.722 74.0562 114.367 73.411 114.367 72.615C114.367 71.8191 113.722 71.1738 112.926 71.1738C112.13 71.1738 111.485 71.8191 111.485 72.615C111.485 73.411 112.13 74.0562 112.926 74.0562Z" fill="#A15842"/>
<path d="M86.4908 76.9436L91.7768 79.826" stroke="#A15842" stroke-width="2" stroke-miterlimit="10" stroke-linecap="round"/>
<path d="M187.429 224.024C190.61 234.995 195.482 245.522 200.579 254.668L246.522 235.489C246.024 233.878 245.525 232.442 245.106 231.23C230.729 189.685 222.037 156.274 200.888 152.888C167.601 147.592 110.976 204.92 102.474 213.726L114.721 221.152L153.229 239.239L167.257 242.475L187.429 224.024Z" fill="#A15842"/>
<path d="M186.382 223.595C185.291 218.279 184.756 212.864 184.786 207.438" stroke="#30242A" stroke-width="2" stroke-miterlimit="10" stroke-linecap="round"/>
<path d="M174.692 196.622C186.505 196.622 196.081 187.046 196.081 175.233C196.081 163.421 186.505 153.845 174.692 153.845C162.88 153.845 153.304 163.421 153.304 175.233C153.304 187.046 162.88 196.622 174.692 196.622Z" fill="white"/>
<path d="M180.701 168.745C180.701 165.427 178.011 162.736 174.692 162.736C171.374 162.736 168.683 165.427 168.683 168.745V175.951C168.683 179.27 171.374 181.96 174.692 181.96C178.011 181.96 180.701 179.27 180.701 175.951V168.745Z" fill="#4856DF"/>
<path d="M174.692 180.041V186.773" stroke="#4856DF" stroke-width="2" stroke-miterlimit="10" stroke-linecap="round"/>
<path d="M171.246 186.773H178.133" stroke="#4856DF" stroke-width="2" stroke-miterlimit="10" stroke-linecap="round"/>
<path d="M23.7621 32.2374C28.1412 32.2374 31.6911 28.6875 31.6911 24.3084C31.6911 19.9293 28.1412 16.3794 23.7621 16.3794C19.3831 16.3794 15.8331 19.9293 15.8331 24.3084C15.8331 28.6875 19.3831 32.2374 23.7621 32.2374Z" fill="white"/>
<path d="M47.7986 32.2374C52.1777 32.2374 55.7276 28.6875 55.7276 24.3084C55.7276 19.9293 52.1777 16.3794 47.7986 16.3794C43.4196 16.3794 39.8696 19.9293 39.8696 24.3084C39.8696 28.6875 43.4196 32.2374 47.7986 32.2374Z" fill="white"/>
<path d="M71.8299 32.2374C76.2089 32.2374 79.7589 28.6875 79.7589 24.3084C79.7589 19.9293 76.2089 16.3794 71.8299 16.3794C67.4508 16.3794 63.9009 19.9293 63.9009 24.3084C63.9009 28.6875 67.4508 32.2374 71.8299 32.2374Z" fill="white"/>
<path d="M195.856 1.96249C199.734 1.96249 203.453 3.50295 206.195 6.24497C208.937 8.987 210.478 12.706 210.478 16.5838V196.423C210.478 200.3 208.937 204.019 206.195 206.761C203.453 209.503 199.734 211.044 195.856 211.044H16.0375C12.1597 211.044 8.44072 209.503 5.6987 206.761C2.95668 204.019 1.41623 200.3 1.41623 196.423V16.5838C1.41623 12.706 2.95668 8.987 5.6987 6.24497C8.44072 3.50295 12.1597 1.96249 16.0375 1.96249H195.856ZM195.856 -0.0322266H16.0375C11.6323 -0.0269477 7.40902 1.72536 4.29406 4.84032C1.1791 7.95528 -0.573212 12.1786 -0.578491 16.5838V196.423C-0.573212 200.828 1.1791 205.051 4.29406 208.166C7.40902 211.281 11.6323 213.033 16.0375 213.039H195.856C200.262 213.033 204.485 211.281 207.6 208.166C210.715 205.051 212.467 200.828 212.472 196.423V16.5838C212.467 12.1786 210.715 7.95528 207.6 4.84032C204.485 1.72536 200.262 -0.0269477 195.856 -0.0322266Z" fill="#F5EBDD"/>
<path d="M107.196 210.545C116.447 213.492 148.95 227.001 169.75 239.119" stroke="#30242A" stroke-width="4" stroke-miterlimit="10" stroke-linecap="round"/>
<path d="M73.7046 110.739C75.2006 110.6 78.3224 110.345 81.4441 110.345" stroke="#4756DF" stroke-width="2" stroke-miterlimit="10" stroke-linecap="round"/>
<path d="M212.422 93.764C212.422 93.764 221.798 90.6572 224.391 94.5668C226.984 98.4765 224.58 102.745 224.58 102.745C224.58 102.745 231.108 104.037 228.729 110.35C228.729 110.35 232.913 114.339 228.924 118.528C228.924 118.528 232.714 121.087 228.849 125.749C224.984 130.412 218.427 132.731 216.596 131.694C214.442 130.467 214.103 127.899 216.661 124.288C216.661 124.288 210.582 126.657 208.707 123.575C206.832 120.493 209.65 117.656 209.65 117.656C209.65 117.656 205.346 118.843 204.294 115.013C203.242 111.183 206.787 109.178 206.787 109.178C206.787 109.178 204.364 108.276 204.294 105.747C204.199 102.072 210.647 98.8704 212.373 98.0925L212.422 93.764Z" fill="#EAA58B"/>
<path d="M205.331 109.852C209.031 109.203 218.431 107.199 224.655 102.87" stroke="#A15842" stroke-width="2" stroke-miterlimit="10" stroke-linecap="round"/>
<path d="M206.827 118.833C214.641 117.854 222.138 115.142 228.769 110.894" stroke="#A15842" stroke-width="2" stroke-miterlimit="10" stroke-linecap="round"/>
<path d="M80.7462 187.691C72.0443 188.753 62.335 190.324 51.4039 192.279L66.7832 150.943L73.5104 111.547C73.5104 111.547 51.4039 113.951 41.3107 125.51C32.0003 136.147 2.8575 185.591 14.382 211.548C25.9065 237.504 60.5348 228.348 68.6932 225.944C73.1464 224.633 79.8935 221.611 86.8202 219.362L80.7462 187.691Z" fill="#3EC1F3"/>
<path d="M103.311 216.813C113.888 218.255 125.901 223.541 127.826 216.813C127.826 216.813 134.309 216.649 132.265 210.485C132.265 210.485 135.516 210.081 135.995 207.678C136.957 202.875 125.423 198.547 125.423 198.547C125.423 198.547 134.554 199.988 136.478 198.048C138.927 195.595 136.543 191.69 121.628 188.075C110.796 185.452 97.6912 185.611 80.7361 187.686L86.825 219.337C92.6296 217.492 98.504 216.155 103.311 216.813Z" fill="#EAA58B"/>
<path d="M129.532 199.16C124.411 197.195 114.686 193.929 107.64 192.782" stroke="#A15842" stroke-width="2" stroke-miterlimit="10" stroke-linecap="round"/>
<path d="M132.464 210.286C125.782 207.294 112.876 201.748 105.955 200.711" stroke="#A15842" stroke-width="2" stroke-miterlimit="10" stroke-linecap="round"/>
<path d="M127.283 217.312C122.132 214.699 111.824 209.792 104.513 208.401" stroke="#A15842" stroke-width="2" stroke-miterlimit="10" stroke-linecap="round"/>
<path d="M80.8309 188.409C76.1334 189.017 61.1082 191.092 38.6626 195.425" stroke="#4756DF" stroke-width="2" stroke-miterlimit="10" stroke-linecap="round"/>
</g>
</svg>
