<svg width="326" height="63" viewBox="0 0 326 63" fill="none" xmlns="http://www.w3.org/2000/svg">
                  <path opacity="0.1" fill-rule="evenodd" clip-rule="evenodd" d="M10 0C4.47715 0 0 4.47715 0 10V39C0 44.5228 4.47716 49 10 49H16.487C15.7613 53.2272 15.8039 57.8923 16.9053 63C18.0055 59.5985 21.5372 54.2477 28.5667 49H316C321.523 49 326 44.5228 326 39V10C326 4.47715 321.523 0 316 0H10Z" fill="black"/>
                  <path d="M22.9481 29H25.2546V24.4936H29.9368V29H32.2379V18.0909H29.9368V22.5919H25.2546V18.0909H22.9481V29Z" fill="black"/>
                  <path d="M37.8256 29.1598C39.8498 29.1598 41.2134 28.1743 41.533 26.6562L39.4343 26.5177C39.2052 27.1409 38.6193 27.4659 37.8629 27.4659C36.7283 27.4659 36.0092 26.7148 36.0092 25.495V25.4897H41.5809V24.8664C41.5809 22.0859 39.8977 20.7116 37.7351 20.7116C35.3274 20.7116 33.7667 22.4215 33.7667 24.9463C33.7667 27.5405 35.3061 29.1598 37.8256 29.1598ZM36.0092 24.0834C36.0571 23.1512 36.7656 22.4055 37.7723 22.4055C38.7578 22.4055 39.4396 23.1086 39.4449 24.0834H36.0092Z" fill="black"/>
                  <path d="M44.2283 32.0681C45.9169 32.0681 46.8118 31.2052 47.2752 29.8842L50.4552 20.8288L48.0529 20.8181L46.343 26.8267H46.2578L44.5639 20.8181H42.1775L45.1125 29.2343L44.9794 29.5806C44.6811 30.3476 44.1111 30.3849 43.3121 30.1399L42.8007 31.8338C43.1257 31.9723 43.653 32.0681 44.2283 32.0681Z" fill="black"/>
                  <path d="M61.0487 21.2283H63.2593C63.2273 19.2841 61.6293 17.9417 59.2003 17.9417C56.8086 17.9417 55.0562 19.2628 55.0668 21.2443C55.0615 22.8529 56.1961 23.7745 58.0391 24.2166L59.227 24.5149C60.4148 24.8025 61.0753 25.1434 61.0807 25.8785C61.0753 26.6775 60.3189 27.2208 59.1471 27.2208C57.9486 27.2208 57.0856 26.6669 57.0111 25.5749H54.7792C54.8378 27.9346 56.5263 29.1544 59.1737 29.1544C61.8371 29.1544 63.4031 27.8814 63.4084 25.8838C63.4031 24.0674 62.0341 23.1033 60.1378 22.6772L59.1577 22.4428C58.2096 22.2244 57.4159 21.8728 57.4319 21.0898C57.4319 20.3867 58.0551 19.87 59.1844 19.87C60.287 19.87 60.9635 20.3707 61.0487 21.2283Z" fill="black"/>
                  <path d="M64.9172 29H67.1864V20.8181H64.9172V29ZM66.0571 19.7635C66.7336 19.7635 67.2876 19.2468 67.2876 18.6129C67.2876 17.9843 66.7336 17.4677 66.0571 17.4677C65.386 17.4677 64.832 17.9843 64.832 18.6129C64.832 19.2468 65.386 19.7635 66.0571 19.7635Z" fill="black"/>
                  <path d="M69.0041 29H71.2733V24.3711C71.2733 23.3643 72.0084 22.6718 73.0098 22.6718C73.3241 22.6718 73.7556 22.7251 73.9686 22.7944V20.7809C73.7662 20.7329 73.4839 20.701 73.2548 20.701C72.3387 20.701 71.5876 21.2336 71.2893 22.2457H71.2041V20.8181H69.0041V29Z" fill="black"/>
                  <path d="M75.1418 29H77.411V20.8181H75.1418V29ZM76.2817 19.7635C76.9582 19.7635 77.5122 19.2468 77.5122 18.6129C77.5122 17.9843 76.9582 17.4677 76.2817 17.4677C75.6106 17.4677 75.0566 17.9843 75.0566 18.6129C75.0566 19.2468 75.6106 19.7635 76.2817 19.7635Z" fill="black"/>
                  <path d="M81.695 27.5085H79.82L79.7934 28.1051C79.7295 29.5539 79.314 31.0401 79.1595 31.6633H80.6297C80.8854 31.0188 81.4926 29.506 81.6364 28.0944L81.695 27.5085Z" fill="black"/>
                  <path d="M88.3427 29H90.7398L92.146 23.8544H92.2472L93.6535 29H96.0558L98.277 20.8181H95.9866L94.7401 26.2833H94.6709L93.3285 20.8181H91.0753L89.7543 26.3153H89.6797L88.412 20.8181H86.1162L88.3427 29Z" fill="black"/>
                  <path d="M101.757 24.2699C101.762 23.2152 102.407 22.5973 103.333 22.5973C104.255 22.5973 104.798 23.1885 104.793 24.1953V29H107.062V23.7905C107.067 21.8728 105.938 20.7116 104.234 20.7116C102.993 20.7116 102.162 21.2976 101.789 22.2617H101.693V18.0909H99.4875V29H101.757V24.2699Z" fill="black"/>
                  <path d="M111.181 29.1544C112.39 29.1544 113.173 28.6271 113.573 27.8654H113.637V29H115.789V23.4815C115.789 21.5319 114.137 20.7116 112.316 20.7116C110.355 20.7116 109.066 21.6491 108.752 23.1406L110.851 23.311C111.005 22.7677 111.49 22.3682 112.305 22.3682C113.077 22.3682 113.519 22.7571 113.519 23.4282V23.4602C113.519 23.9875 112.96 24.0568 111.538 24.1953C109.919 24.3444 108.464 24.8878 108.464 26.7148C108.464 28.3341 109.62 29.1544 111.181 29.1544ZM111.831 27.5884C111.133 27.5884 110.632 27.2635 110.632 26.6402C110.632 26.001 111.16 25.6868 111.959 25.5749C112.454 25.5056 113.264 25.3885 113.535 25.2074V26.0756C113.535 26.9332 112.827 27.5884 111.831 27.5884Z" fill="black"/>
                  <path d="M121.901 20.8181H120.362V18.8579H118.092V20.8181H116.974V22.5227H118.092V26.7841C118.082 28.3874 119.174 29.1811 120.82 29.1118C121.406 29.0905 121.821 28.9733 122.05 28.8988L121.693 27.2102C121.581 27.2315 121.342 27.2848 121.129 27.2848C120.676 27.2848 120.362 27.1143 120.362 26.4858V22.5227H121.901V20.8181Z" fill="black"/>
                  <path d="M124.839 18.0909H123.219V22.2351H124.839V18.0909Z" fill="black"/>
                  <path d="M133.321 23.1512C133.119 21.6438 131.905 20.7116 129.838 20.7116C127.744 20.7116 126.365 21.6811 126.37 23.2578C126.365 24.4829 127.137 25.2766 128.735 25.5962L130.152 25.8785C130.866 26.0223 131.191 26.2833 131.201 26.6935C131.191 27.1782 130.663 27.5245 129.87 27.5245C129.06 27.5245 128.522 27.1782 128.384 26.5124L126.152 26.6296C126.365 28.1956 127.696 29.1598 129.864 29.1598C131.984 29.1598 133.503 28.0784 133.508 26.4645C133.503 25.2819 132.73 24.5735 131.143 24.2485L129.662 23.9503C128.9 23.7851 128.618 23.5241 128.623 23.1299C128.618 22.6399 129.172 22.3203 129.875 22.3203C130.663 22.3203 131.132 22.7517 131.244 23.2791L133.321 23.1512Z" fill="black"/>
                  <path d="M142.76 20.8181H141.221V18.8579H138.952V20.8181H137.833V22.5227H138.952V26.7841C138.941 28.3874 140.033 29.1811 141.679 29.1118C142.265 29.0905 142.68 28.9733 142.91 28.8988L142.553 27.2102C142.441 27.2315 142.201 27.2848 141.988 27.2848C141.535 27.2848 141.221 27.1143 141.221 26.4858V22.5227H142.76V20.8181Z" fill="black"/>
                  <path d="M146.683 24.2699C146.689 23.2152 147.333 22.5973 148.26 22.5973C149.182 22.5973 149.725 23.1885 149.72 24.1953V29H151.989V23.7905C151.994 21.8728 150.865 20.7116 149.16 20.7116C147.919 20.7116 147.088 21.2976 146.715 22.2617H146.62V18.0909H144.414V29H146.683V24.2699Z" fill="black"/>
                  <path d="M157.503 29.1598C159.527 29.1598 160.891 28.1743 161.211 26.6562L159.112 26.5177C158.883 27.1409 158.297 27.4659 157.541 27.4659C156.406 27.4659 155.687 26.7148 155.687 25.495V25.4897H161.259V24.8664C161.259 22.0859 159.575 20.7116 157.413 20.7116C155.005 20.7116 153.444 22.4215 153.444 24.9463C153.444 27.5405 154.984 29.1598 157.503 29.1598ZM155.687 24.0834C155.735 23.1512 156.443 22.4055 157.45 22.4055C158.436 22.4055 159.117 23.1086 159.123 24.0834H155.687Z" fill="black"/>
                  <path d="M167.825 29H170.222L171.628 23.8544H171.73L173.136 29H175.538L177.759 20.8181H175.469L174.223 26.2833H174.153L172.811 20.8181H170.558L169.237 26.3153H169.162L167.894 20.8181H165.599L167.825 29Z" fill="black"/>
                  <path d="M182.494 29.1598C184.518 29.1598 185.881 28.1743 186.201 26.6562L184.102 26.5177C183.873 27.1409 183.287 27.4659 182.531 27.4659C181.396 27.4659 180.677 26.7148 180.677 25.495V25.4897H186.249V24.8664C186.249 22.0859 184.566 20.7116 182.403 20.7116C179.995 20.7116 178.435 22.4215 178.435 24.9463C178.435 27.5405 179.974 29.1598 182.494 29.1598ZM180.677 24.0834C180.725 23.1512 181.434 22.4055 182.44 22.4055C183.426 22.4055 184.108 23.1086 184.113 24.0834H180.677Z" fill="black"/>
                  <path d="M190.063 29.1544C191.272 29.1544 192.055 28.6271 192.455 27.8654H192.518V29H194.67V23.4815C194.67 21.5319 193.019 20.7116 191.197 20.7116C189.237 20.7116 187.948 21.6491 187.634 23.1406L189.733 23.311C189.887 22.7677 190.372 22.3682 191.187 22.3682C191.959 22.3682 192.401 22.7571 192.401 23.4282V23.4602C192.401 23.9875 191.842 24.0568 190.42 24.1953C188.8 24.3444 187.346 24.8878 187.346 26.7148C187.346 28.3341 188.502 29.1544 190.063 29.1544ZM190.713 27.5884C190.015 27.5884 189.514 27.2635 189.514 26.6402C189.514 26.001 190.042 25.6868 190.841 25.5749C191.336 25.5056 192.146 25.3885 192.417 25.2074V26.0756C192.417 26.9332 191.709 27.5884 190.713 27.5884Z" fill="black"/>
                  <path d="M200.783 20.8181H199.243V18.8579H196.974V20.8181H195.856V22.5227H196.974V26.7841C196.964 28.3874 198.056 29.1811 199.701 29.1118C200.287 29.0905 200.703 28.9733 200.932 28.8988L200.575 27.2102C200.463 27.2315 200.224 27.2848 200.01 27.2848C199.558 27.2848 199.243 27.1143 199.243 26.4858V22.5227H200.783V20.8181Z" fill="black"/>
                  <path d="M204.706 24.2699C204.711 23.2152 205.356 22.5973 206.283 22.5973C207.204 22.5973 207.747 23.1885 207.742 24.1953V29H210.011V23.7905C210.017 21.8728 208.887 20.7116 207.183 20.7116C205.942 20.7116 205.111 21.2976 204.738 22.2617H204.642V18.0909H202.437V29H204.706V24.2699Z" fill="black"/>
                  <path d="M215.526 29.1598C217.55 29.1598 218.914 28.1743 219.233 26.6562L217.134 26.5177C216.905 27.1409 216.319 27.4659 215.563 27.4659C214.429 27.4659 213.709 26.7148 213.709 25.495V25.4897H219.281V24.8664C219.281 22.0859 217.598 20.7116 215.435 20.7116C213.028 20.7116 211.467 22.4215 211.467 24.9463C211.467 27.5405 213.006 29.1598 215.526 29.1598ZM213.709 24.0834C213.757 23.1512 214.466 22.4055 215.473 22.4055C216.458 22.4055 217.14 23.1086 217.145 24.0834H213.709Z" fill="black"/>
                  <path d="M220.762 29H223.031V24.3711C223.031 23.3643 223.766 22.6718 224.768 22.6718C225.082 22.6718 225.513 22.7251 225.726 22.7944V20.7809C225.524 20.7329 225.242 20.701 225.013 20.701C224.096 20.701 223.345 21.2336 223.047 22.2457H222.962V20.8181H220.762V29Z" fill="black"/>
                  <path d="M232.641 18.0909H230.371V29H232.641V18.0909Z" fill="black"/>
                  <path d="M234.458 29H236.727V20.8181H234.458V29ZM235.598 19.7635C236.275 19.7635 236.829 19.2468 236.829 18.6129C236.829 17.9843 236.275 17.4677 235.598 17.4677C234.927 17.4677 234.373 17.9843 234.373 18.6129C234.373 19.2468 234.927 19.7635 235.598 19.7635Z" fill="black"/>
                  <path d="M238.545 29H240.814V26.4005L241.427 25.7027L243.659 29H246.317L243.126 24.3604L246.162 20.8181H243.558L240.937 23.9236H240.814V18.0909H238.545V29Z" fill="black"/>
                  <path d="M250.667 29.1598C252.692 29.1598 254.055 28.1743 254.375 26.6562L252.276 26.5177C252.047 27.1409 251.461 27.4659 250.705 27.4659C249.57 27.4659 248.851 26.7148 248.851 25.495V25.4897H254.423V24.8664C254.423 22.0859 252.739 20.7116 250.577 20.7116C248.169 20.7116 246.608 22.4215 246.608 24.9463C246.608 27.5405 248.148 29.1598 250.667 29.1598ZM248.851 24.0834C248.899 23.1512 249.607 22.4055 250.614 22.4055C251.6 22.4055 252.281 23.1086 252.287 24.0834H248.851Z" fill="black"/>
                  <path d="M263.727 20.8181H262.188V18.8579H259.919V20.8181H258.8V22.5227H259.919V26.7841C259.908 28.3874 261 29.1811 262.646 29.1118C263.232 29.0905 263.647 28.9733 263.876 28.8988L263.519 27.2102C263.408 27.2315 263.168 27.2848 262.955 27.2848C262.502 27.2848 262.188 27.1143 262.188 26.4858V22.5227H263.727V20.8181Z" fill="black"/>
                  <path d="M268.814 29.1598C271.296 29.1598 272.841 27.4605 272.841 24.941C272.841 22.4055 271.296 20.7116 268.814 20.7116C266.332 20.7116 264.787 22.4055 264.787 24.941C264.787 27.4605 266.332 29.1598 268.814 29.1598ZM268.825 27.402C267.68 27.402 267.094 26.3526 267.094 24.925C267.094 23.4975 267.68 22.4428 268.825 22.4428C269.949 22.4428 270.535 23.4975 270.535 24.925C270.535 26.3526 269.949 27.402 268.825 27.402Z" fill="black"/>
                  <path d="M277.332 29.1331C278.653 29.1331 279.34 28.3714 279.654 27.6896H279.75V29H281.987V18.0909H279.723V22.1924H279.654C279.35 21.5266 278.695 20.7116 277.326 20.7116C275.531 20.7116 274.013 22.1072 274.013 24.9197C274.013 27.6576 275.467 29.1331 277.332 29.1331ZM278.051 27.3274C276.937 27.3274 276.33 26.3366 276.33 24.9091C276.33 23.4922 276.927 22.5174 278.051 22.5174C279.153 22.5174 279.771 23.4495 279.771 24.9091C279.771 26.3686 279.143 27.3274 278.051 27.3274Z" fill="black"/>
                  <path d="M286.186 29.1544C287.395 29.1544 288.178 28.6271 288.578 27.8654H288.641V29H290.793V23.4815C290.793 21.5319 289.142 20.7116 287.32 20.7116C285.36 20.7116 284.071 21.6491 283.757 23.1406L285.856 23.311C286.01 22.7677 286.495 22.3682 287.31 22.3682C288.082 22.3682 288.524 22.7571 288.524 23.4282V23.4602C288.524 23.9875 287.965 24.0568 286.543 24.1953C284.923 24.3444 283.469 24.8878 283.469 26.7148C283.469 28.3341 284.625 29.1544 286.186 29.1544ZM286.836 27.5884C286.138 27.5884 285.637 27.2635 285.637 26.6402C285.637 26.001 286.165 25.6868 286.964 25.5749C287.459 25.5056 288.269 25.3885 288.54 25.2074V26.0756C288.54 26.9332 287.832 27.5884 286.836 27.5884Z" fill="black"/>
                  <path d="M293.662 32.0681C295.35 32.0681 296.245 31.2052 296.709 29.8842L299.889 20.8288L297.486 20.8181L295.777 26.8267H295.691L293.997 20.8181H291.611L294.546 29.2343L294.413 29.5806C294.115 30.3476 293.545 30.3849 292.746 30.1399L292.234 31.8338C292.559 31.9723 293.087 32.0681 293.662 32.0681Z" fill="black"/>
                  <path d="M303 25.7294H305.018V25.5483C305.029 24.5096 305.402 24.0248 306.244 23.5188C307.24 22.9275 307.89 22.1445 307.89 20.8927C307.89 19.0284 306.387 17.9417 304.273 17.9417C302.339 17.9417 300.762 18.9538 300.714 21.0845H302.888C302.92 20.2162 303.564 19.7528 304.262 19.7528C304.981 19.7528 305.562 20.2322 305.562 20.9726C305.562 21.6704 305.056 22.1338 304.401 22.5493C303.506 23.114 303.005 23.6839 303 25.5483V25.7294ZM304.049 29.1385C304.731 29.1385 305.322 28.5685 305.327 27.8601C305.322 27.1623 304.731 26.5923 304.049 26.5923C303.346 26.5923 302.765 27.1623 302.771 27.8601C302.765 28.5685 303.346 29.1385 304.049 29.1385Z" fill="black"/>
                </svg>