<svg width="320" height="63" viewBox="0 0 320 63" fill="none" xmlns="http://www.w3.org/2000/svg">
<path opacity="0.1" fill-rule="evenodd" clip-rule="evenodd" d="M10 0C4.47715 0 0 4.47715 0 10V39C0 44.5228 4.47715 49 10 49H16.487C15.7613 53.2272 15.8039 57.8923 16.9053 63C18.0055 59.5985 21.5372 54.2477 28.5667 49H310C315.523 49 320 44.5228 320 39V10C320 4.47715 315.523 0 310 0H10Z" fill="black"/>
<path d="M24.8285 29L25.6382 26.5125H29.5746L30.3843 29H32.8559L29.0952 18.0909H26.1229L22.3569 29H24.8285ZM26.2241 24.712L27.5665 20.5838H27.6517L28.994 24.712H26.2241Z" fill="black"/>
<path d="M36.3955 18.0909H34.1263V29H36.3955V18.0909Z" fill="black"/>
<path d="M41.9419 29.1598C43.966 29.1598 45.3297 28.1744 45.6493 26.6563L43.5506 26.5178C43.3215 27.141 42.7356 27.4659 41.9792 27.4659C40.8446 27.4659 40.1255 26.7149 40.1255 25.4951V25.4897H45.6972V24.8665C45.6972 22.086 44.014 20.7117 41.8513 20.7117C39.4437 20.7117 37.8829 22.4216 37.8829 24.9464C37.8829 27.5405 39.4224 29.1598 41.9419 29.1598ZM40.1255 24.0835C40.1734 23.1513 40.8819 22.4056 41.8886 22.4056C42.8741 22.4056 43.5559 23.1087 43.5612 24.0835H40.1255Z" fill="black"/>
<path d="M48.9425 20.8182H46.5988L48.9425 24.9091L46.5135 29H48.8573L50.4446 26.1716L52.0586 29H54.3758L51.9415 24.9091L54.3118 20.8182H51.9841L50.4446 23.6787L48.9425 20.8182Z" fill="black"/>
<path d="M57.9486 29.1545C59.1578 29.1545 59.9408 28.6272 60.3403 27.8654H60.4043V29H62.5562V23.4816C62.5562 21.532 60.905 20.7117 59.0832 20.7117C57.123 20.7117 55.8339 21.6492 55.5197 23.1407L57.6184 23.3111C57.7729 22.7678 58.2576 22.3683 59.0726 22.3683C59.8449 22.3683 60.2871 22.7571 60.2871 23.4283V23.4603C60.2871 23.9876 59.7278 24.0569 58.3055 24.1953C56.6862 24.3445 55.232 24.8878 55.232 26.7149C55.232 28.3342 56.3879 29.1545 57.9486 29.1545ZM58.5985 27.5885C57.9007 27.5885 57.4 27.2635 57.4 26.6403C57.4 26.0011 57.9273 25.6868 58.7263 25.575C59.2217 25.5057 60.0314 25.3885 60.303 25.2074V26.0757C60.303 26.9333 59.5946 27.5885 58.5985 27.5885Z" fill="black"/>
<path d="M66.783 27.5086H64.908L64.8813 28.1051C64.8174 29.554 64.4019 31.0402 64.2475 31.6634H65.7176C65.9733 31.0189 66.5806 29.5061 66.7244 28.0945L66.783 27.5086Z" fill="black"/>
<path d="M71.8167 32.0682H74.0859V27.6897H74.1551C74.4694 28.3715 75.1566 29.1332 76.4776 29.1332C78.3419 29.1332 79.7961 27.6577 79.7961 24.9198C79.7961 22.1073 78.278 20.7117 76.4829 20.7117C75.1139 20.7117 74.4588 21.5267 74.1551 22.1925H74.0539V20.8182H71.8167V32.0682ZM74.038 24.9091C74.038 23.4496 74.6559 22.5174 75.7585 22.5174C76.8824 22.5174 77.479 23.4922 77.479 24.9091C77.479 26.3367 76.8718 27.3274 75.7585 27.3274C74.6665 27.3274 74.038 26.3686 74.038 24.9091Z" fill="black"/>
<path d="M83.5781 18.0909H81.3089V29H83.5781V18.0909Z" fill="black"/>
<path d="M87.7289 29.1545C88.9381 29.1545 89.7211 28.6272 90.1206 27.8654H90.1845V29H92.3365V23.4816C92.3365 21.532 90.6852 20.7117 88.8635 20.7117C86.9033 20.7117 85.6142 21.6492 85.2999 23.1407L87.3987 23.3111C87.5531 22.7678 88.0379 22.3683 88.8529 22.3683C89.6252 22.3683 90.0673 22.7571 90.0673 23.4283V23.4603C90.0673 23.9876 89.508 24.0569 88.0858 24.1953C86.4665 24.3445 85.0123 24.8878 85.0123 26.7149C85.0123 28.3342 86.1682 29.1545 87.7289 29.1545ZM88.3788 27.5885C87.681 27.5885 87.1803 27.2635 87.1803 26.6403C87.1803 26.0011 87.7076 25.6868 88.5066 25.575C89.002 25.5057 89.8117 25.3885 90.0833 25.2074V26.0757C90.0833 26.9333 89.3749 27.5885 88.3788 27.5885Z" fill="black"/>
<path d="M95.2049 32.0682C96.8935 32.0682 97.7884 31.2053 98.2518 29.8843L101.432 20.8289L99.0295 20.8182L97.3196 26.8267H97.2344L95.5405 20.8182H93.1542L96.0892 29.2344L95.956 29.5806C95.6577 30.3477 95.0878 30.385 94.2887 30.1399L93.7774 31.8338C94.1023 31.9723 94.6297 32.0682 95.2049 32.0682Z" fill="black"/>
<path d="M109.975 29C113.298 29 115.312 26.9439 115.312 23.5348C115.312 20.1364 113.298 18.0909 110.007 18.0909H106.107V29H109.975ZM108.414 27.0238V20.0672H109.884C111.929 20.0672 113.011 21.1112 113.011 23.5348C113.011 25.9691 111.929 27.0238 109.879 27.0238H108.414Z" fill="black"/>
<path d="M116.978 29H119.247V24.3711C119.247 23.3644 119.982 22.6719 120.984 22.6719C121.298 22.6719 121.729 22.7252 121.942 22.7944V20.7809C121.74 20.733 121.458 20.701 121.229 20.701C120.312 20.701 119.561 21.2337 119.263 22.2458H119.178V20.8182H116.978V29Z" fill="black"/>
<path d="M126.463 29.1598C128.488 29.1598 129.851 28.1744 130.171 26.6563L128.072 26.5178C127.843 27.141 127.257 27.4659 126.501 27.4659C125.366 27.4659 124.647 26.7149 124.647 25.4951V25.4897H130.219V24.8665C130.219 22.086 128.535 20.7117 126.373 20.7117C123.965 20.7117 122.404 22.4216 122.404 24.9464C122.404 27.5405 123.944 29.1598 126.463 29.1598ZM124.647 24.0835C124.695 23.1513 125.403 22.4056 126.41 22.4056C127.396 22.4056 128.077 23.1087 128.083 24.0835H124.647Z" fill="black"/>
<path d="M134.033 29.1545C135.242 29.1545 136.025 28.6272 136.424 27.8654H136.488V29H138.64V23.4816C138.64 21.532 136.989 20.7117 135.167 20.7117C133.207 20.7117 131.918 21.6492 131.604 23.1407L133.702 23.3111C133.857 22.7678 134.342 22.3683 135.157 22.3683C135.929 22.3683 136.371 22.7571 136.371 23.4283V23.4603C136.371 23.9876 135.812 24.0569 134.39 24.1953C132.77 24.3445 131.316 24.8878 131.316 26.7149C131.316 28.3342 132.472 29.1545 134.033 29.1545ZM134.682 27.5885C133.985 27.5885 133.484 27.2635 133.484 26.6403C133.484 26.0011 134.011 25.6868 134.81 25.575C135.306 25.5057 136.115 25.3885 136.387 25.2074V26.0757C136.387 26.9333 135.679 27.5885 134.682 27.5885Z" fill="black"/>
<path d="M140.401 29H142.67V24.0888C142.67 23.1833 143.245 22.5814 144.002 22.5814C144.747 22.5814 145.248 23.0927 145.248 23.8971V29H147.448V24.0036C147.448 23.1566 147.933 22.5814 148.758 22.5814C149.483 22.5814 150.026 23.0341 150.026 23.945V29H152.29V23.4975C152.29 21.7238 151.235 20.7117 149.712 20.7117C148.513 20.7117 147.581 21.3243 147.246 22.2618H147.16C146.899 21.3136 146.063 20.7117 144.939 20.7117C143.836 20.7117 143 21.2976 142.659 22.2618H142.563V20.8182H140.401V29Z" fill="black"/>
<path d="M160.89 23.1513C160.687 21.6439 159.473 20.7117 157.406 20.7117C155.313 20.7117 153.933 21.6811 153.939 23.2578C153.933 24.483 154.706 25.2767 156.304 25.5963L157.72 25.8786C158.434 26.0224 158.759 26.2834 158.77 26.6936C158.759 27.1783 158.232 27.5245 157.438 27.5245C156.629 27.5245 156.091 27.1783 155.952 26.5125L153.72 26.6297C153.933 28.1957 155.265 29.1598 157.433 29.1598C159.553 29.1598 161.071 28.0785 161.076 26.4645C161.071 25.282 160.299 24.5735 158.711 24.2486L157.23 23.9503C156.469 23.7852 156.186 23.5242 156.192 23.13C156.186 22.6399 156.74 22.3203 157.443 22.3203C158.232 22.3203 158.701 22.7518 158.812 23.2792L160.89 23.1513Z" fill="black"/>
<path d="M166.019 29H168.257V27.6897H168.358C168.672 28.3715 169.359 29.1332 170.68 29.1332C172.545 29.1332 173.999 27.6577 173.999 24.9198C173.999 22.1073 172.481 20.7117 170.686 20.7117C169.317 20.7117 168.662 21.5267 168.358 22.1925H168.289V18.0909H166.019V29ZM168.241 24.9091C168.241 23.4496 168.859 22.5174 169.961 22.5174C171.085 22.5174 171.682 23.4922 171.682 24.9091C171.682 26.3367 171.075 27.3274 169.961 27.3274C168.869 27.3274 168.241 26.3686 168.241 24.9091Z" fill="black"/>
<path d="M176.636 32.0682C178.324 32.0682 179.219 31.2053 179.682 29.8843L182.863 20.8289L180.46 20.8182L178.75 26.8267H178.665L176.971 20.8182H174.585L177.52 29.2344L177.387 29.5806C177.088 30.3477 176.518 30.385 175.719 30.1399L175.208 31.8338C175.533 31.9723 176.06 32.0682 176.636 32.0682Z" fill="black"/>
<path d="M187.538 29H189.844V24.4936H194.282V22.592H189.844V19.9926H194.761V18.0909H187.538V29Z" fill="black"/>
<path d="M198.539 18.0909H196.27V29H198.539V18.0909Z" fill="black"/>
<path d="M204.085 29.1598C206.11 29.1598 207.473 28.1744 207.793 26.6563L205.694 26.5178C205.465 27.141 204.879 27.4659 204.123 27.4659C202.988 27.4659 202.269 26.7149 202.269 25.4951V25.4897H207.841V24.8665C207.841 22.086 206.158 20.7117 203.995 20.7117C201.587 20.7117 200.027 22.4216 200.027 24.9464C200.027 27.5405 201.566 29.1598 204.085 29.1598ZM202.269 24.0835C202.317 23.1513 203.025 22.4056 204.032 22.4056C205.018 22.4056 205.699 23.1087 205.705 24.0835H202.269Z" fill="black"/>
<path d="M213.05 29.1598C215.074 29.1598 216.438 28.1744 216.758 26.6563L214.659 26.5178C214.43 27.141 213.844 27.4659 213.088 27.4659C211.953 27.4659 211.234 26.7149 211.234 25.4951V25.4897H216.806V24.8665C216.806 22.086 215.122 20.7117 212.96 20.7117C210.552 20.7117 208.991 22.4216 208.991 24.9464C208.991 27.5405 210.531 29.1598 213.05 29.1598ZM211.234 24.0835C211.282 23.1513 211.99 22.4056 212.997 22.4056C213.982 22.4056 214.664 23.1087 214.67 24.0835H211.234Z" fill="black"/>
<path d="M222.638 20.8182H221.099V18.858H218.83V20.8182H217.711V22.5228H218.83V26.7841C218.819 28.3875 219.911 29.1811 221.557 29.1119C222.143 29.0906 222.558 28.9734 222.788 28.8988L222.431 27.2103C222.319 27.2316 222.079 27.2848 221.866 27.2848C221.413 27.2848 221.099 27.1144 221.099 26.4858V22.5228H222.638V20.8182Z" fill="black"/>
<path d="M225.731 29H228.128L229.534 23.8544H229.635L231.041 29H233.444L235.665 20.8182H233.374L232.128 26.2834H232.059L230.716 20.8182H228.463L227.142 26.3154H227.068L225.8 20.8182H223.504L225.731 29Z" fill="black"/>
<path d="M240.367 29.1598C242.849 29.1598 244.394 27.4606 244.394 24.9411C244.394 22.4056 242.849 20.7117 240.367 20.7117C237.885 20.7117 236.34 22.4056 236.34 24.9411C236.34 27.4606 237.885 29.1598 240.367 29.1598ZM240.378 27.402C239.232 27.402 238.646 26.3527 238.646 24.9251C238.646 23.4975 239.232 22.4429 240.378 22.4429C241.502 22.4429 242.087 23.4975 242.087 24.9251C242.087 26.3527 241.502 27.402 240.378 27.402Z" fill="black"/>
<path d="M249.566 29.1598C252.048 29.1598 253.593 27.4606 253.593 24.9411C253.593 22.4056 252.048 20.7117 249.566 20.7117C247.084 20.7117 245.539 22.4056 245.539 24.9411C245.539 27.4606 247.084 29.1598 249.566 29.1598ZM249.577 27.402C248.432 27.402 247.846 26.3527 247.846 24.9251C247.846 23.4975 248.432 22.4429 249.577 22.4429C250.701 22.4429 251.287 23.4975 251.287 24.9251C251.287 26.3527 250.701 27.402 249.577 27.402Z" fill="black"/>
<path d="M258.084 29.1332C259.405 29.1332 260.092 28.3715 260.406 27.6897H260.502V29H262.739V18.0909H260.475V22.1925H260.406C260.102 21.5267 259.447 20.7117 258.078 20.7117C256.283 20.7117 254.765 22.1073 254.765 24.9198C254.765 27.6577 256.219 29.1332 258.084 29.1332ZM258.803 27.3274C257.689 27.3274 257.082 26.3367 257.082 24.9091C257.082 23.4922 257.679 22.5174 258.803 22.5174C259.905 22.5174 260.523 23.4496 260.523 24.9091C260.523 26.3686 259.895 27.3274 258.803 27.3274Z" fill="black"/>
<path d="M268.119 18.0909V29H270.356V21.8729H270.447L273.27 28.9468H274.793L277.617 21.8995H277.707V29H279.944V18.0909H277.1L274.096 25.4205H273.968L270.964 18.0909H268.119Z" fill="black"/>
<path d="M284.135 29.1545C285.344 29.1545 286.127 28.6272 286.527 27.8654H286.591V29H288.743V23.4816C288.743 21.532 287.091 20.7117 285.27 20.7117C283.31 20.7117 282.02 21.6492 281.706 23.1407L283.805 23.3111C283.959 22.7678 284.444 22.3683 285.259 22.3683C286.031 22.3683 286.474 22.7571 286.474 23.4283V23.4603C286.474 23.9876 285.914 24.0569 284.492 24.1953C282.873 24.3445 281.419 24.8878 281.419 26.7149C281.419 28.3342 282.574 29.1545 284.135 29.1545ZM284.785 27.5885C284.087 27.5885 283.587 27.2635 283.587 26.6403C283.587 26.0011 284.114 25.6868 284.913 25.575C285.408 25.5057 286.218 25.3885 286.49 25.2074V26.0757C286.49 26.9333 285.781 27.5885 284.785 27.5885Z" fill="black"/>
<path d="M294.2 29.1598C296.379 29.1598 297.748 27.8814 297.854 26.0011H295.713C295.58 26.8747 295.004 27.3647 294.227 27.3647C293.167 27.3647 292.479 26.4752 292.479 24.9091C292.479 23.3644 293.172 22.4801 294.227 22.4801C295.058 22.4801 295.59 23.0288 295.713 23.8438H297.854C297.758 21.9528 296.325 20.7117 294.189 20.7117C291.707 20.7117 290.173 22.4322 290.173 24.9411C290.173 27.4287 291.68 29.1598 294.2 29.1598Z" fill="black"/>
<path d="M300.633 29.1385C301.315 29.1385 301.906 28.5686 301.912 27.8601C301.906 27.1623 301.315 26.5924 300.633 26.5924C299.93 26.5924 299.35 27.1623 299.355 27.8601C299.35 28.5686 299.93 29.1385 300.633 29.1385Z" fill="black"/>
</svg>
