
                <svg width="278" height="63" viewBox="0 0 278 63" fill="none" xmlns="http://www.w3.org/2000/svg">
                  <path opacity="0.1" fill-rule="evenodd" clip-rule="evenodd" d="M10 0C4.47715 0 0 4.47715 0 10V39C0 44.5228 4.47715 49 10 49H16.487C15.7613 53.2272 15.8039 57.8923 16.9053 63C18.0055 59.5985 21.5372 54.2477 28.5667 49H268C273.523 49 278 44.5228 278 39V10C278 4.47715 273.523 0 268 0H10Z" fill="black"/>
                  <path d="M32.973 23.5455C32.973 19.9766 30.7571 17.9418 27.8647 17.9418C24.9563 17.9418 22.7563 19.9766 22.7563 23.5455C22.7563 27.0984 24.9563 29.1492 27.8647 29.1492C30.7571 29.1492 32.973 27.1144 32.973 23.5455ZM30.6345 23.5455C30.6345 25.8573 29.5372 27.109 27.8647 27.109C26.1867 27.109 25.0948 25.8573 25.0948 23.5455C25.0948 21.2337 26.1867 19.9819 27.8647 19.9819C29.5372 19.9819 30.6345 21.2337 30.6345 23.5455Z" fill="black"/>
                  <path d="M34.6815 29H36.988V25.8999L38.1226 24.5149L41.1108 29H43.8701L39.7738 22.9755L43.8221 18.0909H41.0576L37.1318 22.9009H36.988V18.0909H34.6815V29Z" fill="black"/>
                  <path d="M47.447 27.5085H45.572L45.5453 28.1051C45.4814 29.554 45.0659 31.0401 44.9114 31.6634H46.3816C46.6373 31.0188 47.2445 29.506 47.3884 28.0945L47.447 27.5085Z" fill="black"/>
                  <path d="M59.757 21.6172H62.1007C61.8024 19.4599 59.9008 17.9418 57.4345 17.9418C54.5528 17.9418 52.3315 20.0192 52.3315 23.5561C52.3315 27.0078 54.409 29.1492 57.4825 29.1492C60.2364 29.1492 62.2019 27.4073 62.2019 24.5362V23.1619H57.6369V24.8984H59.9807C59.9487 26.2514 59.0272 27.109 57.4931 27.109C55.7619 27.109 54.67 25.8146 54.67 23.5348C54.67 21.2656 55.8046 19.9819 57.4718 19.9819C58.6597 19.9819 59.464 20.5945 59.757 21.6172Z" fill="black"/>
                  <path d="M67.5886 29.1598C70.0708 29.1598 71.6155 27.4606 71.6155 24.9411C71.6155 22.4056 70.0708 20.7117 67.5886 20.7117C65.1063 20.7117 63.5616 22.4056 63.5616 24.9411C63.5616 27.4606 65.1063 29.1598 67.5886 29.1598ZM67.5992 27.402C66.454 27.402 65.868 26.3526 65.868 24.9251C65.868 23.4975 66.454 22.4428 67.5992 22.4428C68.7231 22.4428 69.3091 23.4975 69.3091 24.9251C69.3091 26.3526 68.7231 27.402 67.5992 27.402Z" fill="black"/>
                  <path d="M76.7878 29.1598C79.27 29.1598 80.8148 27.4606 80.8148 24.9411C80.8148 22.4056 79.27 20.7117 76.7878 20.7117C74.3055 20.7117 72.7608 22.4056 72.7608 24.9411C72.7608 27.4606 74.3055 29.1598 76.7878 29.1598ZM76.7984 27.402C75.6532 27.402 75.0672 26.3526 75.0672 24.9251C75.0672 23.4975 75.6532 22.4428 76.7984 22.4428C77.9224 22.4428 78.5083 23.4975 78.5083 24.9251C78.5083 26.3526 77.9224 27.402 76.7984 27.402Z" fill="black"/>
                  <path d="M85.9763 32.2386C88.3148 32.2386 89.9767 31.1733 89.9767 29.0799V20.8182H87.7235V22.1925H87.6383C87.3347 21.5266 86.6688 20.7117 85.2999 20.7117C83.5048 20.7117 81.9866 22.1073 81.9866 24.8931C81.9866 27.6151 83.4621 28.8828 85.3052 28.8828C86.6102 28.8828 87.34 28.2276 87.6383 27.5511H87.7342V29.048C87.7342 30.1719 87.015 30.6087 86.0296 30.6087C85.0282 30.6087 84.5222 30.1719 84.3357 29.6765L82.237 29.9588C82.5087 31.2479 83.7711 32.2386 85.9763 32.2386ZM86.0243 27.1783C84.911 27.1783 84.3038 26.294 84.3038 24.8825C84.3038 23.4922 84.9003 22.5174 86.0243 22.5174C87.1269 22.5174 87.7448 23.4496 87.7448 24.8825C87.7448 26.326 87.1163 27.1783 86.0243 27.1783Z" fill="black"/>
                  <path d="M94.0516 18.0909H91.7824V29H94.0516V18.0909Z" fill="black"/>
                  <path d="M99.5981 29.1598C101.622 29.1598 102.986 28.1744 103.305 26.6563L101.207 26.5178C100.978 27.141 100.392 27.4659 99.6353 27.4659C98.5008 27.4659 97.7816 26.7149 97.7816 25.495V25.4897H103.353V24.8665C103.353 22.0859 101.67 20.7117 99.5075 20.7117C97.0998 20.7117 95.5391 22.4215 95.5391 24.9464C95.5391 27.5405 97.0785 29.1598 99.5981 29.1598ZM97.7816 24.0835C97.8296 23.1513 98.538 22.4056 99.5448 22.4056C100.53 22.4056 101.212 23.1087 101.217 24.0835H97.7816Z" fill="black"/>
                  <path d="M107.3 27.5085H105.425L105.399 28.1051C105.335 29.554 104.919 31.0401 104.765 31.6634H106.235C106.491 31.0188 107.098 29.506 107.242 28.0945L107.3 27.5085Z" fill="black"/>
                  <path d="M113.948 29H116.345L117.751 23.8544H117.853L119.259 29H121.661L123.882 20.8182H121.592L120.346 26.2834H120.276L118.934 20.8182H116.681L115.36 26.3154H115.285L114.017 20.8182H111.722L113.948 29Z" fill="black"/>
                  <path d="M127.426 29.1545C128.635 29.1545 129.418 28.6271 129.818 27.8654H129.882V29H132.034V23.4815C132.034 21.532 130.382 20.7117 128.561 20.7117C126.6 20.7117 125.311 21.6492 124.997 23.1406L127.096 23.3111C127.25 22.7678 127.735 22.3683 128.55 22.3683C129.322 22.3683 129.765 22.7571 129.765 23.4283V23.4602C129.765 23.9876 129.205 24.0568 127.783 24.1953C126.164 24.3445 124.709 24.8878 124.709 26.7149C124.709 28.3342 125.865 29.1545 127.426 29.1545ZM128.076 27.5884C127.378 27.5884 126.877 27.2635 126.877 26.6403C126.877 26.0011 127.405 25.6868 128.204 25.5749C128.699 25.5057 129.509 25.3885 129.78 25.2074V26.0757C129.78 26.9332 129.072 27.5884 128.076 27.5884Z" fill="black"/>
                  <path d="M133.794 29H136.063V26.4006L136.676 25.7028L138.908 29H141.566L138.375 24.3605L141.411 20.8182H138.807L136.186 23.9237H136.063V18.0909H133.794V29Z" fill="black"/>
                  <path d="M145.916 29.1598C147.941 29.1598 149.304 28.1744 149.624 26.6563L147.525 26.5178C147.296 27.141 146.71 27.4659 145.954 27.4659C144.819 27.4659 144.1 26.7149 144.1 25.495V25.4897H149.672V24.8665C149.672 22.0859 147.989 20.7117 145.826 20.7117C143.418 20.7117 141.857 22.4215 141.857 24.9464C141.857 27.5405 143.397 29.1598 145.916 29.1598ZM144.1 24.0835C144.148 23.1513 144.856 22.4056 145.863 22.4056C146.849 22.4056 147.53 23.1087 147.536 24.0835H144.1Z" fill="black"/>
                  <path d="M154.624 29H156.893V24.0888C156.893 23.1833 157.469 22.5813 158.225 22.5813C158.971 22.5813 159.472 23.0927 159.472 23.897V29H161.671V24.0036C161.671 23.1566 162.156 22.5813 162.982 22.5813C163.706 22.5813 164.25 23.0341 164.25 23.945V29H166.513V23.4975C166.513 21.7237 165.459 20.7117 163.935 20.7117C162.737 20.7117 161.805 21.3242 161.469 22.2617H161.384C161.123 21.3136 160.287 20.7117 159.163 20.7117C158.06 20.7117 157.224 21.2976 156.883 22.2617H156.787V20.8182H154.624V29Z" fill="black"/>
                  <path d="M172.035 29.1598C174.059 29.1598 175.422 28.1744 175.742 26.6563L173.643 26.5178C173.414 27.141 172.828 27.4659 172.072 27.4659C170.937 27.4659 170.218 26.7149 170.218 25.495V25.4897H175.79V24.8665C175.79 22.0859 174.107 20.7117 171.944 20.7117C169.536 20.7117 167.976 22.4215 167.976 24.9464C167.976 27.5405 169.515 29.1598 172.035 29.1598ZM170.218 24.0835C170.266 23.1513 170.975 22.4056 171.981 22.4056C172.967 22.4056 173.649 23.1087 173.654 24.0835H170.218Z" fill="black"/>
                  <path d="M185.989 25.5163C185.995 26.6136 185.243 27.1889 184.428 27.1889C183.571 27.1889 183.017 26.587 183.012 25.6229V20.8182H180.742V26.0277C180.748 27.94 181.866 29.1065 183.512 29.1065C184.743 29.1065 185.627 28.4727 185.995 27.5139H186.08V29H188.258V20.8182H185.989V25.5163Z" fill="black"/>
                  <path d="M190.073 32.0682H192.343V27.6896H192.412C192.726 28.3715 193.413 29.1332 194.734 29.1332C196.599 29.1332 198.053 27.6577 198.053 24.9198C198.053 22.1073 196.535 20.7117 194.74 20.7117C193.371 20.7117 192.716 21.5266 192.412 22.1925H192.311V20.8182H190.073V32.0682ZM192.295 24.9091C192.295 23.4496 192.913 22.5174 194.015 22.5174C195.139 22.5174 195.736 23.4922 195.736 24.9091C195.736 26.3367 195.129 27.3274 194.015 27.3274C192.923 27.3274 192.295 26.3686 192.295 24.9091Z" fill="black"/>
                  <path d="M205.37 29.1545C206.58 29.1545 207.363 28.6271 207.762 27.8654H207.826V29H209.978V23.4815C209.978 21.532 208.327 20.7117 206.505 20.7117C204.545 20.7117 203.256 21.6492 202.941 23.1406L205.04 23.3111C205.195 22.7678 205.679 22.3683 206.494 22.3683C207.267 22.3683 207.709 22.7571 207.709 23.4283V23.4602C207.709 23.9876 207.15 24.0568 205.727 24.1953C204.108 24.3445 202.654 24.8878 202.654 26.7149C202.654 28.3342 203.81 29.1545 205.37 29.1545ZM206.02 27.5884C205.322 27.5884 204.822 27.2635 204.822 26.6403C204.822 26.0011 205.349 25.6868 206.148 25.5749C206.644 25.5057 207.453 25.3885 207.725 25.2074V26.0757C207.725 26.9332 207.016 27.5884 206.02 27.5884Z" fill="black"/>
                  <path d="M216.09 20.8182H214.551V18.858H212.282V20.8182H211.163V22.5227H212.282V26.7841C212.271 28.3874 213.363 29.1811 215.009 29.1119C215.595 29.0906 216.011 28.9734 216.24 28.8988L215.883 27.2102C215.771 27.2315 215.531 27.2848 215.318 27.2848C214.865 27.2848 214.551 27.1144 214.551 26.4858V22.5227H216.09V20.8182Z" fill="black"/>
                  <path d="M221.45 29H223.831L228.359 20.0032V18.0909H220.705V19.9766H225.973V20.0511L221.45 29Z" fill="black"/>
                  <path d="M230.258 29L231.068 26.5124H235.004L235.814 29H238.285L234.525 18.0909H231.553L227.787 29H230.258ZM231.654 24.712L232.996 20.5838H233.081L234.424 24.712H231.654Z" fill="black"/>
                  <path d="M239.598 18.0909V29H241.836V21.8729H241.926L244.749 28.9467H246.273L249.096 21.8995H249.187V29H251.424V18.0909H248.579L245.575 25.4205H245.447L242.443 18.0909H239.598Z" fill="black"/>
                  <path d="M254.608 29.1385C255.29 29.1385 255.881 28.5685 255.886 27.8601C255.881 27.1623 255.29 26.5923 254.608 26.5923C253.905 26.5923 253.324 27.1623 253.329 27.8601C253.324 28.5685 253.905 29.1385 254.608 29.1385Z" fill="black"/>
                </svg>