<svg width="80" height="80" viewBox="0 0 80 80" fill="none" xmlns="http://www.w3.org/2000/svg">
<circle cx="40" cy="40" r="40" fill="#8A5195"/>
<path d="M22 46.8388H27.593C30.5334 46.8388 32.0994 45.3047 32.0994 43.2209C32.0994 41.2841 30.7124 40.1143 29.223 40.044V39.9162C30.5845 39.6094 31.5881 38.6442 31.5881 37.1037C31.5881 35.1413 30.1307 33.7479 27.2415 33.7479H22V46.8388ZM24.7678 44.576V41.0987H27.0881C28.4176 41.0987 29.2422 41.8658 29.2422 42.946C29.2422 43.9304 28.571 44.576 27.0241 44.576H24.7678ZM24.7678 39.2259V35.9851H26.8707C28.098 35.9851 28.7947 36.6179 28.7947 37.5639C28.7947 38.5994 27.951 39.2259 26.8196 39.2259H24.7678Z" fill="white"/>
<path d="M33.8493 46.8388H36.5723V37.0206H33.8493V46.8388ZM35.2172 35.755C36.0289 35.755 36.6937 35.1349 36.6937 34.3743C36.6937 33.62 36.0289 33 35.2172 33C34.4118 33 33.747 33.62 33.747 34.3743C33.747 35.1349 34.4118 35.755 35.2172 35.755Z" fill="white"/>
<path d="M41.5533 47.0241C43.0043 47.0241 43.9439 46.3913 44.4233 45.4773H44.5V46.8388H47.0824V40.2166C47.0824 37.8771 45.1009 36.8928 42.9148 36.8928C40.5625 36.8928 39.0156 38.0178 38.6385 39.8075L41.157 40.0121C41.3423 39.3601 41.924 38.8807 42.902 38.8807C43.8288 38.8807 44.3594 39.3473 44.3594 40.1527V40.1911C44.3594 40.8239 43.6882 40.907 41.9815 41.0732C40.0384 41.2521 38.2933 41.9041 38.2933 44.0966C38.2933 46.0398 39.6804 47.0241 41.5533 47.0241ZM42.3331 45.1449C41.4957 45.1449 40.8949 44.755 40.8949 44.0071C40.8949 43.2401 41.5277 42.8629 42.4865 42.7287C43.081 42.6456 44.0526 42.505 44.3786 42.2876V43.3295C44.3786 44.3587 43.5284 45.1449 42.3331 45.1449Z" fill="white"/>
<path d="M57.364 39.8203C57.1211 38.0114 55.6637 36.8928 53.1836 36.8928C50.6715 36.8928 49.016 38.0561 49.0224 39.9482C49.016 41.4183 49.9428 42.3707 51.8604 42.7543L53.5607 43.093C54.4173 43.2656 54.8072 43.5788 54.82 44.071C54.8072 44.6527 54.1744 45.0682 53.2219 45.0682C52.2504 45.0682 51.6048 44.6527 51.4386 43.8537L48.7603 43.9943C49.016 45.8736 50.614 47.0305 53.2156 47.0305C55.7596 47.0305 57.5813 45.733 57.5877 43.7962C57.5813 42.3771 56.6545 41.527 54.7496 41.1371L52.9727 40.7791C52.0586 40.581 51.7198 40.2678 51.7262 39.7947C51.7198 39.2067 52.3846 38.8232 53.2283 38.8232C54.1744 38.8232 54.7369 39.3409 54.8711 39.9737L57.364 39.8203Z" fill="white"/>
</svg>
