<svg width="500" height="599" viewBox="0 0 500 599" fill="none" xmlns="http://www.w3.org/2000/svg">
<circle cx="43" cy="253" r="43" fill="#FFBE21"/>
<circle cx="99" cy="115" r="43" fill="#FFBE21"/>
<circle cx="99" cy="386" r="43" fill="#FFBE21"/>
<circle cx="208" cy="210" r="43" fill="#FFBE21"/>
<circle cx="239" cy="442" r="43" fill="#FFBE21"/>
<circle cx="334" cy="67" r="43" fill="#FFBE21"/>
<circle cx="247" cy="317" r="43" fill="#FFFFFF"/>
<circle cx="357" cy="337" r="43" fill="#FFFFFF"/>
<circle cx="357" cy="192" r="43" fill="#FFFFFF"/>
<circle cx="457" cy="278" r="43" fill="#FFFFFF"/>
<circle cx="208" cy="43" r="43" fill="#FFFFFF"/>
<path d="M46.8352 580H52.1023V564.778H66.9318V560.261H52.1023V549.625H68.483V545.091H46.8352V580ZM83.9134 580.528C89.6236 580.528 93.6634 577.716 94.8224 573.455L89.9986 572.585C89.0781 575.057 86.8622 576.318 83.9645 576.318C79.6009 576.318 76.669 573.489 76.5327 568.443H95.1463V566.636C95.1463 557.176 89.4872 553.477 83.5554 553.477C76.2599 553.477 71.4531 559.034 71.4531 567.08C71.4531 575.21 76.1918 580.528 83.9134 580.528ZM76.5497 564.625C76.7543 560.909 79.4474 557.688 83.5895 557.688C87.544 557.688 90.1349 560.619 90.152 564.625H76.5497ZM100.801 580H105.898V563.858C105.898 560.33 108.369 557.875 111.267 557.875C114.097 557.875 116.057 559.75 116.057 562.597V580H121.136V563.312C121.136 560.159 123.062 557.875 126.386 557.875C129.08 557.875 131.295 559.375 131.295 562.92V580H136.392V562.443C136.392 556.46 133.051 553.477 128.312 553.477C124.545 553.477 121.716 555.284 120.455 558.08H120.182C119.04 555.216 116.636 553.477 113.142 553.477C109.682 553.477 107.108 555.199 106.017 558.08H105.693V553.818H100.801V580ZM150.842 580.58C155.172 580.58 157.609 578.381 158.581 576.42H158.786V580H163.763V562.614C163.763 554.994 157.763 553.477 153.604 553.477C148.865 553.477 144.501 555.386 142.797 560.159L147.587 561.25C148.337 559.392 150.246 557.602 153.672 557.602C156.962 557.602 158.649 559.324 158.649 562.29V562.409C158.649 564.267 156.74 564.233 152.036 564.778C147.075 565.358 141.996 566.653 141.996 572.602C141.996 577.75 145.865 580.58 150.842 580.58ZM151.95 576.489C149.07 576.489 146.99 575.193 146.99 572.67C146.99 569.943 149.411 568.972 152.359 568.58C154.013 568.358 157.933 567.915 158.666 567.182V570.557C158.666 573.659 156.195 576.489 151.95 576.489ZM175.648 545.091H170.551V580H175.648V545.091ZM193.788 580.528C199.499 580.528 203.538 577.716 204.697 573.455L199.874 572.585C198.953 575.057 196.737 576.318 193.839 576.318C189.476 576.318 186.544 573.489 186.408 568.443H205.021V566.636C205.021 557.176 199.362 553.477 193.43 553.477C186.135 553.477 181.328 559.034 181.328 567.08C181.328 575.21 186.067 580.528 193.788 580.528ZM186.425 564.625C186.629 560.909 189.322 557.688 193.464 557.688C197.419 557.688 200.01 560.619 200.027 564.625H186.425ZM234.663 580.528C240.374 580.528 244.413 577.716 245.572 573.455L240.749 572.585C239.828 575.057 237.612 576.318 234.714 576.318C230.351 576.318 227.419 573.489 227.283 568.443H245.896V566.636C245.896 557.176 240.237 553.477 234.305 553.477C227.01 553.477 222.203 559.034 222.203 567.08C222.203 575.21 226.942 580.528 234.663 580.528ZM227.3 564.625C227.504 560.909 230.197 557.688 234.339 557.688C238.294 557.688 240.885 560.619 240.902 564.625H227.3ZM256.648 564.455C256.648 560.278 259.205 557.892 262.75 557.892C266.21 557.892 268.307 560.159 268.307 563.96V580H273.403V563.347C273.403 556.869 269.841 553.477 264.489 553.477C260.551 553.477 257.977 555.301 256.767 558.08H256.443V553.818H251.551V580H256.648V564.455ZM291.216 590.364C297.881 590.364 303.028 587.312 303.028 580.58V553.818H298.034V558.062H297.659C296.756 556.443 294.949 553.477 290.074 553.477C283.75 553.477 279.097 558.472 279.097 566.807C279.097 575.159 283.852 579.608 290.04 579.608C294.847 579.608 296.705 576.898 297.625 575.227H297.949V580.375C297.949 584.483 295.136 586.256 291.267 586.256C287.023 586.256 285.369 584.125 284.466 582.625L280.085 584.432C281.466 587.636 284.96 590.364 291.216 590.364ZM291.165 575.381C286.614 575.381 284.244 571.886 284.244 566.739C284.244 561.71 286.562 557.807 291.165 557.807C295.614 557.807 298 561.438 298 566.739C298 572.142 295.562 575.381 291.165 575.381ZM309.864 580H314.96V553.818H309.864V580ZM312.438 549.778C314.193 549.778 315.659 548.415 315.659 546.744C315.659 545.074 314.193 543.693 312.438 543.693C310.665 543.693 309.216 545.074 309.216 546.744C309.216 548.415 310.665 549.778 312.438 549.778ZM326.913 564.455C326.913 560.278 329.47 557.892 333.016 557.892C336.476 557.892 338.572 560.159 338.572 563.96V580H343.669V563.347C343.669 556.869 340.107 553.477 334.754 553.477C330.817 553.477 328.243 555.301 327.033 558.08H326.709V553.818H321.817V580H326.913V564.455ZM361.788 580.528C367.499 580.528 371.538 577.716 372.697 573.455L367.874 572.585C366.953 575.057 364.737 576.318 361.839 576.318C357.476 576.318 354.544 573.489 354.408 568.443H373.021V566.636C373.021 557.176 367.362 553.477 361.43 553.477C354.135 553.477 349.328 559.034 349.328 567.08C349.328 575.21 354.067 580.528 361.788 580.528ZM354.425 564.625C354.629 560.909 357.322 557.688 361.464 557.688C365.419 557.688 368.01 560.619 368.027 564.625H354.425ZM389.96 580.528C395.67 580.528 399.71 577.716 400.869 573.455L396.045 572.585C395.125 575.057 392.909 576.318 390.011 576.318C385.648 576.318 382.716 573.489 382.58 568.443H401.193V566.636C401.193 557.176 395.534 553.477 389.602 553.477C382.307 553.477 377.5 559.034 377.5 567.08C377.5 575.21 382.239 580.528 389.96 580.528ZM382.597 564.625C382.801 560.909 385.494 557.688 389.636 557.688C393.591 557.688 396.182 560.619 396.199 564.625H382.597ZM406.848 580H411.945V564.011C411.945 560.585 414.587 558.114 418.2 558.114C419.257 558.114 420.45 558.301 420.859 558.42V553.545C420.348 553.477 419.342 553.426 418.695 553.426C415.626 553.426 413.001 555.165 412.047 557.977H411.774V553.818H406.848V580ZM444.889 560.21C443.832 556.136 440.645 553.477 434.986 553.477C429.071 553.477 424.878 556.597 424.878 561.233C424.878 564.949 427.128 567.42 432.037 568.511L436.469 569.483C438.991 570.045 440.168 571.17 440.168 572.807C440.168 574.835 438.003 576.42 434.662 576.42C431.611 576.42 429.651 575.108 429.037 572.534L424.111 573.284C424.963 577.92 428.815 580.528 434.696 580.528C441.02 580.528 445.401 577.17 445.401 572.432C445.401 568.733 443.048 566.449 438.241 565.341L434.082 564.386C431.202 563.705 429.957 562.733 429.974 560.96C429.957 558.949 432.139 557.517 435.037 557.517C438.207 557.517 439.673 559.273 440.27 561.028L444.889 560.21Z" fill="black"/>
</svg>
