<svg width="674" height="498" viewBox="0 0 674 498" fill="none" xmlns="http://www.w3.org/2000/svg">
<path d="M430.104 264.653H254.445V468.125H430.104V264.653Z" fill="#FFBE21"/>
<path d="M440.478 456.986H244.071V468.125H440.478V456.986Z" fill="#FFBE21"/>
<path d="M419.731 275.792H264.818V456.986H419.731V275.792Z" fill="#F5EBDD"/>
<path d="M427.338 342.255H257.211V353.394H427.338V342.255Z" fill="#FFBE21"/>
<path d="M294.023 359.056C294.023 359.056 301.855 359.521 307.696 355.993C313.228 352.652 314.12 347.416 312.191 337.057C312.191 337.057 315.649 334.829 315.303 332.601C315.078 331.135 311.154 329.631 311.154 329.631C310.663 326.802 310.04 322.524 309.03 318.15C306.505 318.684 303.938 318.967 301.364 318.997C293.646 328.32 285.22 328.888 285.22 328.888C283.999 326.931 282.344 325.33 280.403 324.232L268.891 329.159C268.782 329.559 268.692 329.964 268.622 330.374C267.021 340.12 278.304 343.74 278.304 343.74C276.029 353.075 268.622 356.736 263.062 358.173L263.532 362.81H294.604L294.023 359.056Z" fill="#EAA58B"/>
<path d="M368.447 432.985C395.419 424.445 397.147 356.126 397.147 356.126L383.077 336.685C383.077 336.685 385.736 322.709 382.97 320.11C379.63 316.972 375.422 326.793 370.868 339.046C366.082 351.919 357.143 389.781 356.452 392.38C356.452 392.38 349.744 388.993 341.794 385.058L340.667 389.038L330.411 426.164C341.656 431.106 357.593 436.423 368.447 432.985Z" fill="#EAA58B"/>
<path d="M278.304 343.741C278.304 343.741 267.021 340.12 268.622 330.374C268.692 329.964 268.782 329.559 268.892 329.16L260.506 332.735C260.506 332.991 260.544 333.233 260.562 333.478L263.062 358.173C268.632 356.736 276.029 353.075 278.304 343.741Z" fill="#A15842"/>
<path d="M285.22 328.888C285.22 328.888 293.646 328.32 301.364 318.996C303.939 318.967 306.505 318.683 309.031 318.15C308.602 316.293 308.1 314.418 307.506 312.625L280.403 324.232C282.344 325.33 283.999 326.93 285.22 328.888Z" fill="#A15842"/>
<path d="M268.892 329.159L280.403 324.232C275.648 321.64 270.43 323.53 268.892 329.159Z" fill="#30242A"/>
<path d="M280.403 324.232L307.505 312.625C306.561 309.77 305.386 307.13 303.892 305.125C298.103 297.354 283.892 291.714 271.347 301.557C259.268 311.036 260.005 326.1 260.506 332.746L268.891 329.156C270.43 323.531 275.648 321.641 280.403 324.232Z" fill="#30242A"/>
<path d="M312.713 379.147L311.89 371.506C302.367 368.524 295.486 368.38 295.486 368.38L294.622 362.81H263.532L264.02 367.637C260.939 367.627 257.863 367.909 254.829 368.48L259.179 379.147H312.713Z" fill="#4756DF"/>
<path d="M268.228 401.425H315.116L313.916 390.286H263.698L268.228 401.425Z" fill="#4756DF"/>
<path d="M272.761 412.564L277.291 423.703H317.443L317.032 419.485L317.066 419.504L316.316 412.564H272.761Z" fill="#4756DF"/>
<path d="M284.874 440.649C284.874 440.649 307.409 442.26 319.453 444.362L318.526 434.842H282.43L284.874 440.649Z" fill="#4756DF"/>
<path d="M313.916 390.286L312.713 379.147H259.168L263.698 390.286H313.916Z" fill="#FFB7D5"/>
<path d="M268.228 401.425L272.761 412.564H316.316L315.116 401.425H268.228Z" fill="#FFB7D5"/>
<path d="M278.304 425.055L282.429 434.842H318.526L317.443 423.703H277.716L278.304 425.055Z" fill="#FFB7D5"/>
<path d="M341.77 385.043C337.842 383.097 333.613 381.003 329.744 379.147C326.351 377.506 323.232 376.02 320.836 374.929C317.92 373.598 314.933 372.455 311.891 371.505L312.714 379.147L313.917 390.286L315.117 401.425L316.317 412.564L317.067 419.503C317.413 419.696 320.459 421.46 325.075 423.703C326.611 424.445 328.319 425.247 330.155 426.057L330.404 426.164L340.667 389.034L341.794 385.054L341.77 385.043Z" fill="#4756DF"/>
<path d="M282.429 434.842L278.304 425.055L277.716 423.703H277.291L278.197 425.931L244.5 439.09C250.178 451.231 256.603 461.65 261.361 466.64C277.958 484.091 321.424 473.22 321.424 473.22C321.424 473.22 326.368 477.408 332.938 478.893C344.695 503.77 351.161 495.126 351.161 495.126C351.161 495.126 355.311 499.953 358.423 494.755C364.647 495.126 364.301 491.042 358.769 476.933C364.993 485.101 371.189 485.231 371.321 482.977C371.666 477.037 356.106 457.358 341.825 450.942C333.236 447.084 319.453 444.362 319.453 444.362C307.409 442.279 284.874 440.649 284.874 440.649L282.429 434.842Z" fill="#EAA58B"/>
<path d="M254.828 368.48C248.414 369.661 240.188 372.464 235.437 379.147C233.324 382.118 231.896 385.831 231.633 390.524C230.848 404.043 237.017 423.065 244.51 439.09L278.197 425.931L254.828 368.48Z" fill="#4756DF"/>
<path d="M288.229 363.315L288.92 369.865" stroke="#30242A" stroke-width="2" stroke-linecap="round" stroke-linejoin="round"/>
<path d="M282.35 363.315L283.041 369.865" stroke="#30242A" stroke-width="2" stroke-linecap="round" stroke-linejoin="round"/>
<path d="M294.045 359.84C291.786 359.659 289.578 359.03 287.534 357.984" stroke="#A15842" stroke-width="2" stroke-miterlimit="10" stroke-linecap="round"/>
<path d="M359.515 476.748C358.184 473.577 356.659 470.139 355.286 467.532" stroke="#A15842" stroke-width="2" stroke-miterlimit="10" stroke-linecap="round"/>
<path d="M348.792 471.23C353.111 479.376 356.448 488.547 358.474 494.737" stroke="#A15842" stroke-width="2" stroke-miterlimit="10" stroke-linecap="round"/>
<path d="M341.13 476.057C344.242 482.187 347.779 489.584 350.331 495.094" stroke="#A15842" stroke-width="2" stroke-miterlimit="10" stroke-linecap="round"/>
<path d="M317.481 419.347L316.233 405.509" stroke="#30242A" stroke-width="2" stroke-linecap="round" stroke-linejoin="round"/>
<path d="M355.67 392.232L353.34 402.035" stroke="#A15842" stroke-width="2" stroke-miterlimit="10" stroke-linecap="round"/>
<path d="M263.878 366.895H268.169" stroke="#30242A" stroke-width="2" stroke-linecap="round" stroke-linejoin="round"/>
<path d="M296.222 368.417L296.872 372.597" stroke="#30242A" stroke-width="2" stroke-linecap="round" stroke-linejoin="round"/>
<path d="M303.65 304.245L260.081 322.067" stroke="#4756DF" stroke-width="2" stroke-miterlimit="10" stroke-linecap="round"/>
<path d="M284.286 439.769L274.846 439.164" stroke="#A15842" stroke-width="2" stroke-miterlimit="10" stroke-linecap="round"/>
<path d="M284.631 440.141L271.626 409.223" stroke="#30242A" stroke-width="2" stroke-linecap="round" stroke-linejoin="round"/>
<path d="M384.263 333.44C383.468 336.808 382.355 341.238 381.241 344.617C381.241 344.617 387.12 355.755 380.896 368.751" stroke="#A15842" stroke-width="2" stroke-miterlimit="10" stroke-linecap="round"/>
<path d="M398.154 443.293H383.15C383.047 443.293 382.949 443.249 382.876 443.171C382.804 443.093 382.763 442.987 382.763 442.877V431.07C382.763 430.959 382.804 430.854 382.876 430.776C382.949 430.698 383.047 430.654 383.15 430.654H398.154C399.713 430.654 401.208 431.319 402.31 432.503C403.413 433.686 404.032 435.292 404.032 436.966C404.034 437.796 403.883 438.619 403.589 439.386C403.294 440.154 402.861 440.851 402.315 441.439C401.769 442.027 401.121 442.493 400.407 442.811C399.692 443.129 398.927 443.293 398.154 443.293V443.293Z" stroke="#A15842" stroke-width="8" stroke-miterlimit="10"/>
<path d="M378.668 428.731C366.286 428.731 360.56 418.134 360.56 418.134L368.886 457.02H388.451L396.774 418.134C394.841 421.405 392.165 424.094 388.998 425.948C385.831 427.802 382.276 428.76 378.668 428.731Z" fill="#FF7235"/>
<path d="M378.668 428.731C382.276 428.76 385.831 427.802 388.998 425.948C392.165 424.094 394.841 421.405 396.774 418.134H360.56C360.56 418.134 366.286 428.731 378.668 428.731Z" fill="#A15842"/>
<path d="M280.617 335.706L275.43 331.622" stroke="#A15842" stroke-width="2" stroke-miterlimit="10" stroke-linecap="round"/>
<path d="M305.057 331.124C305.85 331.124 306.492 330.434 306.492 329.583C306.492 328.732 305.85 328.042 305.057 328.042C304.265 328.042 303.622 328.732 303.622 329.583C303.622 330.434 304.265 331.124 305.057 331.124Z" fill="#30242A"/>
<path d="M251.066 336.174L316.956 309.348" stroke="#30242A" stroke-width="2" stroke-linecap="round" stroke-linejoin="round"/>
<path d="M303.678 340.076C304.024 340.819 305.95 342.527 307.81 341.365" stroke="#A15842" stroke-width="2" stroke-miterlimit="10" stroke-linecap="round"/>
<path d="M396.034 369.145C395.197 368.239 394.554 366.709 394.727 364.296C394.727 364.296 391.615 366.152 389.54 364.296C386.815 361.856 387.811 358.355 387.811 358.355C387.811 358.355 384.699 359.469 383.316 356.87C381.815 354.052 383.662 350.187 383.662 350.187C383.662 350.187 381.175 350.558 380.55 347.959C379.754 344.669 381.418 341.676 383.167 339.512" stroke="#A15842" stroke-width="3" stroke-miterlimit="10" stroke-linecap="round"/>
<path d="M341.781 299.598L390.834 279.59C394.183 278.224 395.867 274.201 394.595 270.605L381.115 232.5C379.843 228.904 376.096 227.096 372.747 228.462L323.694 248.47C320.345 249.836 318.661 253.859 319.933 257.455L333.413 295.56C334.686 299.156 338.432 300.964 341.781 299.598Z" fill="#30242A"/>
<path d="M399.659 391.534C400.202 393.068 401.799 393.839 403.227 393.256C404.656 392.674 405.374 390.958 404.831 389.425L369.062 288.315C368.52 286.781 366.922 286.01 365.494 286.593C364.066 287.175 363.348 288.891 363.89 290.424L399.659 391.534Z" fill="#30242A"/>
<path d="M363.063 252.208C361.474 251.476 359.679 251.451 358.072 252.139C356.466 252.827 355.179 254.171 354.495 255.877L353.741 257.763L351.984 256.95C350.401 256.244 348.622 256.237 347.034 256.929C345.445 257.621 344.174 258.957 343.496 260.648C342.818 262.339 342.787 264.248 343.41 265.963C344.033 267.678 345.26 269.06 346.825 269.811L348.582 270.625L360.556 276.164L365.719 263.303L366.473 261.42C366.813 260.575 366.995 259.666 367.008 258.745C367.021 257.824 366.865 256.91 366.548 256.054C366.232 255.198 365.761 254.418 365.163 253.758C364.565 253.098 363.851 252.571 363.063 252.208Z" fill="#FFB7D5"/>
<path d="M392.752 332.779C395.972 334.855 395.28 338.876 395.28 338.876C395.28 338.876 401.757 337.922 401.567 345.032C401.567 345.032 406.729 347.579 404.36 353.123C404.36 353.123 407.912 354.118 406.138 360.211C404.409 366.152 400.872 369.898 398.531 370.236C397.293 370.414 394.381 369.122 394.727 364.295C394.727 364.295 391.615 366.152 389.54 364.295C386.815 361.856 387.811 358.355 387.811 358.355C387.811 358.355 384.699 359.468 383.316 356.869C381.815 354.051 383.662 350.186 383.662 350.186C383.662 350.186 381.176 350.557 380.55 347.958C379.222 342.474 384.73 337.818 386.082 336.448L385.045 333.477C385.045 333.477 389.54 330.708 392.752 332.779Z" fill="#EAA58B"/>
<path d="M382.455 351.526C386.38 349.046 392.327 344.471 395.668 338.999" stroke="#A15842" stroke-width="2" stroke-miterlimit="10" stroke-linecap="round"/>
<path d="M387.012 359.257C392.713 355.71 397.733 351.031 401.805 345.47" stroke="#A15842" stroke-width="2" stroke-miterlimit="10" stroke-linecap="round"/>
<path d="M394.938 364.768C397.704 362.54 401.508 358.456 404.717 353.759" stroke="#A15842" stroke-width="2" stroke-miterlimit="10" stroke-linecap="round"/>
<path d="M650.025 149.922H474.365V353.394H650.025V149.922Z" fill="#FFB7D5"/>
<path d="M660.398 342.255H463.991V353.394H660.398V342.255Z" fill="#FFB7D5"/>
<path d="M639.651 161.062H484.739V342.255H639.651V161.062Z" fill="#F5EBDD"/>
<path d="M647.258 227.524H477.131V238.663H647.258V227.524Z" fill="#FFB7D5"/>
<path d="M540.41 219.355C539.718 214.9 536.952 211.558 535.223 211.116C531.098 210.069 528.819 214.086 528.819 214.086C528.819 214.086 525.555 210.875 520.99 215.182C520.99 215.182 515.762 213.429 513.504 218.471C513.504 218.471 511.18 217.528 508.601 222.689C506.502 226.896 504.797 233.197 507.218 234.942C508.255 235.685 511.367 235.314 512.405 232.714C512.405 232.714 513.338 234.571 515.171 234.2C518.974 233.457 519.32 230.115 519.32 230.115C519.32 230.115 519.642 231.374 521.741 231.601C525.143 231.972 526.928 228.259 526.928 228.259C526.928 228.259 528.217 229.183 530.731 228.259C534.089 227.022 534.957 221.627 534.957 221.627L540.41 219.355Z" fill="#A15842"/>
<path d="M671.341 279.869C677.129 273.393 676.192 262.343 669.249 255.189C662.305 248.034 651.985 247.484 646.197 253.96C640.41 260.436 641.346 271.486 648.29 278.641C655.233 285.795 665.553 286.345 671.341 279.869Z" fill="#30242A"/>
<path d="M641.034 269.109C641.034 269.109 653.137 260.941 654.866 246.089" stroke="black" stroke-width="2" stroke-linecap="round" stroke-linejoin="round"/>
<path d="M604.402 256.976C607.308 247.125 603.205 236.942 595.236 234.231C587.268 231.52 578.452 237.308 575.545 247.159C572.639 257.009 576.742 267.192 584.711 269.903C592.679 272.614 601.495 266.826 604.402 256.976Z" fill="#30242A"/>
<path d="M651.446 251.369C651.132 250.192 670.171 262.786 666.315 266.963C662.677 270.884 653.03 257.317 651.446 251.369Z" fill="#4756DF"/>
<path d="M651.598 252.1C650.975 250.663 667.39 232.666 670.139 237.682C672.781 242.509 652.22 253.533 651.598 252.1Z" fill="#4756DF"/>
<path d="M632.735 254.629C628.24 253.144 618.558 252.401 613.025 251.658C601.269 244.975 604.381 227.524 604.381 227.524C605.072 227.153 616.327 224.958 614.775 215.52C613.392 206.98 604.031 206.98 598.893 213.01C598.893 213.01 591.586 209.702 589.512 198.934C589.512 198.934 583.343 199.695 579.066 198.481C578.135 202.896 577.904 207.734 577.063 212.672C577.063 212.672 572.568 213.043 572.222 214.9C571.877 216.86 575.431 219.177 575.431 219.177C573.011 228.616 573.357 237.17 578.792 240.519C583.633 243.49 589.512 242.376 589.512 242.376L588.82 251.287C582.765 251.533 576.796 252.915 571.185 255.371C559.708 260.391 532.803 279.506 532.803 279.506C534.877 272.08 543.387 248.658 546.634 233.836C548.017 227.524 549.401 221.583 545.943 221.212C542.16 220.803 536.606 233.465 536.606 233.465L513.093 242.747C499.23 262.883 483.009 308.467 504.102 319.977C523.121 330.374 565.652 305.125 565.652 305.125L561.849 342.255H631.006L646.567 263.169C646.567 263.169 646.632 263.094 646.75 262.95C641.888 258.435 636.034 255.717 632.735 254.629Z" fill="#A15842"/>
<path d="M623.745 247.336H589.128L588.82 251.287C586.123 251.368 583.439 251.706 580.798 252.296C579.916 252.486 578.982 252.709 578.011 252.972C575.687 253.602 573.406 254.404 571.185 255.371C570.697 255.582 570.175 255.828 569.632 256.087C568.63 256.578 567.558 257.142 566.385 257.769C558.584 262.021 547.858 269.135 540.642 274.062L550.012 294.183L554.715 304.282L557.222 309.662C562.367 307.063 565.652 305.125 565.652 305.125L561.849 342.255H631.006L646.566 263.168C647.397 262.174 648.165 261.122 648.866 260.02V259.912L623.745 247.336Z" fill="#FFBE21"/>
<path d="M574.402 257.847L569.633 256.087C568.63 256.577 567.559 257.142 566.386 257.769L570.294 264.635L562.531 276.004L572.766 271.459L578.468 282.75L579.118 270.319L589.001 268.047L580.529 262.362L580.799 252.296C579.917 252.486 578.983 252.709 578.012 252.972L574.402 257.847Z" fill="#FF7235"/>
<path d="M557.118 300.506L565.583 299.15L565.677 296.44L561.295 294.29L564.912 282.72L555.255 289.541L549.183 282.115L550.061 294.164L550.012 294.182L554.715 304.282L557.118 300.506Z" fill="#FF7235"/>
<path d="M610.442 269.447L614.325 283.467L618.205 269.447L630.56 265.656L618.557 260.35V248.223L611.853 257.695L602.323 252.768L607.969 263.001L599.148 270.961L610.442 269.447Z" fill="#FF7235"/>
<path d="M598.686 339.199L591.417 327.655L597.659 317.549L587.195 321.462L581.787 311.701L581.227 323.582L569.778 324.978L579.968 330.418L576.6 342.255H578.384L586.441 335.026L598.686 339.199Z" fill="#FF7235"/>
<path d="M602.227 315.778L610.695 307.821L620.225 314.642L615.989 303.272L623.403 294.558L612.815 296.452L607.873 286.976L606.812 297.209L596.933 296.83L605.401 303.651L602.227 315.778Z" fill="#FF7235"/>
<path d="M589.512 198.934C591.587 209.702 598.893 213.01 598.893 213.01C604.032 206.991 613.375 206.991 614.775 215.52C616.328 224.958 605.073 227.153 604.381 227.524C604.381 227.524 601.269 244.975 613.026 251.658C618.558 252.401 628.24 253.144 632.735 254.629C636.034 255.717 641.888 258.435 646.75 262.95C648.479 260.855 661.64 243.839 649.333 227.153C640.789 215.561 626.746 217.547 626.746 217.547C627.213 211.525 628.13 195.975 616.003 186.443C603.876 176.912 588.437 181.928 582.832 189.455C580.829 192.139 579.754 195.195 579.066 198.481C583.343 199.695 589.512 198.934 589.512 198.934Z" fill="#30242A"/>
<path d="M535.967 233.174C535.475 234.392 534.971 235.773 534.532 237.177C534.532 237.177 526.578 239.033 524.438 244.789" stroke="#30242A" stroke-width="2" stroke-miterlimit="10" stroke-linecap="round"/>
<path d="M533.798 278.77L529.69 290.325" stroke="#30242A" stroke-width="2" stroke-linecap="round" stroke-linejoin="round"/>
<path d="M566.344 291.387L564.906 305.281" stroke="#724342" stroke-width="2" stroke-linecap="round" stroke-linejoin="round"/>
<path d="M588.129 243.49C591.309 242.953 594.411 241.977 597.358 240.586" stroke="#30242A" stroke-width="2" stroke-miterlimit="10" stroke-linecap="round"/>
<path d="M603.582 219.488L608.077 216.518" stroke="#30242A" stroke-width="2" stroke-miterlimit="10" stroke-linecap="round"/>
<path d="M627.272 217.391C627.016 220.142 626.67 223.584 626.334 226.302" stroke="black" stroke-width="2" stroke-miterlimit="10" stroke-linecap="round"/>
<path d="M601.925 224.004L600.667 232.217C600.611 232.578 600.643 232.948 600.759 233.292C600.875 233.636 601.072 233.942 601.33 234.181C601.588 234.42 601.898 234.583 602.232 234.656C602.566 234.729 602.911 234.709 603.236 234.597L609.972 232.276C610.296 232.165 610.588 231.965 610.82 231.697C611.052 231.429 611.216 231.102 611.297 230.746C611.377 230.39 611.371 230.019 611.278 229.666C611.186 229.314 611.011 228.993 610.77 228.734L605.311 222.831C605.052 222.547 604.725 222.347 604.366 222.252C604.008 222.158 603.632 222.172 603.28 222.294C602.929 222.415 602.616 222.64 602.376 222.942C602.137 223.244 601.981 223.612 601.925 224.004Z" fill="#F4E6D8"/>
<path d="M585.753 221.932C585.438 226.84 580.729 227.174 579.622 223.688L585.753 221.932Z" stroke="#30242A" stroke-width="2" stroke-linecap="round" stroke-linejoin="round"/>
<path d="M586.514 212.875C585.677 213.317 582.689 213.41 581.721 210.844" stroke="#30242A" stroke-width="2" stroke-linecap="round" stroke-linejoin="round"/>
<path d="M632.735 254.628L632.628 314.541C632.628 314.541 598.637 292.69 596.009 292.515C594.076 292.385 592.638 297.086 596.127 300.97C586.721 299.095 577.375 298.111 575.905 301.185C575.02 303.042 576.462 304.972 576.462 304.972C575.334 305.125 574.235 305.444 573.605 306.238C572.094 308.143 574.169 311.065 574.169 311.065C572.253 312.057 572.914 315.15 574.643 316.635C578.872 320.262 591.541 322.854 591.541 322.854C586.984 323.452 578.215 324.009 578.685 326.794C579.377 330.878 598.741 330.878 598.741 330.878C606.002 336.076 611.988 335.942 611.988 335.942C611.988 335.942 629.72 355.488 647.604 360.077C693.593 368.617 657.632 276.163 647.95 264.282C641.94 256.904 632.735 254.628 632.735 254.628Z" fill="#A15842"/>
<path d="M588.741 323.702C591.161 323.676 593.782 323.665 596.428 323.702" stroke="#30242A" stroke-width="2" stroke-linecap="round" stroke-linejoin="round"/>
<path d="M573.845 311.909C579.502 313.023 589.495 315.076 596.784 317.007" stroke="#30242A" stroke-width="2" stroke-linecap="round" stroke-linejoin="round"/>
<path d="M576.12 305.151C583.129 306.18 593.191 307.75 599.54 309.21" stroke="#30242A" stroke-width="2" stroke-linecap="round" stroke-linejoin="round"/>
<path d="M596.877 300.533C599.422 301.153 601.928 301.943 604.381 302.898" stroke="#30242A" stroke-width="2" stroke-linecap="round" stroke-linejoin="round"/>
<path d="M653.116 280.715L652.466 293.146L646.764 281.866L636.529 286.411L644.292 275.042L638.313 264.534L648.4 268.247L649.572 266.643C649.075 265.819 648.529 265.03 647.936 264.282C641.926 256.904 632.722 254.628 632.722 254.628L632.642 299.147L635.706 302.373L644.174 292.415L639.893 306.094L640.644 306.688L663.977 301.304C661.753 294.059 659.16 286.95 656.211 280.01L653.116 280.715Z" fill="#FFBE21"/>
<path d="M638.313 264.523L644.291 275.031L636.528 286.4L646.764 281.856L652.466 293.147L653.116 280.716L656.228 280.007C653.787 274.303 651.449 269.633 649.602 266.64L648.416 268.24L638.313 264.523Z" fill="#FF7235"/>
<path d="M639.907 306.093L644.188 292.411L635.72 302.373L632.656 299.146L632.639 308.54L640.657 306.688L639.907 306.093Z" fill="#FF7235"/>
<path d="M631.937 290.845V313.156" stroke="#724342" stroke-width="2" stroke-linecap="round" stroke-linejoin="round"/>
<path d="M631.802 313.156C631.802 313.156 638.507 317.512 648.88 324.195" stroke="#30242A" stroke-width="2" stroke-linecap="round" stroke-linejoin="round"/>
<path d="M512.761 218.794C511.82 222.541 510.984 227.817 511.693 233.231" stroke="#30242A" stroke-width="2" stroke-miterlimit="10" stroke-linecap="round"/>
<path d="M520.088 215.446C519.179 218.379 518.217 223.444 518.784 230.966" stroke="#30242A" stroke-width="2" stroke-miterlimit="10" stroke-linecap="round"/>
<path d="M528.066 214.02C527.077 217.135 525.752 222.025 526.316 228.27" stroke="#30242A" stroke-width="2" stroke-miterlimit="10" stroke-linecap="round"/>
<path d="M535.961 217.016C535.961 217.016 535.86 219.318 535.69 221.843" stroke="#30242A" stroke-width="2" stroke-miterlimit="10" stroke-linecap="round"/>
<circle cx="511" cy="216.055" r="32" fill="#A34FB4"/>
<path d="M420.3 1.4852C424.397 1.4852 428.326 3.23264 431.222 6.3431C434.119 9.45357 435.747 13.6723 435.747 18.0711V175.376C435.747 179.775 434.119 183.993 431.222 187.104C428.326 190.214 424.397 191.962 420.3 191.962H230.235C226.139 191.962 222.21 190.214 219.313 187.104C216.416 183.993 214.789 179.775 214.789 175.376V18.0711C214.789 13.6723 216.416 9.45357 219.313 6.3431C222.21 3.23264 226.139 1.4852 230.235 1.4852H420.3ZM420.3 0H230.235C225.773 0.00491461 221.495 1.91041 218.34 5.29834C215.185 8.68627 213.41 13.2799 213.406 18.0711V175.376C213.41 180.167 215.185 184.761 218.34 188.148C221.495 191.536 225.773 193.442 230.235 193.447H420.3C424.762 193.442 429.04 191.536 432.195 188.148C435.351 184.761 437.125 180.167 437.13 175.376V18.0711C437.125 13.2799 435.351 8.68627 432.195 5.29834C429.04 1.91041 424.762 0.00491461 420.3 0Z" fill="white"/>
<path d="M420.301 1.48486H230.236C221.705 1.48486 214.79 8.91064 214.79 18.0708V175.375C214.79 184.536 221.705 191.961 230.236 191.961H420.301C428.832 191.961 435.747 184.536 435.747 175.375V18.0708C435.747 8.91064 428.832 1.48486 420.301 1.48486Z" fill="#F5EBDD"/>
<path d="M214.79 37.1289H436.439" stroke="white" stroke-width="2" stroke-miterlimit="10"/>
<path d="M231.041 25.2487C234.288 25.2487 236.92 22.4227 236.92 18.9366C236.92 15.4505 234.288 12.6245 231.041 12.6245C227.795 12.6245 225.163 15.4505 225.163 18.9366C225.163 22.4227 227.795 25.2487 231.041 25.2487Z" fill="white"/>
<path d="M248.856 25.2487C252.103 25.2487 254.735 22.4227 254.735 18.9366C254.735 15.4505 252.103 12.6245 248.856 12.6245C245.61 12.6245 242.978 15.4505 242.978 18.9366C242.978 22.4227 245.61 25.2487 248.856 25.2487Z" fill="white"/>
<path d="M266.668 25.2487C269.915 25.2487 272.547 22.4227 272.547 18.9366C272.547 15.4505 269.915 12.6245 266.668 12.6245C263.422 12.6245 260.79 15.4505 260.79 18.9366C260.79 22.4227 263.422 25.2487 266.668 25.2487Z" fill="white"/>
<path d="M225.623 113.617C229.72 113.617 233.648 115.364 236.545 118.475C239.442 121.585 241.069 125.804 241.069 130.203V287.508C241.069 291.906 239.442 296.125 236.545 299.236C233.648 302.346 229.72 304.093 225.623 304.093H35.5579C31.4613 304.093 27.5325 302.346 24.6358 299.236C21.739 296.125 20.1117 291.906 20.1117 287.508V130.203C20.1117 125.804 21.739 121.585 24.6358 118.475C27.5325 115.364 31.4613 113.617 35.5579 113.617H225.623ZM225.623 112.132H35.5579C31.0959 112.137 26.8179 114.042 23.6628 117.43C20.5077 120.818 18.7331 125.412 18.7285 130.203V287.508C18.7331 292.299 20.5077 296.892 23.6628 300.28C26.8179 303.668 31.0959 305.574 35.5579 305.579H225.623C230.085 305.574 234.363 303.668 237.518 300.28C240.673 296.892 242.448 292.299 242.452 287.508V130.203C242.448 125.412 240.673 120.818 237.518 117.43C234.363 114.042 230.085 112.137 225.623 112.132Z" fill="white"/>
<path d="M225.623 113.617H35.5581C27.0274 113.617 20.1118 121.043 20.1118 130.203V287.508C20.1118 296.668 27.0274 304.094 35.5581 304.094H225.623C234.154 304.094 241.069 296.668 241.069 287.508V130.203C241.069 121.043 234.154 113.617 225.623 113.617Z" fill="#F5EBDD"/>
<path d="M20.1118 149.261H241.761" stroke="white" stroke-width="2" stroke-miterlimit="10"/>
<path d="M36.3637 137.38C39.6103 137.38 42.2421 134.554 42.2421 131.068C42.2421 127.582 39.6103 124.756 36.3637 124.756C33.1172 124.756 30.4854 127.582 30.4854 131.068C30.4854 134.554 33.1172 137.38 36.3637 137.38Z" fill="white"/>
<path d="M54.1787 137.38C57.4252 137.38 60.057 134.554 60.057 131.068C60.057 127.582 57.4252 124.756 54.1787 124.756C50.9321 124.756 48.3003 127.582 48.3003 131.068C48.3003 134.554 50.9321 137.38 54.1787 137.38Z" fill="white"/>
<path d="M71.9897 137.38C75.2362 137.38 77.8681 134.554 77.8681 131.068C77.8681 127.582 75.2362 124.756 71.9897 124.756C68.7432 124.756 66.1113 127.582 66.1113 131.068C66.1113 134.554 68.7432 137.38 71.9897 137.38Z" fill="white"/>
<path d="M252.941 158.742L252.833 158.63V158.862L252.941 158.742Z" fill="#3EC1F3"/>
<path d="M189.893 182.307C189.893 182.307 194.388 166.341 191.622 163.742C188.281 160.605 182.631 170.797 178.077 183.05C173.288 195.923 159.405 232.433 158.713 235.032C158.713 235.032 135.058 221.145 124.48 216.095C115.144 211.64 103.771 210.021 103.771 210.021L102.326 200.698C102.326 200.698 109.079 203.297 114.868 199.662C120.656 196.027 122.105 189.299 120.175 178.939C119.031 172.802 119.072 165.201 118.101 158.425C114.249 159.123 108.605 157.701 108.605 157.701C100.884 167.024 92.6992 169.096 92.6992 169.096C87.3913 162.881 77.7404 162.881 76.2951 171.695C74.6941 181.442 85.9425 184.127 85.9425 184.127C85.9425 184.127 88.2316 198.273 83.3906 212.382C76.665 231.987 49.5519 237.189 38.4383 228.72C18.3827 243.943 36.125 290.196 52.9614 311.891C66.7928 329.713 115.895 320.43 115.895 320.43C115.895 320.43 121.427 324.886 127.997 326.371C139.754 351.248 144.595 344.194 144.595 344.194C144.595 344.194 148.744 349.02 151.856 343.822C158.08 344.194 157.735 340.109 152.202 326C158.426 334.169 164.519 334.194 164.65 331.941C164.996 326 146.67 305.207 135.259 300.009C126.687 296.103 122.464 294.811 122.464 294.811L120.736 264.736C120.736 264.736 157.43 286.375 174.678 276.246C196.809 263.25 205.799 199.387 205.799 199.387L189.893 182.307Z" fill="#EAA58B"/>
<path d="M83.3905 212.382C88.2315 198.273 85.9217 184.119 85.9217 184.119C85.9217 184.119 74.6732 181.435 76.2742 171.688C77.7196 162.881 87.3705 162.881 92.6783 169.089C92.6783 169.089 100.877 167.017 108.585 157.694C108.585 157.694 114.228 159.116 118.08 158.418C117.406 153.75 116.251 149.462 113.889 146.295C108.1 138.527 92.1804 133.344 79.6387 143.187C67.0971 153.03 68.0583 169.089 68.5424 175.304C68.5424 175.304 46.8513 169.601 35.3124 187.127C21.1351 208.662 38.4244 228.712 38.4244 228.712C49.5518 237.189 76.665 231.987 83.3905 212.382Z" fill="#FFBE21"/>
<path d="M121.341 275.27L120.736 264.736H120.767L117.873 213.438C114.679 212.378 111.436 211.502 108.156 210.812L106.558 246.171H79.5871L69.3415 228.293C65.6844 230.231 61.7678 231.542 57.7334 232.181L73.1416 273.187L78.8955 288.499C78.8955 288.499 92.0354 289.242 103.792 291.098C115.549 292.955 122.465 294.811 122.465 294.811L121.341 275.27Z" fill="#FF7235"/>
<path d="M190.408 183.228C190.124 184.197 189.834 185.14 189.547 186.02C189.547 186.02 198.364 196.974 192.832 211.083" stroke="#BB7259" stroke-width="2" stroke-miterlimit="10" stroke-linecap="round"/>
<path d="M157.904 234.701L154.277 244.685" stroke="#BB7259" stroke-width="2" stroke-miterlimit="10" stroke-linecap="round"/>
<path d="M153.585 327.73C152.122 324.169 150.314 320.003 148.716 316.962" stroke="#BB7259" stroke-width="2" stroke-miterlimit="10" stroke-linecap="round"/>
<path d="M142.226 320.665C146.376 328.511 149.629 337.296 151.67 343.467" stroke="#BB7259" stroke-width="2" stroke-miterlimit="10" stroke-linecap="round"/>
<path d="M135.774 325.061C138.886 331.194 141.915 338.342 144.163 343.96" stroke="#BB7259" stroke-width="2" stroke-miterlimit="10" stroke-linecap="round"/>
<path d="M121.946 279.773L75.9565 279.402" stroke="#724342" stroke-width="2" stroke-miterlimit="10" stroke-linecap="round"/>
<path d="M62.014 303.222C59.7699 302.404 57.3663 302.226 55.0388 302.705C52.7112 303.184 50.5393 304.303 48.7358 305.954C50.1363 308.082 51.5505 310.076 52.9614 311.895C56.7858 316.822 63.3038 319.693 70.7348 321.226C72.6193 313.659 68.8675 305.754 62.014 303.222Z" fill="#CA7358"/>
<path d="M174.678 276.246C177.683 274.483 180.443 271.791 182.977 268.427C181.337 265.778 178.929 263.783 176.127 262.75C168.952 260.102 161.092 264.335 158.572 272.203C157.915 274.255 157.671 276.433 157.856 278.593C164.132 279.388 170.093 278.938 174.678 276.246Z" fill="#CA7358"/>
<path d="M57.7297 232.181C50.2815 233.373 43.0061 232.203 38.4383 228.72C23.8634 239.785 29.2507 267.231 39.7454 289.736L73.1414 273.187L57.7297 232.181Z" fill="#9D21FF"/>
<path d="M83.3906 212.383C80.894 219.656 75.5897 224.947 69.3413 228.293L79.587 246.171H106.558L108.156 210.831C105.5 210.27 103.771 210.021 103.771 210.021L103.1 205.699H85.1956C84.7377 207.969 84.1346 210.202 83.3906 212.383Z" fill="#9D21FF"/>
<path d="M124.477 216.095C122.323 215.083 120.118 214.202 117.873 213.456L120.767 264.754C125.36 267.366 130.083 269.707 134.913 271.768L149.09 229.462C141.317 225.007 130.663 219.066 124.477 216.095Z" fill="#9D21FF"/>
<path d="M33.5888 247.677C42.8505 241.935 46.5935 230.278 41.949 221.64C37.3046 213.002 26.0314 210.654 16.7698 216.396C7.50808 222.138 3.76508 233.795 8.40953 242.433C13.054 251.071 24.3271 253.419 33.5888 247.677Z" fill="#FFBE21"/>
<path d="M29.9668 211.826C29.9668 211.826 32.3873 227.421 44.144 232.248" stroke="#AC7F0A" stroke-width="2" stroke-linecap="round" stroke-linejoin="round"/>
<path d="M291.381 120.115L292.764 131.254" stroke="#F5EBDC" stroke-width="4" stroke-miterlimit="10" stroke-linecap="round"/>
<path d="M406.355 106.933C406.355 106.933 421.916 87.2543 404.626 70.5458C394.059 60.3351 381.365 63.1792 381.365 63.1792C381.846 56.9637 382.811 40.9013 370.269 31.0619C357.727 21.2225 341.804 26.4021 336.015 34.1697C330.227 41.9372 331.676 56.4476 329.746 66.8068C327.817 77.1661 329.262 83.8866 335.051 87.529C340.839 91.1715 347.596 88.565 347.596 88.565L346.147 97.8883C346.147 97.8883 334.777 99.5071 325.441 103.963C314.86 109.012 291.208 122.899 291.208 122.899C290.517 120.3 286.713 77.9718 284.984 64.2337C283.667 53.7668 279.106 40.8419 275.648 43.441C272.294 45.9621 273.573 54.2087 273.573 54.2087L255.938 73.8875C255.938 73.8875 247.221 141.364 268.041 159.658C283.255 173.024 323.021 151.489 323.021 151.489L317.834 191.961H365.283C365.283 191.961 356.386 194.5 337.89 203.471C316.451 213.867 304.002 242.829 305.386 245.056C306.769 247.284 310.918 245.428 316.451 238.002C311.61 257.309 316.451 255.824 319.563 255.453C322.727 260.339 326.824 254.339 326.824 254.339C326.824 254.339 332.357 259.908 341.002 233.917C344.929 231.929 348.545 229.299 351.721 226.12C351.721 226.12 406.701 222.407 417.42 201.614C428.14 180.822 420.878 126.612 406.355 106.933Z" fill="#A15842"/>
<path d="M334.483 62.1184C335.276 62.1184 335.918 61.4285 335.918 60.5775C335.918 59.7265 335.276 59.0366 334.483 59.0366C333.691 59.0366 333.048 59.7265 333.048 60.5775C333.048 61.4285 333.691 62.1184 334.483 62.1184Z" fill="#30242A"/>
<path d="M78.7226 287.942L70.7695 287.571" stroke="#BB7259" stroke-width="2" stroke-miterlimit="10" stroke-linecap="round"/>
<path d="M102.205 201.567C100.115 200.797 98.0879 199.844 96.1431 198.719" stroke="#BB7259" stroke-width="2" stroke-miterlimit="10" stroke-linecap="round"/>
<path d="M68.0171 175.205C68.2799 178.038 68.636 181.565 68.9818 184.35" stroke="#AC7F0A" stroke-width="2" stroke-linecap="round" stroke-linejoin="round"/>
<path d="M100.493 279.372C100.493 279.372 92.4813 267.198 96.2019 265.597C99.2068 264.305 100.064 273.777 100.493 279.372Z" stroke="#724342" stroke-width="2" stroke-linecap="round" stroke-linejoin="round"/>
<path d="M100.746 279.588C100.746 279.588 104.684 269.823 107.156 271.386C109.152 272.648 103.889 277.037 100.746 279.588Z" stroke="#724342" stroke-width="2" stroke-linecap="round" stroke-linejoin="round"/>
<path d="M104.56 210.281L105.175 214.239" stroke="#BB7259" stroke-width="2" stroke-miterlimit="10" stroke-linecap="round"/>
<path d="M87.3466 175.791L83.0415 173.222" stroke="#BB7259" stroke-width="2" stroke-miterlimit="10" stroke-linecap="round"/>
<path d="M107.896 184.48C108.142 189.351 112.803 189.756 113.944 186.336L107.896 184.48Z" stroke="#BB7259" stroke-width="2" stroke-linecap="round" stroke-linejoin="round"/>
<path d="M105.113 175.922C105.906 175.922 106.548 175.232 106.548 174.381C106.548 173.53 105.906 172.84 105.113 172.84C104.321 172.84 103.678 173.53 103.678 174.381C103.678 175.232 104.321 175.922 105.113 175.922Z" fill="#724342"/>
<path d="M115.784 173.136C116.576 173.136 117.219 172.446 117.219 171.595C117.219 170.744 116.576 170.054 115.784 170.054C114.991 170.054 114.349 170.744 114.349 171.595C114.349 172.446 114.991 173.136 115.784 173.136Z" fill="#724342"/>
<path d="M112.112 176.263C112.458 177.247 112.783 178.328 112.679 178.732C112.532 179.218 112.236 179.636 111.839 179.917" stroke="#BB7259" stroke-width="2" stroke-miterlimit="10" stroke-linecap="round"/>
<path d="M84.6007 190.476C86.9878 190.476 88.923 188.398 88.923 185.835C88.923 183.271 86.9878 181.193 84.6007 181.193C82.2135 181.193 80.2783 183.271 80.2783 185.835C80.2783 188.398 82.2135 190.476 84.6007 190.476Z" fill="#F4E6D8"/>
<path d="M355.57 210.1L356.458 212.235L361.783 225.049C378.174 222.873 409.595 216.799 417.421 201.616C428.14 180.823 420.878 126.614 406.355 106.935C394.253 121.226 375.539 117.331 368.035 105.45C366.652 105.819 365.244 106.067 363.824 106.192C361.609 106.412 359.376 106.317 357.184 105.91C354.558 105.44 352.071 104.314 349.923 102.624C347.188 100.415 346.188 98.0237 346.188 98.0237L345.725 97.9531C343.602 98.291 333.723 100.01 325.441 103.964C314.86 109.014 291.208 122.901 291.208 122.901C290.897 121.735 289.96 112.553 288.864 101.551L275.434 107.12L273.978 107.726L267.031 110.614L254.399 115.865C255.305 133.345 258.704 151.454 268.041 159.659C283.255 173.026 323.021 151.491 323.021 151.491L317.834 191.962H365.283C365.283 191.962 360.418 193.355 350.414 197.699L352.717 203.235L355.57 210.1Z" fill="#FFB7D5"/>
<path d="M290.171 143.321C285.953 143.321 281.907 145.121 278.924 148.324C275.941 151.527 274.265 155.871 274.265 160.401C274.265 161.289 274.329 162.175 274.455 163.052C283.522 165.651 295.984 162.599 306.019 158.968C305.684 154.702 303.87 150.726 300.935 147.828C298 144.931 294.158 143.322 290.171 143.321Z" fill="#FF7235"/>
<path d="M274.611 112.503C274.61 110.89 274.397 109.285 273.978 107.736L267.031 110.625L254.399 115.875C254.631 120.356 255.029 124.879 255.648 129.264C257.952 129.748 260.327 129.679 262.604 129.061C264.88 128.443 267 127.292 268.813 125.689C270.626 124.087 272.086 122.074 273.088 119.794C274.091 117.514 274.611 115.024 274.611 112.503Z" fill="#FF7235"/>
<path d="M320.6 124.385C323.25 124.384 325.858 123.671 328.187 122.312C330.516 120.953 332.491 118.991 333.934 116.604C335.377 114.217 336.242 111.48 336.449 108.643C336.657 105.806 336.201 102.958 335.123 100.358C331.816 101.297 328.579 102.502 325.441 103.964C320.572 106.288 312.934 110.484 306.104 114.338C307.365 117.332 309.402 119.873 311.973 121.655C314.544 123.437 317.54 124.385 320.6 124.385Z" fill="#FF7235"/>
<path d="M359.328 163.371C368.113 163.371 375.234 155.724 375.234 146.291C375.234 136.858 368.113 129.211 359.328 129.211C350.543 129.211 343.422 136.858 343.422 146.291C343.422 155.724 350.543 163.371 359.328 163.371Z" fill="#FF7235"/>
<path d="M328.208 173.396C325.277 173.396 322.404 174.268 319.909 175.917L317.834 191.961H344.048C344.09 191.471 344.114 190.977 344.114 190.476C344.114 185.946 342.438 181.602 339.455 178.399C336.472 175.195 332.426 173.396 328.208 173.396Z" fill="#FF7235"/>
<path d="M385.29 115.986C385.29 116.309 385.262 116.632 385.262 116.959C385.264 120.748 386.438 124.428 388.601 127.422C390.763 130.415 393.791 132.552 397.209 133.495C400.626 134.438 404.238 134.134 407.477 132.632C410.716 131.129 413.398 128.513 415.1 125.195C412.655 117.832 409.699 111.457 406.355 106.934C400.252 114.141 392.468 116.722 385.29 115.986Z" fill="#FF7235"/>
<path d="M400.131 188.247C400.132 192.573 401.662 196.738 404.412 199.9C407.161 203.062 410.926 204.985 414.945 205.283C415.899 204.167 416.73 202.936 417.421 201.614C420.948 194.775 422.528 184.315 422.542 172.653C420.119 171.487 417.463 170.991 414.816 171.21C412.169 171.429 409.615 172.356 407.387 173.906C405.159 175.457 403.328 177.581 402.061 180.086C400.793 182.591 400.13 185.397 400.131 188.247Z" fill="#FF7235"/>
<path d="M366.59 205.327C362.479 205.323 358.528 207.033 355.57 210.098L356.458 212.233L361.784 225.047C368.729 224.141 375.627 222.86 382.451 221.208C382.169 216.897 380.375 212.862 377.432 209.915C374.488 206.968 370.614 205.329 366.59 205.327Z" fill="#FF7235"/>
<path d="M393.388 181.379C384.094 184.78 371.559 188.916 363.824 191.59" stroke="#F5EBDC" stroke-width="2" stroke-miterlimit="10" stroke-linecap="round"/>
<path d="M383.537 145.29L386.818 183.608" stroke="#F5EBDC" stroke-width="2" stroke-miterlimit="10" stroke-linecap="round"/>
<path d="M315.521 238.974C316.655 235.213 319.072 227.486 321.195 222.544" stroke="#30242A" stroke-width="2" stroke-miterlimit="10" stroke-linecap="round"/>
<path d="M327.948 225.652C323.128 236.791 320.299 249.49 319.251 254.755" stroke="#30242A" stroke-width="2" stroke-miterlimit="10" stroke-linecap="round"/>
<path d="M334.701 229.278C331.589 236.986 328.864 247.509 327.336 253.984" stroke="#30242A" stroke-width="2" stroke-miterlimit="10" stroke-linecap="round"/>
<path d="M324.137 138.291L322.256 151.769" stroke="#F5EBDC" stroke-width="2" stroke-miterlimit="10" stroke-linecap="round"/>
<path d="M404.626 70.5458C394.059 60.3351 381.365 63.1792 381.365 63.1792C381.846 56.9637 382.81 40.9013 370.269 31.0619C357.727 21.2225 341.804 26.4021 336.015 34.1697C333.657 37.3368 332.499 41.6253 331.824 46.2926C335.676 46.9906 341.323 45.5685 341.323 45.5685C349.041 54.8919 357.229 56.9637 357.229 56.9637C362.537 50.7482 372.184 50.7482 373.633 59.5628C375.234 69.3094 363.982 71.9939 363.982 71.9939C363.982 71.9939 361.596 85.8842 365.538 99.8859C366.1 101.866 366.937 103.744 368.021 105.455C375.525 117.337 394.242 121.236 406.341 106.941C406.94 106.149 407.495 105.321 408.004 104.46C411.507 98.6494 418.219 83.6824 404.626 70.5458Z" fill="#30242A"/>
<path d="M347.544 89.2233C349.78 88.5201 351.935 87.5486 353.969 86.3271" stroke="#30242A" stroke-width="2" stroke-miterlimit="10" stroke-linecap="round"/>
<path d="M381.901 63.0723C381.638 65.9053 381.286 69.4326 380.94 72.2174" stroke="black" stroke-width="2" stroke-miterlimit="10" stroke-linecap="round"/>
<path d="M362.572 63.6587L366.877 61.0894" stroke="#30242A" stroke-width="2" stroke-miterlimit="10" stroke-linecap="round"/>
<path d="M338.104 75.7118C338.896 76.2427 341.859 76.6549 343.063 74.208" stroke="#30242A" stroke-width="2" stroke-miterlimit="10" stroke-linecap="round"/>
<path d="M345.898 64.1599C346.691 64.1599 347.333 63.47 347.333 62.619C347.333 61.768 346.691 61.0781 345.898 61.0781C345.106 61.0781 344.463 61.768 344.463 62.619C344.463 63.47 345.106 64.1599 345.898 64.1599Z" fill="#30242A"/>
<path d="M337.928 66.373C337.707 67.3978 337.523 68.5154 337.676 68.8979C337.882 69.3588 338.228 69.7307 338.658 69.9524" stroke="#30242A" stroke-width="2" stroke-miterlimit="10" stroke-linecap="round"/>
<path d="M337.358 62.0169C338.22 58.0216 336.205 54.1071 332.856 53.2736C329.507 52.4402 326.093 55.0034 325.231 58.9987C324.369 62.9941 326.384 66.9086 329.733 67.742C333.082 68.5755 336.495 66.0123 337.358 62.0169Z" stroke="black" stroke-width="2" stroke-miterlimit="10" stroke-linecap="round"/>
<path d="M352.574 64.6156C353.437 60.6202 351.421 56.7057 348.072 55.8723C344.724 55.0388 341.31 57.602 340.447 61.5973C339.585 65.5927 341.6 69.5072 344.949 70.3407C348.298 71.1741 351.712 68.6109 352.574 64.6156Z" stroke="black" stroke-width="2" stroke-miterlimit="10" stroke-linecap="round"/>
<path d="M337.717 61.4497L340.137 61.821" stroke="black" stroke-width="2" stroke-miterlimit="10" stroke-linecap="round"/>
<path d="M269.251 56.2515C269.251 56.2515 275.821 62.1922 276.512 63.6774C276.512 63.6774 265.793 75.559 274.092 90.0397" stroke="#30242A" stroke-width="2" stroke-miterlimit="10" stroke-linecap="round"/>
<path d="M273.574 54.2097C271.153 51.9819 266.502 50.5376 264.238 51.9819C260.413 54.4214 261.354 59.1591 261.354 59.1591C261.354 59.1591 255.13 58.1195 255.206 64.9663C255.206 64.9663 250.195 67.3203 252.387 72.7004C252.387 72.7004 248.051 73.8774 250.112 79.6103C251.789 84.2849 255.659 86.7318 258.013 87.9979C260.088 89.1118 263.269 87.5041 262.163 83.171C262.163 83.171 264.583 83.9136 265.967 82.4284C267.875 80.3789 267.004 76.4877 267.004 76.4877C267.004 76.4877 269.424 77.2303 271.153 75.7451C273.263 73.9331 272.191 70.5469 272.191 70.5469C272.964 70.4349 273.694 70.0994 274.303 69.5762C274.912 69.0529 275.377 68.3617 275.649 67.5765C277.032 63.8635 271.845 59.4079 271.845 59.4079L273.574 54.2097Z" fill="#A15842"/>
<path d="M252.134 72.9116C255.178 76.8795 258.533 80.5601 262.162 83.9132" stroke="#30242A" stroke-width="2" stroke-miterlimit="10" stroke-linecap="round"/>
<path d="M255.247 64.9321C258.812 69.6134 262.882 73.8248 267.37 77.4783" stroke="#30242A" stroke-width="2" stroke-miterlimit="10" stroke-linecap="round"/>
<path d="M260.779 59.4707C264.047 64.0809 267.98 68.1008 272.429 71.3783" stroke="#30242A" stroke-width="2" stroke-miterlimit="10" stroke-linecap="round"/>
<path d="M269.251 56.2515C269.251 56.2515 272.491 59.181 274.659 61.4497" stroke="#30242A" stroke-width="2" stroke-miterlimit="10" stroke-linecap="round"/>
</svg>
