<svg width="251" height="123" viewBox="0 0 251 123" fill="none" xmlns="http://www.w3.org/2000/svg">
<rect y="37" width="251" height="86" fill="#FFB7D5"/>
<path d="M58.2196 87H66.134V84.8448H60.8336V74.6364H58.2196V87ZM70.461 87.1751C71.8314 87.1751 72.7188 86.5774 73.1716 85.7141H73.244V87H75.6829V80.7457C75.6829 78.5362 73.8115 77.6065 71.7468 77.6065C69.5253 77.6065 68.0643 78.669 67.7081 80.3594L70.0867 80.5526C70.2618 79.9368 70.8111 79.484 71.7348 79.484C72.6101 79.484 73.1112 79.9247 73.1112 80.6854V80.7216C73.1112 81.3192 72.4773 81.3977 70.8655 81.5547C69.0302 81.7237 67.3821 82.3395 67.3821 84.4102C67.3821 86.2454 68.6922 87.1751 70.461 87.1751ZM71.1975 85.4002C70.4066 85.4002 69.8392 85.032 69.8392 84.3256C69.8392 83.6012 70.4368 83.245 71.3424 83.1183C71.9038 83.0398 72.8214 82.907 73.1293 82.7017V83.6857C73.1293 84.6577 72.3264 85.4002 71.1975 85.4002ZM80.2499 81.6392C80.2559 80.4439 80.9683 79.7436 82.0066 79.7436C83.0389 79.7436 83.6607 80.4197 83.6547 81.5547V87H86.2264V81.0959C86.2264 78.9347 84.9587 77.6065 83.0269 77.6065C81.6504 77.6065 80.6543 78.2827 80.2378 79.3633H80.1291V77.7273H77.6781V87H80.2499V81.6392ZM92.4309 90.6705C95.0811 90.6705 96.9646 89.4631 96.9646 87.0906V77.7273H94.411V79.2848H94.3144C93.9703 78.5302 93.2157 77.6065 91.6642 77.6065C89.6297 77.6065 87.9092 79.1882 87.9092 82.3455C87.9092 85.4304 89.5815 86.8672 91.6702 86.8672C93.1493 86.8672 93.9763 86.1246 94.3144 85.358H94.4231V87.0543C94.4231 88.3281 93.6081 88.8232 92.4913 88.8232C91.3563 88.8232 90.7828 88.3281 90.5715 87.7667L88.193 88.0866C88.5008 89.5476 89.9316 90.6705 92.4309 90.6705ZM92.4852 84.9354C91.2235 84.9354 90.5353 83.9332 90.5353 82.3335C90.5353 80.7578 91.2114 79.6531 92.4852 79.6531C93.7349 79.6531 94.4351 80.7095 94.4351 82.3335C94.4351 83.9695 93.7228 84.9354 92.4852 84.9354ZM104.958 83.0518C104.964 84.2955 104.112 84.9474 103.189 84.9474C102.217 84.9474 101.589 84.2653 101.583 83.1726V77.7273H99.0111V83.6314C99.0172 85.7987 100.285 87.1207 102.15 87.1207C103.545 87.1207 104.547 86.4023 104.964 85.3157H105.06V87H107.529V77.7273H104.958V83.0518ZM112.231 87.1751C113.601 87.1751 114.488 86.5774 114.941 85.7141H115.014V87H117.452V80.7457C117.452 78.5362 115.581 77.6065 113.516 77.6065C111.295 77.6065 109.834 78.669 109.478 80.3594L111.856 80.5526C112.031 79.9368 112.581 79.484 113.504 79.484C114.38 79.484 114.881 79.9247 114.881 80.6854V80.7216C114.881 81.3192 114.247 81.3977 112.635 81.5547C110.8 81.7237 109.152 82.3395 109.152 84.4102C109.152 86.2454 110.462 87.1751 112.231 87.1751ZM112.967 85.4002C112.176 85.4002 111.609 85.032 111.609 84.3256C111.609 83.6012 112.206 83.245 113.112 83.1183C113.673 83.0398 114.591 82.907 114.899 82.7017V83.6857C114.899 84.6577 114.096 85.4002 112.967 85.4002ZM123.625 90.6705C126.275 90.6705 128.159 89.4631 128.159 87.0906V77.7273H125.605V79.2848H125.509C125.165 78.5302 124.41 77.6065 122.859 77.6065C120.824 77.6065 119.104 79.1882 119.104 82.3455C119.104 85.4304 120.776 86.8672 122.865 86.8672C124.344 86.8672 125.171 86.1246 125.509 85.358H125.617V87.0543C125.617 88.3281 124.802 88.8232 123.686 88.8232C122.551 88.8232 121.977 88.3281 121.766 87.7667L119.387 88.0866C119.695 89.5476 121.126 90.6705 123.625 90.6705ZM123.68 84.9354C122.418 84.9354 121.73 83.9332 121.73 82.3335C121.73 80.7578 122.406 79.6531 123.68 79.6531C124.929 79.6531 125.629 80.7095 125.629 82.3335C125.629 83.9695 124.917 84.9354 123.68 84.9354ZM134.431 87.1811C136.725 87.1811 138.271 86.0643 138.633 84.3438L136.254 84.1868C135.995 84.8931 135.331 85.2614 134.474 85.2614C133.188 85.2614 132.373 84.4102 132.373 83.0277V83.0217H138.687V82.3153C138.687 79.1641 136.78 77.6065 134.329 77.6065C131.6 77.6065 129.831 79.5444 129.831 82.4059C129.831 85.3459 131.576 87.1811 134.431 87.1811ZM132.373 81.4279C132.427 80.3714 133.23 79.5263 134.371 79.5263C135.488 79.5263 136.261 80.3232 136.267 81.4279H132.373ZM144.348 74.6364V87H146.884V78.9226H146.987L150.186 86.9396H151.913L155.112 78.9528H155.215V87H157.75V74.6364H154.527L151.122 82.9432H150.977L147.572 74.6364H144.348ZM164.045 87.1811C166.859 87.1811 168.609 85.2553 168.609 82.3999C168.609 79.5263 166.859 77.6065 164.045 77.6065C161.232 77.6065 159.482 79.5263 159.482 82.3999C159.482 85.2553 161.232 87.1811 164.045 87.1811ZM164.058 85.1889C162.76 85.1889 162.096 83.9996 162.096 82.3817C162.096 80.7638 162.76 79.5685 164.058 79.5685C165.331 79.5685 165.995 80.7638 165.995 82.3817C165.995 83.9996 165.331 85.1889 164.058 85.1889ZM173.699 87.1509C175.196 87.1509 175.974 86.2876 176.331 85.5149H176.439V87H178.975V74.6364H176.409V79.2848H176.331C175.987 78.5302 175.244 77.6065 173.693 77.6065C171.658 77.6065 169.938 79.1882 169.938 82.3757C169.938 85.4787 171.586 87.1509 173.699 87.1509ZM174.514 85.1044C173.252 85.1044 172.564 83.9815 172.564 82.3636C172.564 80.7578 173.24 79.6531 174.514 79.6531C175.763 79.6531 176.463 80.7095 176.463 82.3636C176.463 84.0178 175.751 85.1044 174.514 85.1044ZM185.315 87.1811C187.609 87.1811 189.155 86.0643 189.517 84.3438L187.138 84.1868C186.879 84.8931 186.215 85.2614 185.357 85.2614C184.072 85.2614 183.257 84.4102 183.257 83.0277V83.0217H189.571V82.3153C189.571 79.1641 187.663 77.6065 185.212 77.6065C182.484 77.6065 180.715 79.5444 180.715 82.4059C180.715 85.3459 182.46 87.1811 185.315 87.1811ZM183.257 81.4279C183.311 80.3714 184.114 79.5263 185.255 79.5263C186.372 79.5263 187.144 80.3232 187.15 81.4279H183.257ZM193.821 74.6364H191.249V87H193.821V74.6364Z" fill="#AA0B29"/>
<path d="M7.67148 19H14.9158V17.6719H9.16863V6.63636H7.67148V19ZM19.7695 19.2173C21.3874 19.2173 22.2326 18.348 22.5223 17.7443H22.5948V19H24.0195V12.8906C24.0195 9.9446 21.7737 9.60653 20.5905 9.60653C19.1899 9.60653 17.5962 10.0895 16.8718 11.7798L18.224 12.2628C18.538 11.5866 19.2805 10.8622 20.6388 10.8622C21.9488 10.8622 22.5948 11.5565 22.5948 12.7457V12.794C22.5948 13.4822 21.8945 13.4219 20.2041 13.6392C18.4836 13.8626 16.6061 14.2429 16.6061 16.3679C16.6061 18.179 18.0067 19.2173 19.7695 19.2173ZM19.9868 17.9375C18.8519 17.9375 18.0309 17.4304 18.0309 16.4403C18.0309 15.3537 19.0209 15.0156 20.1317 14.8707C20.7354 14.7983 22.3533 14.6293 22.5948 14.3395V15.6435C22.5948 16.8026 21.6772 17.9375 19.9868 17.9375ZM26.6199 19H28.0446V13.1321C28.0446 11.8764 29.0347 10.9588 30.3869 10.9588C30.7673 10.9588 31.1597 11.0312 31.2563 11.0554V9.60653C31.0933 9.59446 30.719 9.58239 30.5077 9.58239C29.3969 9.58239 28.431 10.2102 28.0929 11.1278H27.9963V9.72727H26.6199V19ZM36.4058 22.6705C38.6274 22.6705 40.4143 21.6562 40.4143 19.2656V9.72727H39.0379V11.2003H38.893C38.5791 10.7173 37.9995 9.60653 36.1884 9.60653C33.8461 9.60653 32.2282 11.4659 32.2282 14.3153C32.2282 17.2131 33.9185 18.8551 36.1643 18.8551C37.9754 18.8551 38.5549 17.7926 38.8688 17.2855H38.9896V19.169C38.9896 20.7145 37.9029 21.4148 36.4058 21.4148C34.7215 21.4148 34.1298 20.5273 33.7495 20.0142L32.6146 20.8111C33.1941 21.783 34.3351 22.6705 36.4058 22.6705ZM36.3575 17.5753C34.5705 17.5753 33.6529 16.223 33.6529 14.2912C33.6529 12.4077 34.5464 10.8864 36.3575 10.8864C38.0961 10.8864 39.0137 12.2869 39.0137 14.2912C39.0137 16.3438 38.072 17.5753 36.3575 17.5753ZM46.91 19.1932C48.7935 19.1932 50.17 18.2514 50.6046 16.8509L49.2282 16.4645C48.866 17.4304 48.0269 17.9134 46.91 17.9134C45.2378 17.9134 44.0847 16.8327 44.0183 14.8466H50.7495V14.2429C50.7495 10.7898 48.697 9.60653 46.7651 9.60653C44.2538 9.60653 42.5876 11.5866 42.5876 14.4361C42.5876 17.2855 44.2296 19.1932 46.91 19.1932ZM44.0183 13.6151C44.1149 12.1722 45.1352 10.8864 46.7651 10.8864C48.3106 10.8864 49.3006 12.0455 49.3006 13.6151H44.0183ZM61.1994 19.1932C62.9864 19.1932 63.5901 18.0824 63.904 17.5753H64.073V19H65.4494V6.63636H64.0247V11.2003H63.904C63.5901 10.7173 63.0347 9.60653 61.2236 9.60653C58.8813 9.60653 57.2634 11.4659 57.2634 14.3878C57.2634 17.3338 58.8813 19.1932 61.1994 19.1932ZM61.3926 17.9134C59.6057 17.9134 58.6881 16.3438 58.6881 14.3636C58.6881 12.4077 59.5815 10.8864 61.3926 10.8864C63.1313 10.8864 64.0489 12.2869 64.0489 14.3636C64.0489 16.4645 63.1071 17.9134 61.3926 17.9134ZM70.9853 19.2173C72.6032 19.2173 73.4484 18.348 73.7381 17.7443H73.8106V19H75.2353V12.8906C75.2353 9.9446 72.9896 9.60653 71.8063 9.60653C70.4058 9.60653 68.812 10.0895 68.0876 11.7798L69.4399 12.2628C69.7538 11.5866 70.4963 10.8622 71.8546 10.8622C73.1646 10.8622 73.8106 11.5565 73.8106 12.7457V12.794C73.8106 13.4822 73.1103 13.4219 71.42 13.6392C69.6994 13.8626 67.822 14.2429 67.822 16.3679C67.822 18.179 69.2225 19.2173 70.9853 19.2173ZM71.2026 17.9375C70.0677 17.9375 69.2467 17.4304 69.2467 16.4403C69.2467 15.3537 70.2367 15.0156 71.3475 14.8707C71.9512 14.7983 73.5691 14.6293 73.8106 14.3395V15.6435C73.8106 16.8026 72.893 17.9375 71.2026 17.9375ZM81.8684 9.72727H79.8883V7.50568H78.4636V9.72727H77.063V10.9347H78.4636V16.7301C78.4636 18.348 79.7675 19.1207 80.9749 19.1207C81.5062 19.1207 81.8442 19.0241 82.0374 18.9517L81.7476 17.6719C81.6269 17.696 81.4337 17.7443 81.1198 17.7443C80.492 17.7443 79.8883 17.5511 79.8883 16.3438V10.9347H81.8684V9.72727ZM86.7402 19.2173C88.3581 19.2173 89.2033 18.348 89.493 17.7443H89.5655V19H90.9902V12.8906C90.9902 9.9446 88.7445 9.60653 87.5612 9.60653C86.1606 9.60653 84.5669 10.0895 83.8425 11.7798L85.1947 12.2628C85.5087 11.5866 86.2512 10.8622 87.6095 10.8622C88.9195 10.8622 89.5655 11.5565 89.5655 12.7457V12.794C89.5655 13.4822 88.8652 13.4219 87.1748 13.6392C85.4543 13.8626 83.5768 14.2429 83.5768 16.3679C83.5768 18.179 84.9774 19.2173 86.7402 19.2173ZM86.9575 17.9375C85.8226 17.9375 85.0016 17.4304 85.0016 16.4403C85.0016 15.3537 85.9916 15.0156 87.1024 14.8707C87.7061 14.7983 89.324 14.6293 89.5655 14.3395V15.6435C89.5655 16.8026 88.6479 17.9375 86.9575 17.9375ZM100.159 11.804C99.712 10.4879 98.7099 9.60653 96.8747 9.60653C94.9187 9.60653 93.4699 10.7173 93.4699 12.2869C93.4699 13.5668 94.2305 14.424 95.9329 14.8224L97.4784 15.1847C98.4141 15.402 98.8548 15.8487 98.8548 16.4886C98.8548 17.2855 98.0096 17.9375 96.6815 17.9375C95.5164 17.9375 94.7859 17.4364 94.5324 16.4403L93.1801 16.7784C93.5121 18.354 94.8101 19.1932 96.7057 19.1932C98.8608 19.1932 100.328 18.016 100.328 16.4162C100.328 15.1243 99.5189 14.3093 97.8647 13.9048L96.4883 13.5668C95.3896 13.2951 94.8946 12.9268 94.8946 12.2145C94.8946 11.4176 95.7397 10.8381 96.8747 10.8381C98.1183 10.8381 98.6314 11.5263 98.879 12.1662L100.159 11.804ZM106.36 19.1932C108.244 19.1932 109.62 18.2514 110.055 16.8509L108.678 16.4645C108.316 17.4304 107.477 17.9134 106.36 17.9134C104.688 17.9134 103.535 16.8327 103.469 14.8466H110.2V14.2429C110.2 10.7898 108.147 9.60653 106.215 9.60653C103.704 9.60653 102.038 11.5866 102.038 14.4361C102.038 17.2855 103.68 19.1932 106.36 19.1932ZM103.469 13.6151C103.565 12.1722 104.585 10.8864 106.215 10.8864C107.761 10.8864 108.751 12.0455 108.751 13.6151H103.469ZM116.4 9.72727H114.42V7.50568H112.995V9.72727H111.594V10.9347H112.995V16.7301C112.995 18.348 114.299 19.1207 115.506 19.1207C116.037 19.1207 116.375 19.0241 116.569 18.9517L116.279 17.6719C116.158 17.696 115.965 17.7443 115.651 17.7443C115.023 17.7443 114.42 17.5511 114.42 16.3438V10.9347H116.4V9.72727ZM123.831 13.7841C123.831 16.8267 124.652 19.3622 126.125 21.5114H127.381C126.222 19.9176 125.304 16.6577 125.304 13.7841C125.304 10.9105 126.222 7.65057 127.381 6.05682H126.125C124.652 8.20597 123.831 10.7415 123.831 13.7841ZM130.908 6.63636H129.483V19H130.908V6.63636ZM133.517 19H134.942V9.72727H133.517V19ZM134.242 8.18182C134.797 8.18182 135.256 7.74716 135.256 7.21591C135.256 6.68466 134.797 6.25 134.242 6.25C133.686 6.25 133.228 6.68466 133.228 7.21591C133.228 7.74716 133.686 8.18182 134.242 8.18182ZM137.552 19H138.976V15.5288L139.972 14.6051L143.444 19H145.255L141.047 13.6875L144.965 9.72727H143.202L139.145 13.8565H138.976V6.63636H137.552V19ZM150.305 19.1932C152.188 19.1932 153.564 18.2514 153.999 16.8509L152.623 16.4645C152.261 17.4304 151.421 17.9134 150.305 17.9134C148.632 17.9134 147.479 16.8327 147.413 14.8466H154.144V14.2429C154.144 10.7898 152.091 9.60653 150.16 9.60653C147.648 9.60653 145.982 11.5866 145.982 14.4361C145.982 17.2855 147.624 19.1932 150.305 19.1932ZM147.413 13.6151C147.509 12.1722 148.53 10.8864 150.16 10.8864C151.705 10.8864 152.695 12.0455 152.695 13.6151H147.413ZM163.531 19H165.077L167.806 9.14773H167.902L170.631 19H172.176L175.557 6.63636H174.036L171.452 16.706H171.331L168.699 6.63636H167.009L164.377 16.706H164.256L161.672 6.63636H160.151L163.531 19ZM177.229 19H178.654V9.72727H177.229V19ZM177.954 8.18182C178.509 8.18182 178.968 7.74716 178.968 7.21591C178.968 6.68466 178.509 6.25 177.954 6.25C177.398 6.25 176.939 6.68466 176.939 7.21591C176.939 7.74716 177.398 8.18182 177.954 8.18182ZM181.263 19H182.688V15.5288L183.684 14.6051L187.155 19H188.967L184.759 13.6875L188.677 9.72727H186.914L182.857 13.8565H182.688V6.63636H181.263V19ZM190.511 19H191.935V9.72727H190.511V19ZM191.235 8.18182C191.79 8.18182 192.249 7.74716 192.249 7.21591C192.249 6.68466 191.79 6.25 191.235 6.25C190.68 6.25 190.221 6.68466 190.221 7.21591C190.221 7.74716 190.68 8.18182 191.235 8.18182ZM194.545 22.4773H195.969V17.5753H196.09C196.404 18.0824 197.008 19.1932 198.795 19.1932C201.113 19.1932 202.731 17.3338 202.731 14.3878C202.731 11.4659 201.113 9.60653 198.771 9.60653C196.959 9.60653 196.404 10.7173 196.09 11.2003H195.921V9.72727H194.545V22.4773ZM195.945 14.3636C195.945 12.2869 196.863 10.8864 198.602 10.8864C200.413 10.8864 201.306 12.4077 201.306 14.3636C201.306 16.3438 200.388 17.9134 198.602 17.9134C196.887 17.9134 195.945 16.4645 195.945 14.3636ZM208.792 19.1932C210.675 19.1932 212.052 18.2514 212.486 16.8509L211.11 16.4645C210.748 17.4304 209.909 17.9134 208.792 17.9134C207.12 17.9134 205.967 16.8327 205.9 14.8466H212.631V14.2429C212.631 10.7898 210.579 9.60653 208.647 9.60653C206.136 9.60653 204.469 11.5866 204.469 14.4361C204.469 17.2855 206.111 19.1932 208.792 19.1932ZM205.9 13.6151C205.997 12.1722 207.017 10.8864 208.647 10.8864C210.192 10.8864 211.182 12.0455 211.182 13.6151H205.9ZM218.3 19.1932C220.087 19.1932 220.691 18.0824 221.005 17.5753H221.174V19H222.55V6.63636H221.125V11.2003H221.005C220.691 10.7173 220.135 9.60653 218.324 9.60653C215.982 9.60653 214.364 11.4659 214.364 14.3878C214.364 17.3338 215.982 19.1932 218.3 19.1932ZM218.493 17.9134C216.706 17.9134 215.789 16.3438 215.789 14.3636C215.789 12.4077 216.682 10.8864 218.493 10.8864C220.232 10.8864 221.149 12.2869 221.149 14.3636C221.149 16.4645 220.208 17.9134 218.493 17.9134ZM225.357 19H226.782V9.72727H225.357V19ZM226.082 8.18182C226.637 8.18182 227.096 7.74716 227.096 7.21591C227.096 6.68466 226.637 6.25 226.082 6.25C225.526 6.25 225.067 6.68466 225.067 7.21591C225.067 7.74716 225.526 8.18182 226.082 8.18182ZM232.12 19.2173C233.738 19.2173 234.583 18.348 234.873 17.7443H234.945V19H236.37V12.8906C236.37 9.9446 234.124 9.60653 232.941 9.60653C231.541 9.60653 229.947 10.0895 229.222 11.7798L230.575 12.2628C230.889 11.5866 231.631 10.8622 232.989 10.8622C234.299 10.8622 234.945 11.5565 234.945 12.7457V12.794C234.945 13.4822 234.245 13.4219 232.555 13.6392C230.834 13.8626 228.957 14.2429 228.957 16.3679C228.957 18.179 230.357 19.2173 232.12 19.2173ZM232.337 17.9375C231.202 17.9375 230.381 17.4304 230.381 16.4403C230.381 15.3537 231.371 15.0156 232.482 14.8707C233.086 14.7983 234.704 14.6293 234.945 14.3395V15.6435C234.945 16.8026 234.028 17.9375 232.337 17.9375ZM242.013 13.7841C242.013 10.7415 241.192 8.20597 239.719 6.05682H238.463C239.622 7.65057 240.54 10.9105 240.54 13.7841C240.54 16.6577 239.622 19.9176 238.463 21.5114H239.719C241.192 19.3622 242.013 16.8267 242.013 13.7841Z" fill="#AA0B29"/>
</svg>
