<svg width="251" height="197" viewBox="0 0 251 197" fill="none" xmlns="http://www.w3.org/2000/svg">
<rect y="99" width="251" height="98" fill="#FFB7D5"/>
<path d="M36.1024 154H38.7164V148.893H43.7452V146.738H38.7164V143.792H44.2885V141.636H36.1024V154ZM45.9984 154H48.5702V144.727H45.9984V154ZM47.2903 143.532C48.057 143.532 48.6849 142.946 48.6849 142.228C48.6849 141.516 48.057 140.93 47.2903 140.93C46.5297 140.93 45.9019 141.516 45.9019 142.228C45.9019 142.946 46.5297 143.532 47.2903 143.532ZM53.202 148.639C53.2081 147.444 53.9204 146.744 54.9588 146.744C55.9911 146.744 56.6129 147.42 56.6068 148.555V154H59.1786V148.096C59.1786 145.935 57.9108 144.607 55.979 144.607C54.6026 144.607 53.6065 145.283 53.1899 146.363H53.0813V144.727H50.6303V154H53.202V148.639ZM65.4313 154.181C67.7254 154.181 69.2708 153.064 69.633 151.344L67.2545 151.187C66.9949 151.893 66.3308 152.261 65.4736 152.261C64.1877 152.261 63.3727 151.41 63.3727 150.028V150.022H69.6874V149.315C69.6874 146.164 67.7797 144.607 65.3287 144.607C62.6 144.607 60.8312 146.544 60.8312 149.406C60.8312 152.346 62.5759 154.181 65.4313 154.181ZM63.3727 148.428C63.4271 147.371 64.23 146.526 65.371 146.526C66.4878 146.526 67.2605 147.323 67.2666 148.428H63.3727ZM80.2324 144.727H78.4877V142.506H75.916V144.727H74.6482V146.659H75.916V151.489C75.9039 153.306 77.1415 154.205 79.0069 154.127C79.6709 154.103 80.1418 153.97 80.4014 153.885L79.9969 151.972C79.8702 151.996 79.5985 152.056 79.357 152.056C78.8439 152.056 78.4877 151.863 78.4877 151.151V146.659H80.2324V144.727ZM87.854 150.052C87.86 151.295 87.0088 151.947 86.0852 151.947C85.1132 151.947 84.4854 151.265 84.4794 150.173V144.727H81.9076V150.631C81.9137 152.799 83.1814 154.121 85.0468 154.121C86.4414 154.121 87.4435 153.402 87.86 152.316H87.9566V154H90.4257V144.727H87.854V150.052ZM95.0546 148.639C95.0606 147.444 95.7729 146.744 96.8113 146.744C97.8436 146.744 98.4654 147.42 98.4594 148.555V154H101.031V148.096C101.031 145.935 99.7634 144.607 97.8315 144.607C96.4551 144.607 95.459 145.283 95.0425 146.363H94.9338V144.727H92.4828V154H95.0546V148.639ZM103.058 154H105.63V144.727H103.058V154ZM104.35 143.532C105.117 143.532 105.744 142.946 105.744 142.228C105.744 141.516 105.117 140.93 104.35 140.93C103.589 140.93 102.961 141.516 102.961 142.228C102.961 142.946 103.589 143.532 104.35 143.532ZM110.262 148.639C110.268 147.444 110.98 146.744 112.018 146.744C113.051 146.744 113.672 147.42 113.666 148.555V154H116.238V148.096C116.238 145.935 114.97 144.607 113.039 144.607C111.662 144.607 110.666 145.283 110.25 146.363H110.141V144.727H107.69V154H110.262V148.639ZM122.443 157.67C125.093 157.67 126.976 156.463 126.976 154.091V144.727H124.423V146.285H124.326C123.982 145.53 123.227 144.607 121.676 144.607C119.641 144.607 117.921 146.188 117.921 149.346C117.921 152.43 119.593 153.867 121.682 153.867C123.161 153.867 123.988 153.125 124.326 152.358H124.435V154.054C124.435 155.328 123.62 155.823 122.503 155.823C121.368 155.823 120.795 155.328 120.583 154.767L118.205 155.087C118.513 156.548 119.943 157.67 122.443 157.67ZM122.497 151.935C121.235 151.935 120.547 150.933 120.547 149.333C120.547 147.758 121.223 146.653 122.497 146.653C123.747 146.653 124.447 147.71 124.447 149.333C124.447 150.969 123.735 151.935 122.497 151.935ZM137.89 144.727H136.145V142.506H133.573V144.727H132.305V146.659H133.573V151.489C133.561 153.306 134.799 154.205 136.664 154.127C137.328 154.103 137.799 153.97 138.059 153.885L137.654 151.972C137.527 151.996 137.256 152.056 137.014 152.056C136.501 152.056 136.145 151.863 136.145 151.151V146.659H137.89V144.727ZM142.336 148.639C142.342 147.444 143.072 146.744 144.123 146.744C145.167 146.744 145.783 147.414 145.777 148.555V154H148.349V148.096C148.355 145.923 147.075 144.607 145.143 144.607C143.736 144.607 142.795 145.271 142.372 146.363H142.263V141.636H139.764V154H142.336V148.639ZM154.598 154.181C156.892 154.181 158.438 153.064 158.8 151.344L156.421 151.187C156.162 151.893 155.498 152.261 154.641 152.261C153.355 152.261 152.54 151.41 152.54 150.028V150.022H158.854V149.315C158.854 146.164 156.947 144.607 154.496 144.607C151.767 144.607 149.998 146.544 149.998 149.406C149.998 152.346 151.743 154.181 154.598 154.181ZM152.54 148.428C152.594 147.371 153.397 146.526 154.538 146.526C155.655 146.526 156.428 147.323 156.434 148.428H152.54ZM164.467 154H167.039V148.434C167.039 147.408 167.691 146.725 168.548 146.725C169.393 146.725 169.961 147.305 169.961 148.217V154H172.454V148.337C172.454 147.377 173.003 146.725 173.939 146.725C174.76 146.725 175.376 147.239 175.376 148.271V154H177.942V147.764C177.942 145.754 176.746 144.607 175.02 144.607C173.661 144.607 172.605 145.301 172.225 146.363H172.128C171.832 145.289 170.884 144.607 169.611 144.607C168.361 144.607 167.413 145.271 167.027 146.363H166.918V144.727H164.467V154ZM184.163 154.181C186.976 154.181 188.727 152.255 188.727 149.4C188.727 146.526 186.976 144.607 184.163 144.607C181.349 144.607 179.599 146.526 179.599 149.4C179.599 152.255 181.349 154.181 184.163 154.181ZM184.175 152.189C182.877 152.189 182.213 151 182.213 149.382C182.213 147.764 182.877 146.569 184.175 146.569C185.449 146.569 186.113 147.764 186.113 149.382C186.113 151 185.449 152.189 184.175 152.189ZM193.816 154.151C195.313 154.151 196.092 153.288 196.448 152.515H196.557V154H199.092V141.636H196.526V146.285H196.448C196.104 145.53 195.361 144.607 193.81 144.607C191.775 144.607 190.055 146.188 190.055 149.376C190.055 152.479 191.703 154.151 193.816 154.151ZM194.631 152.104C193.369 152.104 192.681 150.982 192.681 149.364C192.681 147.758 193.357 146.653 194.631 146.653C195.88 146.653 196.581 147.71 196.581 149.364C196.581 151.018 195.868 152.104 194.631 152.104ZM205.432 154.181C207.726 154.181 209.272 153.064 209.634 151.344L207.255 151.187C206.996 151.893 206.332 152.261 205.475 152.261C204.189 152.261 203.374 151.41 203.374 150.028V150.022H209.688V149.315C209.688 146.164 207.781 144.607 205.33 144.607C202.601 144.607 200.832 146.544 200.832 149.406C200.832 152.346 202.577 154.181 205.432 154.181ZM203.374 148.428C203.428 147.371 204.231 146.526 205.372 146.526C206.489 146.526 207.261 147.323 207.268 148.428H203.374ZM213.938 141.636H211.367V154H213.938V141.636Z" fill="#AA0B29"/>
<path d="M0.887917 69.9645H4.7757V81H6.27286V69.9645H10.1606V68.6364H0.887917V69.9645ZM13.7451 81.2173C15.363 81.2173 16.2081 80.348 16.4979 79.7443H16.5704V81H17.9951V74.8906C17.9951 71.9446 15.7493 71.6065 14.5661 71.6065C13.1655 71.6065 11.5718 72.0895 10.8473 73.7798L12.1996 74.2628C12.5135 73.5866 13.2561 72.8622 14.6144 72.8622C15.9244 72.8622 16.5704 73.5565 16.5704 74.7457V74.794C16.5704 75.4822 15.8701 75.4219 14.1797 75.6392C12.4592 75.8626 10.5817 76.2429 10.5817 78.3679C10.5817 80.179 11.9823 81.2173 13.7451 81.2173ZM13.9624 79.9375C12.8275 79.9375 12.0064 79.4304 12.0064 78.4403C12.0064 77.3537 12.9965 77.0156 14.1073 76.8707C14.711 76.7983 16.3289 76.6293 16.5704 76.3395V77.6435C16.5704 78.8026 15.6527 79.9375 13.9624 79.9375ZM27.1637 73.804C26.7169 72.4879 25.7148 71.6065 23.8796 71.6065C21.9236 71.6065 20.4747 72.7173 20.4747 74.2869C20.4747 75.5668 21.2354 76.424 22.9378 76.8224L24.4833 77.1847C25.419 77.402 25.8597 77.8487 25.8597 78.4886C25.8597 79.2855 25.0145 79.9375 23.6864 79.9375C22.5213 79.9375 21.7908 79.4364 21.5372 78.4403L20.185 78.7784C20.517 80.354 21.8149 81.1932 23.7105 81.1932C25.8657 81.1932 27.3327 80.016 27.3327 78.4162C27.3327 77.1243 26.5237 76.3093 24.8696 75.9048L23.4932 75.5668C22.3945 75.2951 21.8995 74.9268 21.8995 74.2145C21.8995 73.4176 22.7446 72.8381 23.8796 72.8381C25.1232 72.8381 25.6363 73.5263 25.8838 74.1662L27.1637 73.804ZM29.4773 81H30.902V77.5288L31.8981 76.6051L35.3694 81H37.1804L32.9727 75.6875L36.8907 71.7273H35.1279L31.0711 75.8565H30.902V68.6364H29.4773V81ZM43.2566 75.0355H37.8475V76.3636H43.2566V75.0355ZM52.3316 73.804C51.8849 72.4879 50.8828 71.6065 49.0475 71.6065C47.0916 71.6065 45.6427 72.7173 45.6427 74.2869C45.6427 75.5668 46.4034 76.424 48.1058 76.8224L49.6512 77.1847C50.587 77.402 51.0277 77.8487 51.0277 78.4886C51.0277 79.2855 50.1825 79.9375 48.8544 79.9375C47.6892 79.9375 46.9588 79.4364 46.7052 78.4403L45.3529 78.7784C45.685 80.354 46.9829 81.1932 48.8785 81.1932C51.0337 81.1932 52.5007 80.016 52.5007 78.4162C52.5007 77.1243 51.6917 76.3093 50.0376 75.9048L48.6612 75.5668C47.5625 75.2951 47.0674 74.9268 47.0674 74.2145C47.0674 73.4176 47.9126 72.8381 49.0475 72.8381C50.2911 72.8381 50.8043 73.5263 51.0518 74.1662L52.3316 73.804ZM54.6453 84.4773H56.07V79.5753H56.1907C56.5047 80.0824 57.1084 81.1932 58.8953 81.1932C61.2135 81.1932 62.8314 79.3338 62.8314 76.3878C62.8314 73.4659 61.2135 71.6065 58.8711 71.6065C57.0601 71.6065 56.5047 72.7173 56.1907 73.2003H56.0217V71.7273H54.6453V84.4773ZM56.0459 76.3636C56.0459 74.2869 56.9635 72.8864 58.7021 72.8864C60.5132 72.8864 61.4066 74.4077 61.4066 76.3636C61.4066 78.3438 60.489 79.9134 58.7021 79.9134C56.9876 79.9134 56.0459 78.4645 56.0459 76.3636ZM68.8924 81.1932C70.776 81.1932 72.1524 80.2514 72.587 78.8509L71.2106 78.4645C70.8484 79.4304 70.0093 79.9134 68.8924 79.9134C67.2202 79.9134 66.0672 78.8327 66.0008 76.8466H72.7319V76.2429C72.7319 72.7898 70.6794 71.6065 68.7476 71.6065C66.2362 71.6065 64.57 73.5866 64.57 76.4361C64.57 79.2855 66.212 81.1932 68.8924 81.1932ZM66.0008 75.6151C66.0973 74.1722 67.1176 72.8864 68.7476 72.8864C70.293 72.8864 71.2831 74.0455 71.2831 75.6151H66.0008ZM78.6662 81.1932C80.7188 81.1932 82.0711 79.9375 82.3125 78.2955H80.8878C80.6222 79.3097 79.777 79.9134 78.6662 79.9134C76.9759 79.9134 75.8892 78.5128 75.8892 76.3636C75.8892 74.2628 77 72.8864 78.6662 72.8864C79.9219 72.8864 80.6705 73.6591 80.8878 74.5043H82.3125C82.0711 72.7656 80.5981 71.6065 78.6421 71.6065C76.1307 71.6065 74.4645 73.5866 74.4645 76.4119C74.4645 79.1889 76.0583 81.1932 78.6662 81.1932ZM84.3953 81H85.82V71.7273H84.3953V81ZM85.1197 70.1818C85.6751 70.1818 86.1339 69.7472 86.1339 69.2159C86.1339 68.6847 85.6751 68.25 85.1197 68.25C84.5643 68.25 84.1055 68.6847 84.1055 69.2159C84.1055 69.7472 84.5643 70.1818 85.1197 70.1818ZM92.5587 71.7273H90.482V70.7855C90.482 69.8679 90.8684 69.3849 91.8101 69.3849C92.2207 69.3849 92.4621 69.4815 92.607 69.5298L93.0175 68.2983C92.8002 68.2017 92.3655 68.0568 91.6653 68.0568C90.3371 68.0568 89.0573 68.8537 89.0573 70.4474V71.7273H87.5601V72.9347H89.0573V81H90.482V72.9347H92.5587V71.7273ZM94.5554 81H95.9802V71.7273H94.5554V81ZM95.2799 70.1818C95.8353 70.1818 96.2941 69.7472 96.2941 69.2159C96.2941 68.6847 95.8353 68.25 95.2799 68.25C94.7245 68.25 94.2657 68.6847 94.2657 69.2159C94.2657 69.7472 94.7245 70.1818 95.2799 70.1818ZM102.357 81.1932C104.409 81.1932 105.761 79.9375 106.003 78.2955H104.578C104.313 79.3097 103.467 79.9134 102.357 79.9134C100.666 79.9134 99.5797 78.5128 99.5797 76.3636C99.5797 74.2628 100.69 72.8864 102.357 72.8864C103.612 72.8864 104.361 73.6591 104.578 74.5043H106.003C105.761 72.7656 104.288 71.6065 102.333 71.6065C99.8212 71.6065 98.155 73.5866 98.155 76.4119C98.155 79.1889 99.7487 81.1932 102.357 81.1932ZM116.368 81.1932C118.155 81.1932 118.759 80.0824 119.073 79.5753H119.242V81H120.618V68.6364H119.194V73.2003H119.073C118.759 72.7173 118.204 71.6065 116.393 71.6065C114.05 71.6065 112.432 73.4659 112.432 76.3878C112.432 79.3338 114.05 81.1932 116.368 81.1932ZM116.562 79.9134C114.775 79.9134 113.857 78.3438 113.857 76.3636C113.857 74.4077 114.75 72.8864 116.562 72.8864C118.3 72.8864 119.218 74.2869 119.218 76.3636C119.218 78.4645 118.276 79.9134 116.562 79.9134ZM126.154 81.2173C127.772 81.2173 128.617 80.348 128.907 79.7443H128.98V81H130.404V74.8906C130.404 71.9446 128.159 71.6065 126.975 71.6065C125.575 71.6065 123.981 72.0895 123.257 73.7798L124.609 74.2628C124.923 73.5866 125.665 72.8622 127.024 72.8622C128.334 72.8622 128.98 73.5565 128.98 74.7457V74.794C128.98 75.4822 128.279 75.4219 126.589 75.6392C124.868 75.8626 122.991 76.2429 122.991 78.3679C122.991 80.179 124.391 81.2173 126.154 81.2173ZM126.372 79.9375C125.237 79.9375 124.416 79.4304 124.416 78.4403C124.416 77.3537 125.406 77.0156 126.516 76.8707C127.12 76.7983 128.738 76.6293 128.98 76.3395V77.6435C128.98 78.8026 128.062 79.9375 126.372 79.9375ZM137.037 71.7273H135.057V69.5057H133.633V71.7273H132.232V72.9347H133.633V78.7301C133.633 80.348 134.936 81.1207 136.144 81.1207C136.675 81.1207 137.013 81.0241 137.206 80.9517L136.917 79.6719C136.796 79.696 136.603 79.7443 136.289 79.7443C135.661 79.7443 135.057 79.5511 135.057 78.3438V72.9347H137.037V71.7273ZM141.909 81.2173C143.527 81.2173 144.372 80.348 144.662 79.7443H144.734V81H146.159V74.8906C146.159 71.9446 143.913 71.6065 142.73 71.6065C141.33 71.6065 139.736 72.0895 139.011 73.7798L140.364 74.2628C140.678 73.5866 141.42 72.8622 142.778 72.8622C144.088 72.8622 144.734 73.5565 144.734 74.7457V74.794C144.734 75.4822 144.034 75.4219 142.344 75.6392C140.623 75.8626 138.746 76.2429 138.746 78.3679C138.746 80.179 140.146 81.2173 141.909 81.2173ZM142.126 79.9375C140.992 79.9375 140.17 79.4304 140.17 78.4403C140.17 77.3537 141.161 77.0156 142.271 76.8707C142.875 76.7983 144.493 76.6293 144.734 76.3395V77.6435C144.734 78.8026 143.817 79.9375 142.126 79.9375ZM155.328 73.804C154.881 72.4879 153.879 71.6065 152.044 71.6065C150.088 71.6065 148.639 72.7173 148.639 74.2869C148.639 75.5668 149.399 76.424 151.102 76.8224L152.647 77.1847C153.583 77.402 154.024 77.8487 154.024 78.4886C154.024 79.2855 153.179 79.9375 151.85 79.9375C150.685 79.9375 149.955 79.4364 149.701 78.4403L148.349 78.7784C148.681 80.354 149.979 81.1932 151.875 81.1932C154.03 81.1932 155.497 80.016 155.497 78.4162C155.497 77.1243 154.688 76.3093 153.034 75.9048L151.657 75.5668C150.559 75.2951 150.064 74.9268 150.064 74.2145C150.064 73.4176 150.909 72.8381 152.044 72.8381C153.287 72.8381 153.8 73.5263 154.048 74.1662L155.328 73.804ZM161.529 81.1932C163.413 81.1932 164.789 80.2514 165.224 78.8509L163.847 78.4645C163.485 79.4304 162.646 79.9134 161.529 79.9134C159.857 79.9134 158.704 78.8327 158.637 76.8466H165.369V76.2429C165.369 72.7898 163.316 71.6065 161.384 71.6065C158.873 71.6065 157.207 73.5866 157.207 76.4361C157.207 79.2855 158.849 81.1932 161.529 81.1932ZM158.637 75.6151C158.734 74.1722 159.754 72.8864 161.384 72.8864C162.93 72.8864 163.92 74.0455 163.92 75.6151H158.637ZM171.569 71.7273H169.588V69.5057H168.164V71.7273H166.763V72.9347H168.164V78.7301C168.164 80.348 169.468 81.1207 170.675 81.1207C171.206 81.1207 171.544 81.0241 171.738 80.9517L171.448 79.6719C171.327 79.696 171.134 79.7443 170.82 79.7443C170.192 79.7443 169.588 79.5511 169.588 78.3438V72.9347H171.569V71.7273ZM179 75.7841C179 78.8267 179.821 81.3622 181.294 83.5114H182.55C181.391 81.9176 180.473 78.6577 180.473 75.7841C180.473 72.9105 181.391 69.6506 182.55 68.0568H181.294C179.821 70.206 179 72.7415 179 75.7841ZM186.077 68.6364H184.652V81H186.077V68.6364ZM188.686 81H190.111V71.7273H188.686V81ZM189.411 70.1818C189.966 70.1818 190.425 69.7472 190.425 69.2159C190.425 68.6847 189.966 68.25 189.411 68.25C188.855 68.25 188.397 68.6847 188.397 69.2159C188.397 69.7472 188.855 70.1818 189.411 70.1818ZM192.72 81H194.145V77.5288L195.141 76.6051L198.613 81H200.424L196.216 75.6875L200.134 71.7273H198.371L194.314 75.8565H194.145V68.6364H192.72V81ZM205.474 81.1932C207.357 81.1932 208.733 80.2514 209.168 78.8509L207.792 78.4645C207.429 79.4304 206.59 79.9134 205.474 79.9134C203.801 79.9134 202.648 78.8327 202.582 76.8466H209.313V76.2429C209.313 72.7898 207.26 71.6065 205.329 71.6065C202.817 71.6065 201.151 73.5866 201.151 76.4361C201.151 79.2855 202.793 81.1932 205.474 81.1932ZM202.582 75.6151C202.678 74.1722 203.699 72.8864 205.329 72.8864C206.874 72.8864 207.864 74.0455 207.864 75.6151H202.582ZM226.886 74.8182C226.886 70.9062 224.592 68.4673 221.429 68.4673C218.266 68.4673 215.972 70.9062 215.972 74.8182C215.972 78.7301 218.266 81.169 221.429 81.169C222.238 81.169 222.987 81.0121 223.657 80.7102L224.737 82.1591H226.379L224.768 80.016C226.084 78.9354 226.886 77.1364 226.886 74.8182ZM220.946 77.1364L222.781 79.5391C222.359 79.69 221.906 79.7685 221.429 79.7685C219.183 79.7685 217.421 78.0298 217.421 74.8182C217.421 71.6065 219.183 69.8679 221.429 69.8679C223.675 69.8679 225.438 71.6065 225.438 74.8182C225.438 76.6836 224.846 78.0479 223.904 78.869L222.588 77.1364H220.946ZM232.901 68.0568H231.597L227.612 82.8594H228.916L232.901 68.0568ZM235.29 81L236.534 77.4986H241.532L242.776 81H244.345L239.806 68.6364H238.26L233.72 81H235.29ZM237.004 76.1705L238.985 70.5923H239.081L241.061 76.1705H237.004ZM249.121 74.8182C249.121 71.7756 248.299 69.2401 246.826 67.0909H245.571C246.73 68.6847 247.648 71.9446 247.648 74.8182C247.648 77.6918 246.73 80.9517 245.571 82.5455H246.826C248.299 80.3963 249.121 77.8608 249.121 74.8182Z" fill="#AA0B29"/>
<path d="M125 46L130.774 36L119.226 36L125 46ZM124 -4.37114e-08L124 37L126 37L126 4.37114e-08L124 -4.37114e-08Z" fill="#A72626"/>
</svg>
