<svg width="251" height="182" viewBox="0 0 251 182" fill="none" xmlns="http://www.w3.org/2000/svg">
<rect y="100" width="251" height="82" fill="#FFB7D5"/>
<path d="M79.4945 148H82.1085V142.893H87.1373V140.738H82.1085V137.792H87.6806V135.636H79.4945V148ZM89.3905 148H91.9623V138.727H89.3905V148ZM90.6824 137.532C91.4491 137.532 92.077 136.946 92.077 136.228C92.077 135.516 91.4491 134.93 90.6824 134.93C89.9218 134.93 89.2939 135.516 89.2939 136.228C89.2939 136.946 89.9218 137.532 90.6824 137.532ZM96.5941 142.639C96.6001 141.444 97.3125 140.744 98.3509 140.744C99.3832 140.744 100.005 141.42 99.9989 142.555V148H102.571V142.096C102.571 139.935 101.303 138.607 99.3711 138.607C97.9947 138.607 96.9986 139.283 96.582 140.363H96.4734V138.727H94.0224V148H96.5941V142.639ZM107.242 148.175C108.612 148.175 109.5 147.577 109.952 146.714H110.025V148H112.464V141.746C112.464 139.536 110.592 138.607 108.528 138.607C106.306 138.607 104.845 139.669 104.489 141.359L106.867 141.553C107.043 140.937 107.592 140.484 108.516 140.484C109.391 140.484 109.892 140.925 109.892 141.685V141.722C109.892 142.319 109.258 142.398 107.646 142.555C105.811 142.724 104.163 143.339 104.163 145.41C104.163 147.245 105.473 148.175 107.242 148.175ZM107.978 146.4C107.187 146.4 106.62 146.032 106.62 145.326C106.62 144.601 107.218 144.245 108.123 144.118C108.685 144.04 109.602 143.907 109.91 143.702V144.686C109.91 145.658 109.107 146.4 107.978 146.4ZM117.031 135.636H114.459V148H117.031V135.636ZM123.074 135.636V148H125.609V139.923H125.712L128.911 147.94H130.638L133.837 139.953H133.94V148H136.476V135.636H133.252L129.847 143.943H129.702L126.297 135.636H123.074ZM142.771 148.181C145.584 148.181 147.335 146.255 147.335 143.4C147.335 140.526 145.584 138.607 142.771 138.607C139.957 138.607 138.207 140.526 138.207 143.4C138.207 146.255 139.957 148.181 142.771 148.181ZM142.783 146.189C141.485 146.189 140.821 145 140.821 143.382C140.821 141.764 141.485 140.569 142.783 140.569C144.056 140.569 144.721 141.764 144.721 143.382C144.721 145 144.056 146.189 142.783 146.189ZM152.424 148.151C153.921 148.151 154.7 147.288 155.056 146.515H155.164V148H157.7V135.636H155.134V140.285H155.056C154.712 139.53 153.969 138.607 152.418 138.607C150.383 138.607 148.663 140.188 148.663 143.376C148.663 146.479 150.311 148.151 152.424 148.151ZM153.239 146.104C151.977 146.104 151.289 144.982 151.289 143.364C151.289 141.758 151.965 140.653 153.239 140.653C154.488 140.653 155.189 141.71 155.189 143.364C155.189 145.018 154.476 146.104 153.239 146.104ZM164.04 148.181C166.334 148.181 167.88 147.064 168.242 145.344L165.863 145.187C165.604 145.893 164.94 146.261 164.082 146.261C162.797 146.261 161.982 145.41 161.982 144.028V144.022H168.296V143.315C168.296 140.164 166.389 138.607 163.938 138.607C161.209 138.607 159.44 140.544 159.44 143.406C159.44 146.346 161.185 148.181 164.04 148.181ZM161.982 142.428C162.036 141.371 162.839 140.526 163.98 140.526C165.097 140.526 165.869 141.323 165.875 142.428H161.982ZM172.546 135.636H169.975V148H172.546V135.636Z" fill="#AA0B29"/>
<path d="M76.2507 70.9645H80.1385V82H81.6357V70.9645H85.5234V69.6364H76.2507V70.9645ZM90.1839 82.1932C92.0675 82.1932 93.4439 81.2514 93.8786 79.8509L92.5021 79.4645C92.1399 80.4304 91.3008 80.9134 90.1839 80.9134C88.5117 80.9134 87.3587 79.8327 87.2923 77.8466H94.0234V77.2429C94.0234 73.7898 91.9709 72.6065 90.0391 72.6065C87.5277 72.6065 85.8615 74.5866 85.8615 77.4361C85.8615 80.2855 87.5036 82.1932 90.1839 82.1932ZM87.2923 76.6151C87.3888 75.1722 88.4091 73.8864 90.0391 73.8864C91.5845 73.8864 92.5746 75.0455 92.5746 76.6151H87.2923ZM102.759 74.804C102.312 73.4879 101.31 72.6065 99.4748 72.6065C97.5188 72.6065 96.07 73.7173 96.07 75.2869C96.07 76.5668 96.8306 77.424 98.533 77.8224L100.078 78.1847C101.014 78.402 101.455 78.8487 101.455 79.4886C101.455 80.2855 100.61 80.9375 99.2816 80.9375C98.1165 80.9375 97.386 80.4364 97.1325 79.4403L95.7802 79.7784C96.1122 81.354 97.4102 82.1932 99.3058 82.1932C101.461 82.1932 102.928 81.016 102.928 79.4162C102.928 78.1243 102.119 77.3093 100.465 76.9048L99.0884 76.5668C97.9897 76.2951 97.4947 75.9268 97.4947 75.2145C97.4947 74.4176 98.3398 73.8381 99.4748 73.8381C100.718 73.8381 101.232 74.5263 101.479 75.1662L102.759 74.804ZM109.105 72.7273H107.125V70.5057H105.7V72.7273H104.3V73.9347H105.7V79.7301C105.7 81.348 107.004 82.1207 108.212 82.1207C108.743 82.1207 109.081 82.0241 109.274 81.9517L108.984 80.6719C108.864 80.696 108.671 80.7443 108.357 80.7443C107.729 80.7443 107.125 80.5511 107.125 79.3438V73.9347H109.105V72.7273ZM119.531 82.1932C121.318 82.1932 121.922 81.0824 122.236 80.5753H122.405V82H123.781V69.6364H122.356V74.2003H122.236C121.922 73.7173 121.366 72.6065 119.555 72.6065C117.213 72.6065 115.595 74.4659 115.595 77.3878C115.595 80.3338 117.213 82.1932 119.531 82.1932ZM119.724 80.9134C117.937 80.9134 117.02 79.3438 117.02 77.3636C117.02 75.4077 117.913 73.8864 119.724 73.8864C121.463 73.8864 122.38 75.2869 122.38 77.3636C122.38 79.4645 121.439 80.9134 119.724 80.9134ZM129.317 82.2173C130.935 82.2173 131.78 81.348 132.07 80.7443H132.142V82H133.567V75.8906C133.567 72.9446 131.321 72.6065 130.138 72.6065C128.737 72.6065 127.144 73.0895 126.419 74.7798L127.771 75.2628C128.085 74.5866 128.828 73.8622 130.186 73.8622C131.496 73.8622 132.142 74.5565 132.142 75.7457V75.794C132.142 76.4822 131.442 76.4219 129.752 76.6392C128.031 76.8626 126.153 77.2429 126.153 79.3679C126.153 81.179 127.554 82.2173 129.317 82.2173ZM129.534 80.9375C128.399 80.9375 127.578 80.4304 127.578 79.4403C127.578 78.3537 128.568 78.0156 129.679 77.8707C130.283 77.7983 131.901 77.6293 132.142 77.3395V78.6435C132.142 79.8026 131.225 80.9375 129.534 80.9375ZM140.2 72.7273H138.22V70.5057H136.795V72.7273H135.395V73.9347H136.795V79.7301C136.795 81.348 138.099 82.1207 139.306 82.1207C139.838 82.1207 140.176 82.0241 140.369 81.9517L140.079 80.6719C139.958 80.696 139.765 80.7443 139.451 80.7443C138.824 80.7443 138.22 80.5511 138.22 79.3438V73.9347H140.2V72.7273ZM145.072 82.2173C146.69 82.2173 147.535 81.348 147.825 80.7443H147.897V82H149.322V75.8906C149.322 72.9446 147.076 72.6065 145.893 72.6065C144.492 72.6065 142.898 73.0895 142.174 74.7798L143.526 75.2628C143.84 74.5866 144.583 73.8622 145.941 73.8622C147.251 73.8622 147.897 74.5565 147.897 75.7457V75.794C147.897 76.4822 147.197 76.4219 145.506 76.6392C143.786 76.8626 141.908 77.2429 141.908 79.3679C141.908 81.179 143.309 82.2173 145.072 82.2173ZM145.289 80.9375C144.154 80.9375 143.333 80.4304 143.333 79.4403C143.333 78.3537 144.323 78.0156 145.434 77.8707C146.038 77.7983 147.656 77.6293 147.897 77.3395V78.6435C147.897 79.8026 146.979 80.9375 145.289 80.9375ZM158.49 74.804C158.044 73.4879 157.041 72.6065 155.206 72.6065C153.25 72.6065 151.801 73.7173 151.801 75.2869C151.801 76.5668 152.562 77.424 154.264 77.8224L155.81 78.1847C156.746 78.402 157.186 78.8487 157.186 79.4886C157.186 80.2855 156.341 80.9375 155.013 80.9375C153.848 80.9375 153.117 80.4364 152.864 79.4403L151.512 79.7784C151.844 81.354 153.142 82.1932 155.037 82.1932C157.192 82.1932 158.659 81.016 158.659 79.4162C158.659 78.1243 157.85 77.3093 156.196 76.9048L154.82 76.5668C153.721 76.2951 153.226 75.9268 153.226 75.2145C153.226 74.4176 154.071 73.8381 155.206 73.8381C156.45 73.8381 156.963 74.5263 157.21 75.1662L158.49 74.804ZM164.692 82.1932C166.575 82.1932 167.952 81.2514 168.386 79.8509L167.01 79.4645C166.648 80.4304 165.809 80.9134 164.692 80.9134C163.02 80.9134 161.866 79.8327 161.8 77.8466H168.531V77.2429C168.531 73.7898 166.479 72.6065 164.547 72.6065C162.036 72.6065 160.369 74.5866 160.369 77.4361C160.369 80.2855 162.011 82.1932 164.692 82.1932ZM161.8 76.6151C161.897 75.1722 162.917 73.8864 164.547 73.8864C166.092 73.8864 167.082 75.0455 167.082 76.6151H161.8ZM174.731 72.7273H172.751V70.5057H171.326V72.7273H169.926V73.9347H171.326V79.7301C171.326 81.348 172.63 82.1207 173.838 82.1207C174.369 82.1207 174.707 82.0241 174.9 81.9517L174.61 80.6719C174.49 80.696 174.297 80.7443 173.983 80.7443C173.355 80.7443 172.751 80.5511 172.751 79.3438V73.9347H174.731V72.7273Z" fill="#AA0B29"/>
<path d="M125 47L130.774 37L119.226 37L125 47ZM124 -4.37114e-08L124 38L126 38L126 4.37114e-08L124 -4.37114e-08Z" fill="#A72626"/>
</svg>
