<svg width="549" height="501" viewBox="0 0 549 501" fill="none" xmlns="http://www.w3.org/2000/svg">
<circle cx="273.876" cy="250.875" r="250" fill="url(#paint0_linear)"/>
<path d="M535.017 345.592L0 361.821L8.72032 168.24L548.354 141L535.017 345.592Z" fill="black" fill-opacity="0.1"/>
<path d="M525.945 338.538L8.45239 353.369L16.8871 176.46L538.845 151.566L525.945 338.538Z" fill="black" fill-opacity="0.1"/>
<path d="M16.9052 347.029L29.13 182.788L516.658 164.244V325.837L16.9052 347.029Z" fill="white"/>
<mask id="mask0" mask-type="alpha" maskUnits="userSpaceOnUse" x="44" y="195" width="458" height="92">
<path fill-rule="evenodd" clip-rule="evenodd" d="M78.8233 286.594L67.8316 253.845H62.9591V286.594H44.3752V208.746L57.8598 195.941H95.8207V253.619H85.7356L97.5204 286.594H78.8233ZM77.2369 213.165H62.9591V236.848H77.2369V213.165ZM158.296 286.594H105.491V195.941H124.301V269.37H139.599V195.941H158.296V286.594ZM202.195 197.981V248.859L184.405 197.981H166.274V286.594H183.385V235.715L201.289 286.594H219.419V197.981H202.195ZM246.54 286.594H227.389V210.332L242.007 195.941H281.668V286.594H262.631V256.792H246.54V286.594ZM262.631 213.165H246.54V239.568H262.631V213.165ZM305.136 286.594H322.36L332.331 230.389L342.303 286.594H359.527L375.052 195.941H356.694L348.649 249.993L338.904 195.941H325.872L316.127 249.993L308.082 195.941H289.611L305.136 286.594ZM397.81 286.594L382.929 286.594V210.332L397.547 195.941H437.207V286.594L424.942 286.594H397.81ZM501.469 195.941H482.092L472.8 224.043L464.301 195.941H445.151L463.735 251.919L452.29 286.594H471.553L501.469 195.941Z" fill="url(#paint1_linear)"/>
</mask>
<g mask="url(#mask0)">
<path fill-rule="evenodd" clip-rule="evenodd" d="M78.8233 286.594L67.8316 253.845H62.9591V286.594H44.3752V208.746L57.8598 195.941H95.8207V253.619H85.7356L97.5204 286.594H78.8233ZM77.2369 213.165H62.9591V236.848H77.2369V213.165ZM158.296 286.594H105.491V195.941H124.301V269.37H139.599V195.941H158.296V286.594ZM202.195 197.981V248.859L184.405 197.981H166.274V286.594H183.385V235.715L201.289 286.594H219.419V197.981H202.195ZM246.54 286.594H227.389V210.332L242.007 195.941H281.668V286.594H262.631V256.792H246.54V286.594ZM262.631 213.165H246.54V239.568H262.631V213.165ZM305.136 286.594H322.36L332.331 230.389L342.303 286.594H359.527L375.052 195.941H356.694L348.649 249.993L338.904 195.941H325.872L316.127 249.993L308.082 195.941H289.611L305.136 286.594ZM397.81 286.594L382.929 286.594V210.332L397.547 195.941H437.207V286.594L424.942 286.594H397.81ZM501.469 195.941H482.092L472.8 224.043L464.301 195.941H445.151L463.735 251.919L452.29 286.594H471.553L501.469 195.941Z" fill="#FE5C7B"/>
<circle cx="409.945" cy="223.412" r="9.50903" fill="white"/>
<path d="M417.87 266.202V243.486L414.172 244.542L402.549 255.636L417.87 266.202Z" fill="#A23A00"/>
<path d="M404.662 248.241V238.204L408.888 239.261L413.114 240.845V246.657L404.662 248.241Z" fill="#A23A00"/>
<path d="M388.391 283.635V256.165H389.448L402.655 269.372L388.391 283.635Z" fill="#A23A00"/>
<path d="M404.662 247.713C417.763 243.064 410.121 239.437 404.662 238.204C411.882 239.085 423.891 242.219 414.171 247.713C402.021 254.581 402.549 256.166 425.265 263.033C443.438 268.527 449.037 284.693 449.566 292.089L342.325 306.88C365.393 296.843 408.571 274.55 396.738 265.675C381.946 254.581 388.285 253.524 404.662 247.713Z" fill="white"/>
</g>
<path d="M44.3752 301.878V322.437H48.5987V309.006H48.7697L54.0993 322.337H56.9753L62.305 309.056H62.4759V322.437H66.6994V301.878H61.3296L55.658 315.691H55.4167L49.7451 301.878H44.3752Z" fill="#FE5C7B"/>
<path d="M100.539 312.158C100.539 305.432 96.3559 301.597 90.8955 301.597C85.405 301.597 81.2519 305.432 81.2519 312.158C81.2519 318.853 85.405 322.718 90.8955 322.718C96.3559 322.718 100.539 318.884 100.539 312.158ZM96.1246 312.158C96.1246 316.514 94.0531 318.874 90.8955 318.874C87.7279 318.874 85.6664 316.514 85.6664 312.158C85.6664 307.801 87.7279 305.442 90.8955 305.442C94.0531 305.442 96.1246 307.801 96.1246 312.158Z" fill="#FE5C7B"/>
<path d="M122.392 322.437C128.667 322.437 132.468 318.562 132.468 312.138C132.468 305.733 128.667 301.878 122.453 301.878H115.092V322.437H122.392ZM119.446 318.713V305.603H122.221C126.083 305.603 128.124 307.57 128.124 312.138C128.124 316.725 126.083 318.713 122.211 318.713H119.446Z" fill="#FE5C7B"/>
<path d="M147.021 322.437H160.938V318.853H151.375V313.945H160.184V310.361H151.375V305.462H160.898V301.878H147.021V322.437Z" fill="#FE5C7B"/>
<path d="M175.687 322.437H188.87V318.853H180.041V301.878H175.687V322.437Z" fill="#FE5C7B"/>
<path d="M214.253 307.791H218.426C218.366 304.127 215.349 301.597 210.763 301.597C206.248 301.597 202.94 304.087 202.96 307.821C202.95 310.853 205.092 312.589 208.571 313.423L210.814 313.985C213.056 314.527 214.303 315.169 214.313 316.555C214.303 318.06 212.875 319.084 210.663 319.084C208.4 319.084 206.771 318.04 206.63 315.982H202.417C202.527 320.43 205.715 322.728 210.713 322.728C215.741 322.728 218.697 320.329 218.707 316.565C218.697 313.142 216.113 311.325 212.533 310.521L210.683 310.08C208.893 309.668 207.395 309.006 207.425 307.53C207.425 306.205 208.601 305.231 210.733 305.231C212.815 305.231 214.092 306.175 214.253 307.791Z" fill="#FE5C7B"/>
<path d="M78.8229 286.593L67.8313 253.845H62.9587V286.593H44.3749V208.745L57.8595 195.94H95.8203V253.618H85.7352L97.5201 286.593H78.8229ZM77.2365 213.164H62.9587V236.847H77.2365V213.164Z" fill="#B55768"/>
<path d="M158.295 286.593H105.49V195.94H124.301V269.369H139.598V195.94H158.295V286.593Z" fill="#B55768"/>
<path d="M202.195 248.859V197.98H219.419V286.593H201.288L183.384 235.714V286.593H166.274V197.98H184.404L202.195 248.859Z" fill="#B55768"/>
<defs>
<linearGradient id="paint0_linear" x1="131.504" y1="41.7484" x2="380.422" y2="470" gradientUnits="userSpaceOnUse">
<stop stop-color="#FF7D92"/>
<stop offset="1" stop-color="#FEACA0"/>
</linearGradient>
<linearGradient id="paint1_linear" x1="272.922" y1="195.941" x2="272.922" y2="286.594" gradientUnits="userSpaceOnUse">
<stop stop-color="#E8AB0E"/>
<stop offset="1" stop-color="#E85D0E"/>
</linearGradient>
</defs>
</svg>