<svg width="424" height="174" viewBox="0 0 424 174" fill="none" xmlns="http://www.w3.org/2000/svg">
<path d="M410.833 158.957L3 171.328L9.64733 23.7648L421 3L410.833 158.957Z" fill="white" fill-opacity="0.5" stroke="white" stroke-opacity="0.2" stroke-width="5"/>
<path d="M403.918 153.58L9.44336 164.885L15.873 30.0307L413.752 11.0542L403.918 153.58Z" fill="white" fill-opacity="0.5" stroke="white" stroke-opacity="0.19" stroke-width="4"/>
<path d="M15.8862 160.052L25.205 34.854L396.838 20.7188V143.898L15.8862 160.052Z" fill="white"/>
<mask id="mask0" mask-type="alpha" maskUnits="userSpaceOnUse" x="36" y="44" width="350" height="70">
<path fill-rule="evenodd" clip-rule="evenodd" d="M63.0853 113.983L54.7065 89.0198H50.9923V113.983H36.8262V54.6412L47.1052 44.8804H76.0421V88.8471H68.3544L77.3377 113.983H63.0853ZM61.876 58.0099H50.9923V76.0631H61.876V58.0099ZM123.666 113.983H83.4133V44.8804H97.7521V100.854H109.413V44.8804H123.666V113.983ZM157.129 46.4352V85.2192L143.568 46.4352H129.747V113.983H142.79V75.1993L156.438 113.983H170.259V46.4352H157.129ZM190.932 113.983H176.334V55.8505L187.477 44.8804H217.71V113.983H203.198V91.2657H190.932V113.983ZM203.198 58.0099H190.932V78.1361H203.198V58.0099ZM235.599 113.983H248.728L256.33 71.1395L263.931 113.983H277.061L288.895 44.8804H274.901L268.768 86.083L261.34 44.8804H251.406L243.978 86.083L237.845 44.8804H223.765L235.599 113.983ZM306.243 113.983L294.899 113.983V55.8505L306.042 44.8804H336.275V113.983L326.925 113.983H306.243ZM385.26 44.8804H370.489L363.406 66.3023L356.928 44.8804H342.33L356.496 87.5514L347.772 113.983H362.456L385.26 44.8804Z" fill="url(#paint0_linear)"/>
</mask>
<g mask="url(#mask0)">
<path fill-rule="evenodd" clip-rule="evenodd" d="M63.0853 113.983L54.7065 89.0198H50.9923V113.983H36.8262V54.6412L47.1052 44.8804H76.0421V88.8471H68.3544L77.3377 113.983H63.0853ZM61.876 58.0099H50.9923V76.0631H61.876V58.0099ZM123.666 113.983H83.4133V44.8804H97.7521V100.854H109.413V44.8804H123.666V113.983ZM157.129 46.4352V85.2192L143.568 46.4352H129.747V113.983H142.79V75.1993L156.438 113.983H170.259V46.4352H157.129ZM190.932 113.983H176.334V55.8505L187.477 44.8804H217.71V113.983H203.198V91.2657H190.932V113.983ZM203.198 58.0099H190.932V78.1361H203.198V58.0099ZM235.599 113.983H248.728L256.33 71.1395L263.931 113.983H277.061L288.895 44.8804H274.901L268.768 86.083L261.34 44.8804H251.406L243.978 86.083L237.845 44.8804H223.765L235.599 113.983ZM306.243 113.983L294.899 113.983V55.8505L306.042 44.8804H336.275V113.983L326.925 113.983H306.243ZM385.26 44.8804H370.489L363.406 66.3023L356.928 44.8804H342.33L356.496 87.5514L347.772 113.983H362.456L385.26 44.8804Z" fill="#FE5C7B"/>
<circle cx="315.493" cy="65.8208" r="7.24855" fill="white"/>
<path d="M321.534 98.4395V81.1235L318.715 81.9289L309.856 90.3856L321.534 98.4395Z" fill="#A23A00"/>
<path d="M311.466 84.7479V77.0967L314.687 77.9021L317.909 79.1102V83.5398L311.466 84.7479Z" fill="#A23A00"/>
<path d="M299.063 111.728V90.7876H299.869L309.936 100.855L299.063 111.728Z" fill="#A23A00"/>
<path d="M311.466 84.3452C321.453 80.8015 315.627 78.0363 311.466 77.0967C316.97 77.7678 326.124 80.1572 318.715 84.3452C309.453 89.5803 309.855 90.7884 327.171 96.0235C341.024 100.212 345.293 112.534 345.695 118.172L263.948 129.447C281.532 121.796 314.446 104.802 305.426 98.0369C294.15 89.5803 298.982 88.7749 311.466 84.3452Z" fill="white"/>
</g>
<path d="M36.8262 125.635V141.306H40.0457V131.068H40.176L44.2387 141.23H46.431L50.4937 131.106H50.624V141.306H53.8435V125.635H49.7501L45.4268 136.164H45.2428L40.9195 125.635H36.8262Z" fill="#FE5C7B"/>
<path d="M79.6389 133.471C79.6389 128.344 76.45 125.42 72.2877 125.42C68.1024 125.42 64.9365 128.344 64.9365 133.471C64.9365 138.575 68.1024 141.521 72.2877 141.521C76.45 141.521 79.6389 138.598 79.6389 133.471ZM76.2737 133.471C76.2737 136.792 74.6946 138.59 72.2877 138.59C69.8731 138.59 68.3017 136.792 68.3017 133.471C68.3017 130.149 69.8731 128.351 72.2877 128.351C74.6946 128.351 76.2737 130.149 76.2737 133.471Z" fill="#FE5C7B"/>
<path d="M96.297 141.306C101.08 141.306 103.978 138.353 103.978 133.455C103.978 128.573 101.08 125.635 96.343 125.635H90.7319V141.306H96.297ZM94.0511 138.467V128.474H96.1667C99.1103 128.474 100.666 129.973 100.666 133.455C100.666 136.952 99.1103 138.467 96.1591 138.467H94.0511Z" fill="#FE5C7B"/>
<path d="M115.071 141.306H125.68V138.575H118.39V134.833H125.105V132.101H118.39V128.367H125.649V125.635H115.071V141.306Z" fill="#FE5C7B"/>
<path d="M136.922 141.306H146.972V138.575H140.242V125.635H136.922V141.306Z" fill="#FE5C7B"/>
<path d="M166.321 130.142H169.502C169.456 127.349 167.156 125.42 163.661 125.42C160.219 125.42 157.697 127.318 157.712 130.165C157.705 132.476 159.337 133.8 161.99 134.435L163.699 134.863C165.408 135.276 166.359 135.766 166.367 136.822C166.359 137.97 165.27 138.751 163.584 138.751C161.859 138.751 160.617 137.955 160.51 136.386H157.298C157.383 139.776 159.813 141.528 163.622 141.528C167.455 141.528 169.709 139.699 169.716 136.83C169.709 134.22 167.739 132.835 165.01 132.223L163.599 131.887C162.235 131.573 161.093 131.068 161.116 129.943C161.116 128.933 162.013 128.191 163.638 128.191C165.224 128.191 166.198 128.91 166.321 130.142Z" fill="#FE5C7B"/>
<path d="M63.0853 113.983L54.7065 89.0198H50.9923V113.983H36.8262V54.6412L47.1052 44.8804H76.0421V88.8471H68.3544L77.3377 113.983H63.0853ZM61.876 58.0099H50.9923V76.0631H61.876V58.0099Z" fill="#B55768"/>
<path d="M123.666 113.983H83.4133V44.8804H97.7521V100.854H109.413V44.8804H123.666V113.983Z" fill="#B55768"/>
<path d="M157.129 85.2192V46.4352H170.259V113.983H156.438L142.79 75.1993V113.983H129.747V46.4352H143.568L157.129 85.2192Z" fill="#B55768"/>
<defs>
<linearGradient id="paint0_linear" x1="211.043" y1="44.8804" x2="211.043" y2="113.983" gradientUnits="userSpaceOnUse">
<stop stop-color="#E8AB0E"/>
<stop offset="1" stop-color="#E85D0E"/>
</linearGradient>
</defs>
</svg>
