<svg width="536" height="549" viewBox="0 0 536 549" fill="none" xmlns="http://www.w3.org/2000/svg">
<circle cx="43" cy="189" r="43" fill="#C4C4C4"/>
<circle cx="160" cy="169" r="43" fill="#C4C4C4"/>
<circle cx="255" cy="43" r="43" fill="#C4C4C4"/>
<circle cx="195" cy="315" r="43" fill="#C4C4C4"/>
<circle cx="281" cy="189" r="43" fill="#C4C4C4"/>
<circle cx="384" cy="266" r="43" fill="#C4C4C4"/>
<circle cx="105" cy="45" r="43" fill="#C4C4C4"/>
<circle cx="298" cy="393" r="43" fill="#C4C4C4"/>
<circle cx="493" cy="237" r="43" fill="#C4C4C4"/>
<circle cx="384" cy="105" r="43" fill="#C4C4C4"/>
<circle cx="55" cy="323" r="43" fill="#C4C4C4"/>
<path d="M65.8352 495.091V530H70.8466V504.722H71.1705L81.4659 529.949H85.625L95.9205 504.739H96.2443V530H101.256V495.091H94.8636L83.75 522.227H83.3409L72.2273 495.091H65.8352ZM116.124 530.58C120.453 530.58 122.891 528.381 123.862 526.42H124.067V530H129.044V512.614C129.044 504.994 123.044 503.477 118.885 503.477C114.146 503.477 109.783 505.386 108.078 510.159L112.868 511.25C113.618 509.392 115.527 507.602 118.953 507.602C122.243 507.602 123.93 509.324 123.93 512.29V512.409C123.93 514.267 122.021 514.233 117.317 514.778C112.357 515.358 107.277 516.653 107.277 522.602C107.277 527.75 111.146 530.58 116.124 530.58ZM117.232 526.489C114.351 526.489 112.271 525.193 112.271 522.67C112.271 519.943 114.692 518.972 117.641 518.58C119.294 518.358 123.214 517.915 123.947 517.182V520.557C123.947 523.659 121.476 526.489 117.232 526.489ZM140.929 495.091H135.832V530H140.929V495.091ZM159.07 530.528C164.78 530.528 168.82 527.716 169.979 523.455L165.155 522.585C164.234 525.057 162.018 526.318 159.121 526.318C154.757 526.318 151.825 523.489 151.689 518.443H170.303V516.636C170.303 507.176 164.643 503.477 158.712 503.477C151.416 503.477 146.609 509.034 146.609 517.08C146.609 525.21 151.348 530.528 159.07 530.528ZM151.706 514.625C151.911 510.909 154.604 507.688 158.746 507.688C162.7 507.688 165.291 510.619 165.308 514.625H151.706ZM199.945 530.528C205.655 530.528 209.695 527.716 210.854 523.455L206.03 522.585C205.109 525.057 202.893 526.318 199.996 526.318C195.632 526.318 192.7 523.489 192.564 518.443H211.178V516.636C211.178 507.176 205.518 503.477 199.587 503.477C192.291 503.477 187.484 509.034 187.484 517.08C187.484 525.21 192.223 530.528 199.945 530.528ZM192.581 514.625C192.786 510.909 195.479 507.688 199.621 507.688C203.575 507.688 206.166 510.619 206.183 514.625H192.581ZM221.929 514.455C221.929 510.278 224.486 507.892 228.031 507.892C231.491 507.892 233.588 510.159 233.588 513.96V530H238.685V513.347C238.685 506.869 235.122 503.477 229.77 503.477C225.832 503.477 223.259 505.301 222.048 508.08H221.724V503.818H216.832V530H221.929V514.455ZM256.497 540.364C263.162 540.364 268.31 537.312 268.31 530.58V503.818H263.315V508.062H262.94C262.037 506.443 260.23 503.477 255.355 503.477C249.031 503.477 244.378 508.472 244.378 516.807C244.378 525.159 249.134 529.608 255.321 529.608C260.128 529.608 261.986 526.898 262.906 525.227H263.23V530.375C263.23 534.483 260.418 536.256 256.548 536.256C252.304 536.256 250.651 534.125 249.747 532.625L245.366 534.432C246.747 537.636 250.241 540.364 256.497 540.364ZM256.446 525.381C251.895 525.381 249.526 521.886 249.526 516.739C249.526 511.71 251.844 507.807 256.446 507.807C260.895 507.807 263.281 511.438 263.281 516.739C263.281 522.142 260.844 525.381 256.446 525.381ZM275.145 530H280.241V503.818H275.145V530ZM277.719 499.778C279.474 499.778 280.94 498.415 280.94 496.744C280.94 495.074 279.474 493.693 277.719 493.693C275.946 493.693 274.497 495.074 274.497 496.744C274.497 498.415 275.946 499.778 277.719 499.778ZM292.195 514.455C292.195 510.278 294.751 507.892 298.297 507.892C301.757 507.892 303.854 510.159 303.854 513.96V530H308.95V513.347C308.95 506.869 305.388 503.477 300.036 503.477C296.098 503.477 293.524 505.301 292.314 508.08H291.99V503.818H287.098V530H292.195V514.455ZM327.07 530.528C332.78 530.528 336.82 527.716 337.979 523.455L333.155 522.585C332.234 525.057 330.018 526.318 327.121 526.318C322.757 526.318 319.825 523.489 319.689 518.443H338.303V516.636C338.303 507.176 332.643 503.477 326.712 503.477C319.416 503.477 314.609 509.034 314.609 517.08C314.609 525.21 319.348 530.528 327.07 530.528ZM319.706 514.625C319.911 510.909 322.604 507.688 326.746 507.688C330.7 507.688 333.291 510.619 333.308 514.625H319.706ZM355.241 530.528C360.952 530.528 364.991 527.716 366.151 523.455L361.327 522.585C360.406 525.057 358.19 526.318 355.293 526.318C350.929 526.318 347.997 523.489 347.861 518.443H366.474V516.636C366.474 507.176 360.815 503.477 354.884 503.477C347.588 503.477 342.781 509.034 342.781 517.08C342.781 525.21 347.52 530.528 355.241 530.528ZM347.878 514.625C348.082 510.909 350.776 507.688 354.918 507.688C358.872 507.688 361.463 510.619 361.48 514.625H347.878ZM372.129 530H377.226V514.011C377.226 510.585 379.868 508.114 383.482 508.114C384.538 508.114 385.732 508.301 386.141 508.42V503.545C385.629 503.477 384.624 503.426 383.976 503.426C380.908 503.426 378.283 505.165 377.328 507.977H377.055V503.818H372.129V530ZM410.17 510.21C409.114 506.136 405.926 503.477 400.267 503.477C394.352 503.477 390.159 506.597 390.159 511.233C390.159 514.949 392.409 517.42 397.318 518.511L401.75 519.483C404.273 520.045 405.449 521.17 405.449 522.807C405.449 524.835 403.284 526.42 399.943 526.42C396.892 526.42 394.932 525.108 394.318 522.534L389.392 523.284C390.244 527.92 394.097 530.528 399.977 530.528C406.301 530.528 410.682 527.17 410.682 522.432C410.682 518.733 408.33 516.449 403.523 515.341L399.364 514.386C396.483 513.705 395.239 512.733 395.256 510.96C395.239 508.949 397.42 507.517 400.318 507.517C403.489 507.517 404.955 509.273 405.551 511.028L410.17 510.21Z" fill="black"/>
</svg>
