<svg width="540" height="70" viewBox="0 0 540 70" fill="none" xmlns="http://www.w3.org/2000/svg">
<rect width="321" height="70" fill="#FFB7D5"/>
<path d="M106.729 30.7915H110.514V41H113.098V30.7915H116.883V28.6364H106.729V30.7915ZM117.544 41H120.116V35.7539C120.116 34.6129 120.949 33.8281 122.084 33.8281C122.44 33.8281 122.929 33.8885 123.171 33.967V31.685C122.941 31.6307 122.621 31.5945 122.362 31.5945C121.323 31.5945 120.472 32.1982 120.134 33.3452H120.038V31.7273H117.544V41ZM126.879 41.1751C128.249 41.1751 129.137 40.5774 129.59 39.7141H129.662V41H132.101V34.7457C132.101 32.5362 130.229 31.6065 128.165 31.6065C125.943 31.6065 124.482 32.669 124.126 34.3594L126.505 34.5526C126.68 33.9368 127.229 33.484 128.153 33.484C129.028 33.484 129.529 33.9247 129.529 34.6854V34.7216C129.529 35.3192 128.895 35.3977 127.283 35.5547C125.448 35.7237 123.8 36.3395 123.8 38.4102C123.8 40.2454 125.11 41.1751 126.879 41.1751ZM127.615 39.4002C126.825 39.4002 126.257 39.032 126.257 38.3256C126.257 37.6012 126.855 37.245 127.76 37.1183C128.322 37.0398 129.239 36.907 129.547 36.7017V37.6857C129.547 38.6577 128.744 39.4002 127.615 39.4002ZM134.096 41H136.668V31.7273H134.096V41ZM135.388 30.532C136.155 30.532 136.783 29.9464 136.783 29.228C136.783 28.5156 136.155 27.93 135.388 27.93C134.627 27.93 134 28.5156 134 29.228C134 29.9464 134.627 30.532 135.388 30.532ZM141.3 35.6392C141.306 34.4439 142.018 33.7436 143.056 33.7436C144.089 33.7436 144.711 34.4197 144.705 35.5547V41H147.276V35.0959C147.276 32.9347 146.008 31.6065 144.077 31.6065C142.7 31.6065 141.704 32.2827 141.288 33.3633H141.179V31.7273H138.728V41H141.3V35.6392ZM149.303 41H151.875V31.7273H149.303V41ZM150.595 30.532C151.362 30.532 151.99 29.9464 151.99 29.228C151.99 28.5156 151.362 27.93 150.595 27.93C149.834 27.93 149.207 28.5156 149.207 29.228C149.207 29.9464 149.834 30.532 150.595 30.532ZM156.507 35.6392C156.513 34.4439 157.225 33.7436 158.263 33.7436C159.296 33.7436 159.918 34.4197 159.912 35.5547V41H162.483V35.0959C162.483 32.9347 161.216 31.6065 159.284 31.6065C157.907 31.6065 156.911 32.2827 156.495 33.3633H156.386V31.7273H153.935V41H156.507V35.6392ZM168.688 44.6705C171.338 44.6705 173.221 43.4631 173.221 41.0906V31.7273H170.668V33.2848H170.571C170.227 32.5302 169.473 31.6065 167.921 31.6065C165.887 31.6065 164.166 33.1882 164.166 36.3455C164.166 39.4304 165.838 40.8672 167.927 40.8672C169.406 40.8672 170.233 40.1246 170.571 39.358H170.68V41.0543C170.68 42.3281 169.865 42.8232 168.748 42.8232C167.613 42.8232 167.04 42.3281 166.828 41.7667L164.45 42.0866C164.758 43.5476 166.188 44.6705 168.688 44.6705ZM168.742 38.9354C167.48 38.9354 166.792 37.9332 166.792 36.3335C166.792 34.7578 167.468 33.6531 168.742 33.6531C169.992 33.6531 170.692 34.7095 170.692 36.3335C170.692 37.9695 169.98 38.9354 168.742 38.9354ZM183.634 41C187.401 41 189.683 38.6697 189.683 34.8061C189.683 30.9545 187.401 28.6364 183.67 28.6364H179.251V41H183.634ZM181.865 38.7603V30.8761H183.531C185.849 30.8761 187.075 32.0593 187.075 34.8061C187.075 37.565 185.849 38.7603 183.525 38.7603H181.865ZM194.215 41.1751C195.585 41.1751 196.473 40.5774 196.925 39.7141H196.998V41H199.437V34.7457C199.437 32.5362 197.565 31.6065 195.501 31.6065C193.279 31.6065 191.818 32.669 191.462 34.3594L193.841 34.5526C194.016 33.9368 194.565 33.484 195.489 33.484C196.364 33.484 196.865 33.9247 196.865 34.6854V34.7216C196.865 35.3192 196.231 35.3977 194.619 35.5547C192.784 35.7237 191.136 36.3395 191.136 38.4102C191.136 40.2454 192.446 41.1751 194.215 41.1751ZM194.951 39.4002C194.161 39.4002 193.593 39.032 193.593 38.3256C193.593 37.6012 194.191 37.245 195.096 37.1183C195.658 37.0398 196.575 36.907 196.883 36.7017V37.6857C196.883 38.6577 196.08 39.4002 194.951 39.4002ZM206.364 31.7273H204.62V29.5057H202.048V31.7273H200.78V33.6591H202.048V38.4886C202.036 40.3058 203.273 41.2053 205.139 41.1268C205.803 41.1026 206.274 40.9698 206.533 40.8853L206.129 38.9716C206.002 38.9957 205.73 39.0561 205.489 39.0561C204.976 39.0561 204.62 38.8629 204.62 38.1506V33.6591H206.364V31.7273ZM210.684 41.1751C212.054 41.1751 212.941 40.5774 213.394 39.7141H213.467V41H215.906V34.7457C215.906 32.5362 214.034 31.6065 211.97 31.6065C209.748 31.6065 208.287 32.669 207.931 34.3594L210.309 34.5526C210.484 33.9368 211.034 33.484 211.957 33.484C212.833 33.484 213.334 33.9247 213.334 34.6854V34.7216C213.334 35.3192 212.7 35.3977 211.088 35.5547C209.253 35.7237 207.605 36.3395 207.605 38.4102C207.605 40.2454 208.915 41.1751 210.684 41.1751ZM211.42 39.4002C210.629 39.4002 210.062 39.032 210.062 38.3256C210.062 37.6012 210.659 37.245 211.565 37.1183C212.126 37.0398 213.044 36.907 213.352 36.7017V37.6857C213.352 38.6577 212.549 39.4002 211.42 39.4002Z" fill="#AA0B29"/>
<path d="M383.84 25C387.607 25 389.889 22.6697 389.889 18.8061C389.889 14.9545 387.607 12.6364 383.876 12.6364H379.457V25H383.84ZM382.071 22.7603V14.8761H383.738C386.056 14.8761 387.281 16.0593 387.281 18.8061C387.281 21.565 386.056 22.7603 383.732 22.7603H382.071ZM394.421 25.1751C395.792 25.1751 396.679 24.5774 397.132 23.7141H397.204V25H399.643V18.7457C399.643 16.5362 397.772 15.6065 395.707 15.6065C393.486 15.6065 392.025 16.669 391.669 18.3594L394.047 18.5526C394.222 17.9368 394.772 17.484 395.695 17.484C396.571 17.484 397.072 17.9247 397.072 18.6854V18.7216C397.072 19.3192 396.438 19.3977 394.826 19.5547C392.991 19.7237 391.343 20.3395 391.343 22.4102C391.343 24.2454 392.653 25.1751 394.421 25.1751ZM395.158 23.4002C394.367 23.4002 393.8 23.032 393.8 22.3256C393.8 21.6012 394.397 21.245 395.303 21.1183C395.864 21.0398 396.782 20.907 397.09 20.7017V21.6857C397.09 22.6577 396.287 23.4002 395.158 23.4002ZM406.571 15.7273H404.826V13.5057H402.254V15.7273H400.987V17.6591H402.254V22.4886C402.242 24.3058 403.48 25.2053 405.345 25.1268C406.009 25.1026 406.48 24.9698 406.74 24.8853L406.335 22.9716C406.209 22.9957 405.937 23.0561 405.695 23.0561C405.182 23.0561 404.826 22.8629 404.826 22.1506V17.6591H406.571V15.7273ZM410.89 25.1751C412.261 25.1751 413.148 24.5774 413.601 23.7141H413.673V25H416.112V18.7457C416.112 16.5362 414.241 15.6065 412.176 15.6065C409.954 15.6065 408.494 16.669 408.137 18.3594L410.516 18.5526C410.691 17.9368 411.24 17.484 412.164 17.484C413.039 17.484 413.54 17.9247 413.54 18.6854V18.7216C413.54 19.3192 412.907 19.3977 411.295 19.5547C409.459 19.7237 407.811 20.3395 407.811 22.4102C407.811 24.2454 409.121 25.1751 410.89 25.1751ZM411.627 23.4002C410.836 23.4002 410.268 23.032 410.268 22.3256C410.268 21.6012 410.866 21.245 411.772 21.1183C412.333 21.0398 413.251 20.907 413.559 20.7017V21.6857C413.559 22.6577 412.756 23.4002 411.627 23.4002ZM422.09 25H427.373C430.15 25 431.629 23.5511 431.629 21.5831C431.629 19.7539 430.319 18.6491 428.912 18.5827V18.462C430.198 18.1722 431.146 17.2607 431.146 15.8058C431.146 13.9524 429.769 12.6364 427.04 12.6364H422.09V25ZM424.704 22.8629V19.5788H426.896C428.151 19.5788 428.93 20.3033 428.93 21.3235C428.93 22.2532 428.296 22.8629 426.835 22.8629H424.704ZM424.704 17.81V14.7493H426.69C427.849 14.7493 428.507 15.3469 428.507 16.2404C428.507 17.2184 427.711 17.81 426.642 17.81H424.704ZM433.281 25H435.853V15.7273H433.281V25ZM434.573 14.532C435.34 14.532 435.968 13.9464 435.968 13.228C435.968 12.5156 435.34 11.93 434.573 11.93C433.812 11.93 433.185 12.5156 433.185 13.228C433.185 13.9464 433.812 14.532 434.573 14.532ZM440.557 25.1751C441.928 25.1751 442.815 24.5774 443.268 23.7141H443.34V25H445.779V18.7457C445.779 16.5362 443.908 15.6065 441.843 15.6065C439.621 15.6065 438.161 16.669 437.804 18.3594L440.183 18.5526C440.358 17.9368 440.907 17.484 441.831 17.484C442.706 17.484 443.207 17.9247 443.207 18.6854V18.7216C443.207 19.3192 442.574 19.3977 440.962 19.5547C439.126 19.7237 437.478 20.3395 437.478 22.4102C437.478 24.2454 438.788 25.1751 440.557 25.1751ZM441.294 23.4002C440.503 23.4002 439.935 23.032 439.935 22.3256C439.935 21.6012 440.533 21.245 441.439 21.1183C442 21.0398 442.918 20.907 443.225 20.7017V21.6857C443.225 22.6577 442.423 23.4002 441.294 23.4002ZM455.49 18.3714C455.26 16.663 453.884 15.6065 451.541 15.6065C449.169 15.6065 447.605 16.7053 447.611 18.4922C447.605 19.8807 448.481 20.7802 450.292 21.1424L451.898 21.4624C452.706 21.6254 453.075 21.9212 453.087 22.386C453.075 22.9354 452.477 23.3278 451.578 23.3278C450.66 23.3278 450.05 22.9354 449.893 22.1808L447.364 22.3136C447.605 24.0884 449.115 25.1811 451.572 25.1811C453.974 25.1811 455.695 23.9556 455.701 22.1264C455.695 20.7862 454.819 19.9833 453.02 19.6151L451.342 19.277C450.479 19.0898 450.159 18.794 450.165 18.3473C450.159 17.7919 450.787 17.4297 451.584 17.4297C452.477 17.4297 453.008 17.9187 453.135 18.5163L455.49 18.3714ZM472.212 16.9648C471.868 14.1094 469.706 12.4673 466.845 12.4673C463.579 12.4673 461.086 14.7734 461.086 18.8182C461.086 22.8509 463.537 25.169 466.845 25.169C470.014 25.169 471.928 23.0621 472.212 20.7862L469.568 20.7741C469.32 22.0962 468.282 22.8569 466.887 22.8569C465.01 22.8569 463.736 21.4624 463.736 18.8182C463.736 16.2464 464.992 14.7795 466.905 14.7795C468.336 14.7795 469.368 15.6065 469.568 16.9648H472.212ZM476.61 19.6392C476.616 18.4439 477.346 17.7436 478.397 17.7436C479.441 17.7436 480.057 18.4137 480.051 19.5547V25H482.623V19.0959C482.629 16.9226 481.349 15.6065 479.417 15.6065C478.01 15.6065 477.069 16.2706 476.646 17.3633H476.537V12.6364H474.038V25H476.61V19.6392ZM488.872 25.1811C491.166 25.1811 492.712 24.0643 493.074 22.3438L490.695 22.1868C490.436 22.8931 489.772 23.2614 488.915 23.2614C487.629 23.2614 486.814 22.4102 486.814 21.0277V21.0217H493.128V20.3153C493.128 17.1641 491.221 15.6065 488.77 15.6065C486.041 15.6065 484.272 17.5444 484.272 20.4059C484.272 23.3459 486.017 25.1811 488.872 25.1811ZM486.814 19.4279C486.868 18.3714 487.671 17.5263 488.812 17.5263C489.929 17.5263 490.701 18.3232 490.707 19.4279H486.814ZM498.996 25.1811C501.465 25.1811 503.017 23.7322 503.138 21.6012H500.711C500.56 22.5913 499.908 23.1467 499.026 23.1467C497.825 23.1467 497.046 22.1385 497.046 20.3636C497.046 18.6129 497.831 17.6108 499.026 17.6108C499.968 17.6108 500.572 18.2326 500.711 19.1562H503.138C503.029 17.0131 501.405 15.6065 498.984 15.6065C496.171 15.6065 494.432 17.5565 494.432 20.3999C494.432 23.2191 496.141 25.1811 498.996 25.1811ZM504.784 25H507.356V22.054L508.05 21.2631L510.58 25H513.592L509.976 19.7418L513.417 15.7273H510.465L507.495 19.2468H507.356V12.6364H504.784V25ZM514.679 25H517.25V15.7273H514.679V25ZM515.971 14.532C516.737 14.532 517.365 13.9464 517.365 13.228C517.365 12.5156 516.737 11.93 515.971 11.93C515.21 11.93 514.582 12.5156 514.582 13.228C514.582 13.9464 515.21 14.532 515.971 14.532ZM521.882 19.6392C521.888 18.4439 522.601 17.7436 523.639 17.7436C524.671 17.7436 525.293 18.4197 525.287 19.5547V25H527.859V19.0959C527.859 16.9347 526.591 15.6065 524.659 15.6065C523.283 15.6065 522.287 16.2827 521.87 17.3633H521.761V15.7273H519.31V25H521.882V19.6392ZM534.063 28.6705C536.713 28.6705 538.597 27.4631 538.597 25.0906V15.7273H536.043V17.2848H535.947C535.603 16.5302 534.848 15.6065 533.297 15.6065C531.262 15.6065 529.542 17.1882 529.542 20.3455C529.542 23.4304 531.214 24.8672 533.303 24.8672C534.782 24.8672 535.609 24.1246 535.947 23.358H536.055V25.0543C536.055 26.3281 535.24 26.8232 534.124 26.8232C532.989 26.8232 532.415 26.3281 532.204 25.7667L529.825 26.0866C530.133 27.5476 531.564 28.6705 534.063 28.6705ZM534.118 22.9354C532.856 22.9354 532.168 21.9332 532.168 20.3335C532.168 18.7578 532.844 17.6531 534.118 17.6531C535.367 17.6531 536.067 18.7095 536.067 20.3335C536.067 21.9695 535.355 22.9354 534.118 22.9354ZM383.332 50.1751C384.702 50.1751 385.589 49.5774 386.042 48.7141H386.115V50H388.554V43.7457C388.554 41.5362 386.682 40.6065 384.617 40.6065C382.396 40.6065 380.935 41.669 380.579 43.3594L382.957 43.5526C383.132 42.9368 383.682 42.484 384.605 42.484C385.481 42.484 385.982 42.9247 385.982 43.6854V43.7216C385.982 44.3192 385.348 44.3977 383.736 44.5547C381.901 44.7237 380.253 45.3395 380.253 47.4102C380.253 49.2454 381.563 50.1751 383.332 50.1751ZM384.068 48.4002C383.277 48.4002 382.71 48.032 382.71 47.3256C382.71 46.6012 383.307 46.245 384.213 46.1183C384.774 46.0398 385.692 45.907 386 45.7017V46.6857C386 47.6577 385.197 48.4002 384.068 48.4002ZM393.12 44.6392C393.127 43.4439 393.839 42.7436 394.877 42.7436C395.91 42.7436 396.531 43.4197 396.525 44.5547V50H399.097V44.0959C399.097 41.9347 397.829 40.6065 395.897 40.6065C394.521 40.6065 393.525 41.2827 393.108 42.3633H393V40.7273H390.549V50H393.12V44.6392ZM404.541 50.1509C406.038 50.1509 406.817 49.2876 407.173 48.5149H407.282V50H409.817V37.6364H407.251V42.2848H407.173C406.829 41.5302 406.086 40.6065 404.535 40.6065C402.5 40.6065 400.78 42.1882 400.78 45.3757C400.78 48.4787 402.428 50.1509 404.541 50.1509ZM405.356 48.1044C404.094 48.1044 403.406 46.9815 403.406 45.3636C403.406 43.7578 404.082 42.6531 405.356 42.6531C406.605 42.6531 407.306 43.7095 407.306 45.3636C407.306 47.0178 406.593 48.1044 405.356 48.1044ZM415.914 50H421.197C423.974 50 425.453 48.5511 425.453 46.5831C425.453 44.7539 424.143 43.6491 422.736 43.5827V43.462C424.022 43.1722 424.97 42.2607 424.97 40.8058C424.97 38.9524 423.593 37.6364 420.865 37.6364H415.914V50ZM418.528 47.8629V44.5788H420.72C421.975 44.5788 422.754 45.3033 422.754 46.3235C422.754 47.2532 422.12 47.8629 420.659 47.8629H418.528ZM418.528 42.81V39.7493H420.515C421.674 39.7493 422.332 40.3469 422.332 41.2404C422.332 42.2184 421.535 42.81 420.466 42.81H418.528ZM427.105 50H429.677V40.7273H427.105V50ZM428.397 39.532C429.164 39.532 429.792 38.9464 429.792 38.228C429.792 37.5156 429.164 36.93 428.397 36.93C427.637 36.93 427.009 37.5156 427.009 38.228C427.009 38.9464 427.637 39.532 428.397 39.532ZM434.381 50.1751C435.752 50.1751 436.639 49.5774 437.092 48.7141H437.164V50H439.603V43.7457C439.603 41.5362 437.732 40.6065 435.667 40.6065C433.446 40.6065 431.985 41.669 431.629 43.3594L434.007 43.5526C434.182 42.9368 434.732 42.484 435.655 42.484C436.531 42.484 437.032 42.9247 437.032 43.6854V43.7216C437.032 44.3192 436.398 44.3977 434.786 44.5547C432.951 44.7237 431.303 45.3395 431.303 47.4102C431.303 49.2454 432.613 50.1751 434.381 50.1751ZM435.118 48.4002C434.327 48.4002 433.76 48.032 433.76 47.3256C433.76 46.6012 434.357 46.245 435.263 46.1183C435.824 46.0398 436.742 45.907 437.05 45.7017V46.6857C437.05 47.6577 436.247 48.4002 435.118 48.4002ZM449.314 43.3714C449.084 41.663 447.708 40.6065 445.366 40.6065C442.993 40.6065 441.43 41.7053 441.436 43.4922C441.43 44.8807 442.305 45.7802 444.116 46.1424L445.722 46.4624C446.531 46.6254 446.899 46.9212 446.911 47.386C446.899 47.9354 446.301 48.3278 445.402 48.3278C444.484 48.3278 443.874 47.9354 443.718 47.1808L441.188 47.3136C441.43 49.0884 442.939 50.1811 445.396 50.1811C447.798 50.1811 449.519 48.9556 449.525 47.1264C449.519 45.7862 448.644 44.9833 446.845 44.6151L445.166 44.277C444.303 44.0898 443.983 43.794 443.989 43.3473C443.983 42.7919 444.611 42.4297 445.408 42.4297C446.301 42.4297 446.833 42.9187 446.959 43.5163L449.314 43.3714ZM455.127 37.6364V50H457.663V41.9226H457.765L460.965 49.9396H462.692L465.891 41.9528H465.994V50H468.529V37.6364H465.306L461.901 45.9432H461.756L458.351 37.6364H455.127ZM470.635 50H473.206V40.7273H470.635V50ZM471.927 39.532C472.693 39.532 473.321 38.9464 473.321 38.228C473.321 37.5156 472.693 36.93 471.927 36.93C471.166 36.93 470.538 37.5156 470.538 38.228C470.538 38.9464 471.166 39.532 471.927 39.532ZM480.199 40.7273H478.454V38.5057H475.882V40.7273H474.615V42.6591H475.882V47.4886C475.87 49.3058 477.108 50.2053 478.973 50.1268C479.637 50.1026 480.108 49.9698 480.368 49.8853L479.963 47.9716C479.836 47.9957 479.565 48.0561 479.323 48.0561C478.81 48.0561 478.454 47.8629 478.454 47.1506V42.6591H480.199V40.7273ZM481.874 50H484.446V40.7273H481.874V50ZM483.166 39.532C483.933 39.532 484.56 38.9464 484.56 38.228C484.56 37.5156 483.933 36.93 483.166 36.93C482.405 36.93 481.777 37.5156 481.777 38.228C481.777 38.9464 482.405 39.532 483.166 39.532ZM490.683 53.6705C493.334 53.6705 495.217 52.4631 495.217 50.0906V40.7273H492.663V42.2848H492.567C492.223 41.5302 491.468 40.6065 489.917 40.6065C487.882 40.6065 486.162 42.1882 486.162 45.3455C486.162 48.4304 487.834 49.8672 489.923 49.8672C491.402 49.8672 492.229 49.1246 492.567 48.358H492.676V50.0543C492.676 51.3281 491.861 51.8232 490.744 51.8232C489.609 51.8232 489.035 51.3281 488.824 50.7667L486.445 51.0866C486.753 52.5476 488.184 53.6705 490.683 53.6705ZM490.738 47.9354C489.476 47.9354 488.788 46.9332 488.788 45.3335C488.788 43.7578 489.464 42.6531 490.738 42.6531C491.987 42.6531 492.688 43.7095 492.688 45.3335C492.688 46.9695 491.975 47.9354 490.738 47.9354ZM499.908 50.1751C501.278 50.1751 502.166 49.5774 502.618 48.7141H502.691V50H505.13V43.7457C505.13 41.5362 503.258 40.6065 501.194 40.6065C498.972 40.6065 497.511 41.669 497.155 43.3594L499.533 43.5526C499.709 42.9368 500.258 42.484 501.182 42.484C502.057 42.484 502.558 42.9247 502.558 43.6854V43.7216C502.558 44.3192 501.924 44.3977 500.312 44.5547C498.477 44.7237 496.829 45.3395 496.829 47.4102C496.829 49.2454 498.139 50.1751 499.908 50.1751ZM500.644 48.4002C499.853 48.4002 499.286 48.032 499.286 47.3256C499.286 46.6012 499.884 46.245 500.789 46.1183C501.351 46.0398 502.268 45.907 502.576 45.7017V46.6857C502.576 47.6577 501.773 48.4002 500.644 48.4002ZM512.057 40.7273H510.312V38.5057H507.741V40.7273H506.473V42.6591H507.741V47.4886C507.729 49.3058 508.966 50.2053 510.832 50.1268C511.496 50.1026 511.967 49.9698 512.226 49.8853L511.822 47.9716C511.695 47.9957 511.423 48.0561 511.182 48.0561C510.669 48.0561 510.312 47.8629 510.312 47.1506V42.6591H512.057V40.7273ZM513.732 50H516.304V40.7273H513.732V50ZM515.024 39.532C515.791 39.532 516.419 38.9464 516.419 38.228C516.419 37.5156 515.791 36.93 515.024 36.93C514.264 36.93 513.636 37.5156 513.636 38.228C513.636 38.9464 514.264 39.532 515.024 39.532ZM522.554 50.1811C525.367 50.1811 527.118 48.2553 527.118 45.3999C527.118 42.5263 525.367 40.6065 522.554 40.6065C519.741 40.6065 517.99 42.5263 517.99 45.3999C517.99 48.2553 519.741 50.1811 522.554 50.1811ZM522.566 48.1889C521.268 48.1889 520.604 46.9996 520.604 45.3817C520.604 43.7638 521.268 42.5685 522.566 42.5685C523.84 42.5685 524.504 43.7638 524.504 45.3817C524.504 46.9996 523.84 48.1889 522.566 48.1889ZM531.362 44.6392C531.368 43.4439 532.08 42.7436 533.118 42.7436C534.151 42.7436 534.773 43.4197 534.767 44.5547V50H537.338V44.0959C537.338 41.9347 536.07 40.6065 534.139 40.6065C532.762 40.6065 531.766 41.2827 531.35 42.3633H531.241V40.7273H528.79V50H531.362V44.6392Z" fill="#FF7D34"/>
<path d="M365 32L355 26.2265V37.7735L365 32ZM334 33H356V31H334V33Z" fill="#FF7D34"/>
<path fill-rule="evenodd" clip-rule="evenodd" d="M26 31C26 31.0009 26 31.0052 26.0031 31.0153C26.0064 31.0264 26.0148 31.0485 26.0351 31.0814C26.0775 31.1506 26.1641 31.2545 26.3262 31.3823C26.6564 31.6425 27.1962 31.9206 27.9523 32.1726C29.454 32.6732 31.5923 33 34 33C36.4077 33 38.546 32.6732 40.0477 32.1726C40.8038 31.9206 41.3436 31.6425 41.6738 31.3823C41.8359 31.2545 41.9225 31.1506 41.9649 31.0814C41.9852 31.0485 41.9935 31.0264 41.9969 31.0153C42 31.0052 42 31.001 42 31.0001C42 30.9993 42.0001 30.9951 41.9969 30.9847C41.9935 30.9736 41.9852 30.9515 41.9649 30.9186C41.9225 30.8494 41.8359 30.7455 41.6738 30.6177C41.3436 30.3575 40.8038 30.0794 40.0477 29.8274C38.546 29.3268 36.4077 29 34 29C31.5923 29 29.454 29.3268 27.9523 29.8274C27.1962 30.0794 26.6564 30.3575 26.3262 30.6177C26.1641 30.7455 26.0775 30.8494 26.0351 30.9186C26.0148 30.9515 26.0064 30.9736 26.0031 30.9847C26 30.9948 26 30.9991 26 31ZM27.3198 27.93C29.0754 27.3448 31.4371 27 34 27C36.5629 27 38.9246 27.3448 40.6802 27.93C41.5528 28.2209 42.331 28.5892 42.9117 29.0469C43.4811 29.4956 44 30.1481 44 31C44 31.8519 43.4811 32.5044 42.9117 32.9531C42.331 33.4108 41.5528 33.7791 40.6802 34.07C38.9246 34.6552 36.5629 35 34 35C31.4371 35 29.0754 34.6552 27.3198 34.07C26.4472 33.7791 25.669 33.4108 25.0883 32.9531C24.5189 32.5044 24 31.8519 24 31C24 30.1481 24.5189 29.4956 25.0883 29.0469C25.669 28.5892 26.4472 28.2209 27.3198 27.93Z" fill="#AA0B29"/>
<path fill-rule="evenodd" clip-rule="evenodd" d="M25 37C25.5523 37 26 37.4477 26 38C26 38.0019 26.0001 38.007 26.0034 38.018C26.0069 38.0298 26.0154 38.0521 26.0356 38.0851C26.0777 38.1543 26.1635 38.258 26.3242 38.3853C26.6516 38.6447 27.1879 38.9223 27.9417 39.174C29.4389 39.6738 31.5768 40 34 40C36.4232 40 38.5611 39.6738 40.0583 39.174C40.8121 38.9223 41.3484 38.6447 41.6758 38.3853C41.8365 38.258 41.9223 38.1543 41.9644 38.0851C41.9846 38.0521 41.993 38.0298 41.9966 38.018C41.9999 38.007 42 38.0019 42 38C42 37.4477 42.4477 37 43 37C43.5523 37 44 37.4477 44 38C44 38.8494 43.4868 39.502 42.9179 39.9528C42.3391 40.4115 41.5629 40.7802 40.6917 41.071C38.9389 41.6562 36.5768 42 34 42C31.4232 42 29.0611 41.6562 27.3083 41.071C26.4371 40.7802 25.6609 40.4115 25.0821 39.9528C24.5132 39.502 24 38.8494 24 38C24 37.4477 24.4477 37 25 37Z" fill="#AA0B29"/>
<path fill-rule="evenodd" clip-rule="evenodd" d="M25 30C25.5523 30 26 30.4477 26 31V45C26 45.0019 26.0001 45.007 26.0034 45.018C26.0069 45.0298 26.0154 45.0521 26.0356 45.0851C26.0777 45.1543 26.1635 45.258 26.3242 45.3853C26.6516 45.6447 27.1879 45.9223 27.9417 46.174C29.4389 46.6738 31.5768 47 34 47C36.4232 47 38.5611 46.6738 40.0583 46.174C40.8121 45.9223 41.3484 45.6447 41.6758 45.3853C41.8365 45.258 41.9223 45.1543 41.9644 45.0851C41.9846 45.0521 41.993 45.0298 41.9966 45.018C41.9999 45.007 42 45.0019 42 45V31.0001C42 30.4478 42.4477 30 43 30C43.5523 30 44 30.4477 44 31V45C44 45.8494 43.4868 46.502 42.9179 46.9528C42.3391 47.4115 41.5629 47.7802 40.6917 48.071C38.9389 48.6562 36.5768 49 34 49C31.4232 49 29.0611 48.6562 27.3083 48.071C26.4371 47.7802 25.6609 47.4115 25.0821 46.9528C24.5132 46.502 24 45.8494 24 45V31C24 30.4477 24.4477 30 25 30Z" fill="#AA0B29"/>
<rect x="18" y="25" width="33" height="13" fill="#FFB7D5"/>
<path fill-rule="evenodd" clip-rule="evenodd" d="M26 24C26 24.0009 26 24.0052 26.0031 24.0153C26.0064 24.0264 26.0148 24.0485 26.0351 24.0814C26.0775 24.1506 26.1641 24.2545 26.3262 24.3823C26.6564 24.6425 27.1962 24.9206 27.9523 25.1726C29.454 25.6732 31.5923 26 34 26C36.4077 26 38.546 25.6732 40.0477 25.1726C40.8038 24.9206 41.3436 24.6425 41.6738 24.3823C41.8359 24.2545 41.9225 24.1506 41.9649 24.0814C41.9852 24.0485 41.9935 24.0264 41.9969 24.0153C42 24.0052 42 24.001 42 24.0001C42 23.9993 42.0001 23.9951 41.9969 23.9847C41.9935 23.9736 41.9852 23.9515 41.9649 23.9186C41.9225 23.8494 41.8359 23.7455 41.6738 23.6177C41.3436 23.3575 40.8038 23.0794 40.0477 22.8274C38.546 22.3268 36.4077 22 34 22C31.5923 22 29.454 22.3268 27.9523 22.8274C27.1962 23.0794 26.6564 23.3575 26.3262 23.6177C26.1641 23.7455 26.0775 23.8494 26.0351 23.9186C26.0148 23.9515 26.0064 23.9736 26.0031 23.9847C26 23.9948 26 23.9991 26 24ZM27.3198 20.93C29.0754 20.3448 31.4371 20 34 20C36.5629 20 38.9246 20.3448 40.6802 20.93C41.5528 21.2209 42.331 21.5892 42.9117 22.0469C43.4811 22.4956 44 23.1481 44 24C44 24.8519 43.4811 25.5044 42.9117 25.9531C42.331 26.4108 41.5528 26.7791 40.6802 27.07C38.9246 27.6552 36.5629 28 34 28C31.4371 28 29.0754 27.6552 27.3198 27.07C26.4472 26.7791 25.669 26.4108 25.0883 25.9531C24.5189 25.5044 24 24.8519 24 24C24 23.1481 24.5189 22.4956 25.0883 22.0469C25.669 21.5892 26.4472 21.2209 27.3198 20.93Z" fill="#AA0B29"/>
<path fill-rule="evenodd" clip-rule="evenodd" d="M25 30C25.5523 30 26 30.4477 26 31C26 31.0019 26.0001 31.007 26.0034 31.018C26.0069 31.0298 26.0154 31.0521 26.0356 31.0851C26.0777 31.1543 26.1635 31.258 26.3242 31.3853C26.6516 31.6447 27.1879 31.9223 27.9417 32.174C29.4389 32.6738 31.5768 33 34 33C36.4232 33 38.5611 32.6738 40.0583 32.174C40.8121 31.9223 41.3484 31.6447 41.6758 31.3853C41.8365 31.258 41.9223 31.1543 41.9644 31.0851C41.9846 31.0521 41.993 31.0298 41.9966 31.018C41.9999 31.007 42 31.0019 42 31C42 30.4477 42.4477 30 43 30C43.5523 30 44 30.4477 44 31C44 31.8494 43.4868 32.502 42.9179 32.9528C42.3391 33.4115 41.5629 33.7802 40.6917 34.071C38.9389 34.6562 36.5768 35 34 35C31.4232 35 29.0611 34.6562 27.3083 34.071C26.4371 33.7802 25.6609 33.4115 25.0821 32.9528C24.5132 32.502 24 31.8494 24 31C24 30.4477 24.4477 30 25 30Z" fill="#AA0B29"/>
<path fill-rule="evenodd" clip-rule="evenodd" d="M25 23C25.5523 23 26 23.4477 26 24V38C26 38.0019 26.0001 38.007 26.0034 38.018C26.0069 38.0298 26.0154 38.0521 26.0356 38.0851C26.0777 38.1543 26.1635 38.258 26.3242 38.3853C26.6516 38.6447 27.1879 38.9223 27.9417 39.174C29.4389 39.6738 31.5768 40 34 40C36.4232 40 38.5611 39.6738 40.0583 39.174C40.8121 38.9223 41.3484 38.6447 41.6758 38.3853C41.8365 38.258 41.9223 38.1543 41.9644 38.0851C41.9846 38.0521 41.993 38.0298 41.9966 38.018C41.9999 38.007 42 38.0019 42 38V24.0001C42 23.4478 42.4477 23 43 23C43.5523 23 44 23.4477 44 24V38C44 38.8494 43.4868 39.502 42.9179 39.9528C42.3391 40.4115 41.5629 40.7802 40.6917 41.071C38.9389 41.6562 36.5768 42 34 42C31.4232 42 29.0611 41.6562 27.3083 41.071C26.4371 40.7802 25.6609 40.4115 25.0821 39.9528C24.5132 39.502 24 38.8494 24 38V24C24 23.4477 24.4477 23 25 23Z" fill="#AA0B29"/>
</svg>
