<svg width="321" height="112" viewBox="0 0 321 112" fill="none" xmlns="http://www.w3.org/2000/svg">
<rect y="42" width="321" height="70" fill="#FFB7D5"/>
<path d="M140.132 83H145.414C148.191 83 149.67 81.5511 149.67 79.5831C149.67 77.7539 148.36 76.6491 146.953 76.5827V76.462C148.239 76.1722 149.187 75.2607 149.187 73.8058C149.187 71.9524 147.811 70.6364 145.082 70.6364H140.132V83ZM142.746 80.8629V77.5788H144.937C146.193 77.5788 146.972 78.3033 146.972 79.3235C146.972 80.2532 146.338 80.8629 144.877 80.8629H142.746ZM142.746 75.81V72.7493H144.732C145.891 72.7493 146.549 73.3469 146.549 74.2404C146.549 75.2184 145.752 75.81 144.684 75.81H142.746ZM157.269 79.0518C157.275 80.2955 156.424 80.9474 155.5 80.9474C154.528 80.9474 153.9 80.2653 153.894 79.1726V73.7273H151.323V79.6314C151.329 81.7987 152.596 83.1207 154.462 83.1207C155.856 83.1207 156.859 82.4023 157.275 81.3157H157.372V83H159.841V73.7273H157.269V79.0518ZM161.898 83H164.47V73.7273H161.898V83ZM163.19 72.532C163.956 72.532 164.584 71.9464 164.584 71.228C164.584 70.5156 163.956 69.93 163.19 69.93C162.429 69.93 161.801 70.5156 161.801 71.228C161.801 71.9464 162.429 72.532 163.19 72.532ZM169.101 70.6364H166.53V83H169.101V70.6364ZM174.578 83.1509C176.076 83.1509 176.854 82.2876 177.211 81.5149H177.319V83H179.855V70.6364H177.289V75.2848H177.211C176.866 74.5302 176.124 73.6065 174.572 73.6065C172.538 73.6065 170.817 75.1882 170.817 78.3757C170.817 81.4787 172.466 83.1509 174.578 83.1509ZM175.393 81.1044C174.132 81.1044 173.443 79.9815 173.443 78.3636C173.443 76.7578 174.12 75.6531 175.393 75.6531C176.643 75.6531 177.343 76.7095 177.343 78.3636C177.343 80.0178 176.631 81.1044 175.393 81.1044Z" fill="#AA0B29"/>
<path d="M160 30L165.774 20L154.226 20L160 30ZM159 -4.37114e-08L159 21L161 21L161 4.37114e-08L159 -4.37114e-08Z" fill="#A72626"/>
<path fill-rule="evenodd" clip-rule="evenodd" d="M30 70C29.7348 70 29.4804 70.1054 29.2929 70.2929C29.1054 70.4804 29 70.7348 29 71V85C29 85.2652 29.1054 85.5196 29.2929 85.7071C29.4804 85.8946 29.7348 86 30 86H44C44.2652 86 44.5196 85.8946 44.7071 85.7071C44.8946 85.5196 45 85.2652 45 85V79.66C45 79.1077 45.4477 78.66 46 78.66C46.5523 78.66 47 79.1077 47 79.66V85C47 85.7957 46.6839 86.5587 46.1213 87.1213C45.5587 87.6839 44.7957 88 44 88H30C29.2043 88 28.4413 87.6839 27.8787 87.1213C27.3161 86.5587 27 85.7957 27 85V71C27 70.2044 27.3161 69.4413 27.8787 68.8787C28.4413 68.3161 29.2044 68 30 68H35.34C35.8923 68 36.34 68.4477 36.34 69C36.34 69.5523 35.8923 70 35.34 70H30Z" fill="#AA0B29"/>
<path fill-rule="evenodd" clip-rule="evenodd" d="M43.2929 66.2929C43.6834 65.9024 44.3166 65.9024 44.7071 66.2929L48.7071 70.2929C49.0976 70.6834 49.0976 71.3166 48.7071 71.7071L38.7071 81.7071C38.5196 81.8946 38.2652 82 38 82H34C33.4477 82 33 81.5523 33 81V77C33 76.7348 33.1054 76.4804 33.2929 76.2929L43.2929 66.2929ZM35 77.4142V80H37.5858L46.5858 71L44 68.4142L35 77.4142Z" fill="#AA0B29"/>
</svg>
