<svg width="535" height="236" viewBox="0 0 535 236" fill="none" xmlns="http://www.w3.org/2000/svg">
<path d="M160 30L165.774 20L154.226 20L160 30ZM159 -4.37114e-08L159 21L161 21L161 4.37114e-08L159 -4.37114e-08Z" fill="#A72626"/>
<path d="M361.516 118.636V131H364.051V122.923H364.154L367.354 130.94H369.08L372.28 122.953H372.382V131H374.918V118.636H371.694L368.289 126.943H368.145L364.74 118.636H361.516ZM381.213 131.181C384.026 131.181 385.777 129.255 385.777 126.4C385.777 123.526 384.026 121.607 381.213 121.607C378.4 121.607 376.649 123.526 376.649 126.4C376.649 129.255 378.4 131.181 381.213 131.181ZM381.225 129.189C379.927 129.189 379.263 128 379.263 126.382C379.263 124.764 379.927 123.569 381.225 123.569C382.499 123.569 383.163 124.764 383.163 126.382C383.163 128 382.499 129.189 381.225 129.189ZM390.866 131.151C392.363 131.151 393.142 130.288 393.498 129.515H393.607V131H396.142V118.636H393.577V123.285H393.498C393.154 122.53 392.411 121.607 390.86 121.607C388.826 121.607 387.105 123.188 387.105 126.376C387.105 129.479 388.753 131.151 390.866 131.151ZM391.681 129.104C390.419 129.104 389.731 127.982 389.731 126.364C389.731 124.758 390.407 123.653 391.681 123.653C392.931 123.653 393.631 124.71 393.631 126.364C393.631 128.018 392.919 129.104 391.681 129.104ZM402.483 131.181C404.777 131.181 406.322 130.064 406.684 128.344L404.306 128.187C404.046 128.893 403.382 129.261 402.525 129.261C401.239 129.261 400.424 128.41 400.424 127.028V127.022H406.739V126.315C406.739 123.164 404.831 121.607 402.38 121.607C399.651 121.607 397.882 123.544 397.882 126.406C397.882 129.346 399.627 131.181 402.483 131.181ZM400.424 125.428C400.478 124.371 401.281 123.526 402.422 123.526C403.539 123.526 404.312 124.323 404.318 125.428H400.424ZM410.989 118.636H408.417V131H410.989V118.636ZM417.032 131H422.314C425.091 131 426.57 129.551 426.57 127.583C426.57 125.754 425.26 124.649 423.853 124.583V124.462C425.139 124.172 426.087 123.261 426.087 121.806C426.087 119.952 424.711 118.636 421.982 118.636H417.032V131ZM419.646 128.863V125.579H421.837C423.093 125.579 423.871 126.303 423.871 127.324C423.871 128.253 423.238 128.863 421.777 128.863H419.646ZM419.646 123.81V120.749H421.632C422.791 120.749 423.449 121.347 423.449 122.24C423.449 123.218 422.652 123.81 421.583 123.81H419.646ZM428.223 131H430.794V121.727H428.223V131ZM429.514 120.532C430.281 120.532 430.909 119.946 430.909 119.228C430.909 118.516 430.281 117.93 429.514 117.93C428.754 117.93 428.126 118.516 428.126 119.228C428.126 119.946 428.754 120.532 429.514 120.532ZM435.499 131.175C436.869 131.175 437.756 130.577 438.209 129.714H438.282V131H440.721V124.746C440.721 122.536 438.849 121.607 436.784 121.607C434.563 121.607 433.102 122.669 432.746 124.359L435.124 124.553C435.299 123.937 435.849 123.484 436.772 123.484C437.648 123.484 438.149 123.925 438.149 124.685V124.722C438.149 125.319 437.515 125.398 435.903 125.555C434.068 125.724 432.42 126.339 432.42 128.41C432.42 130.245 433.73 131.175 435.499 131.175ZM436.235 129.4C435.444 129.4 434.877 129.032 434.877 128.326C434.877 127.601 435.474 127.245 436.38 127.118C436.941 127.04 437.859 126.907 438.167 126.702V127.686C438.167 128.658 437.364 129.4 436.235 129.4ZM450.431 124.371C450.202 122.663 448.825 121.607 446.483 121.607C444.11 121.607 442.547 122.705 442.553 124.492C442.547 125.881 443.422 126.78 445.233 127.142L446.839 127.462C447.648 127.625 448.016 127.921 448.028 128.386C448.016 128.935 447.419 129.328 446.519 129.328C445.601 129.328 444.992 128.935 444.835 128.181L442.305 128.314C442.547 130.088 444.056 131.181 446.513 131.181C448.916 131.181 450.636 129.956 450.642 128.126C450.636 126.786 449.761 125.983 447.962 125.615L446.284 125.277C445.42 125.09 445.1 124.794 445.106 124.347C445.1 123.792 445.728 123.43 446.525 123.43C447.419 123.43 447.95 123.919 448.077 124.516L450.431 124.371ZM467.153 122.965C466.809 120.109 464.648 118.467 461.786 118.467C458.52 118.467 456.027 120.773 456.027 124.818C456.027 128.851 458.478 131.169 461.786 131.169C464.956 131.169 466.869 129.062 467.153 126.786L464.509 126.774C464.262 128.096 463.223 128.857 461.829 128.857C459.951 128.857 458.677 127.462 458.677 124.818C458.677 122.246 459.933 120.779 461.847 120.779C463.278 120.779 464.31 121.607 464.509 122.965H467.153ZM471.551 125.639C471.557 124.444 472.288 123.744 473.338 123.744C474.382 123.744 474.998 124.414 474.992 125.555V131H477.564V125.096C477.57 122.923 476.29 121.607 474.358 121.607C472.952 121.607 472.01 122.271 471.587 123.363H471.479V118.636H468.979V131H471.551V125.639ZM483.814 131.181C486.108 131.181 487.653 130.064 488.015 128.344L485.637 128.187C485.377 128.893 484.713 129.261 483.856 129.261C482.57 129.261 481.755 128.41 481.755 127.028V127.022H488.07V126.315C488.07 123.164 486.162 121.607 483.711 121.607C480.982 121.607 479.214 123.544 479.214 126.406C479.214 129.346 480.958 131.181 483.814 131.181ZM481.755 125.428C481.809 124.371 482.612 123.526 483.753 123.526C484.87 123.526 485.643 124.323 485.649 125.428H481.755ZM493.938 131.181C496.407 131.181 497.958 129.732 498.079 127.601H495.652C495.501 128.591 494.849 129.147 493.968 129.147C492.766 129.147 491.988 128.138 491.988 126.364C491.988 124.613 492.772 123.611 493.968 123.611C494.91 123.611 495.513 124.233 495.652 125.156H498.079C497.97 123.013 496.346 121.607 493.926 121.607C491.112 121.607 489.374 123.556 489.374 126.4C489.374 129.219 491.082 131.181 493.938 131.181ZM499.725 131H502.297V128.054L502.991 127.263L505.521 131H508.533L504.917 125.742L508.358 121.727H505.406L502.436 125.247H502.297V118.636H499.725V131ZM509.62 131H512.192V121.727H509.62V131ZM510.912 120.532C511.679 120.532 512.306 119.946 512.306 119.228C512.306 118.516 511.679 117.93 510.912 117.93C510.151 117.93 509.523 118.516 509.523 119.228C509.523 119.946 510.151 120.532 510.912 120.532ZM516.824 125.639C516.83 124.444 517.542 123.744 518.58 123.744C519.613 123.744 520.234 124.42 520.228 125.555V131H522.8V125.096C522.8 122.935 521.532 121.607 519.601 121.607C518.224 121.607 517.228 122.283 516.812 123.363H516.703V121.727H514.252V131H516.824V125.639ZM529.005 134.67C531.655 134.67 533.538 133.463 533.538 131.091V121.727H530.985V123.285H530.888C530.544 122.53 529.789 121.607 528.238 121.607C526.203 121.607 524.483 123.188 524.483 126.346C524.483 129.43 526.155 130.867 528.244 130.867C529.723 130.867 530.55 130.125 530.888 129.358H530.997V131.054C530.997 132.328 530.182 132.823 529.065 132.823C527.93 132.823 527.357 132.328 527.145 131.767L524.767 132.087C525.075 133.548 526.505 134.67 529.005 134.67ZM529.059 128.935C527.797 128.935 527.109 127.933 527.109 126.333C527.109 124.758 527.785 123.653 529.059 123.653C530.309 123.653 531.009 124.71 531.009 126.333C531.009 127.969 530.297 128.935 529.059 128.935ZM371.832 156.175C373.202 156.175 374.089 155.577 374.542 154.714H374.615V156H377.054V149.746C377.054 147.536 375.182 146.607 373.117 146.607C370.896 146.607 369.435 147.669 369.079 149.359L371.457 149.553C371.632 148.937 372.182 148.484 373.105 148.484C373.981 148.484 374.482 148.925 374.482 149.685V149.722C374.482 150.319 373.848 150.398 372.236 150.555C370.401 150.724 368.753 151.339 368.753 153.41C368.753 155.245 370.063 156.175 371.832 156.175ZM372.568 154.4C371.777 154.4 371.21 154.032 371.21 153.326C371.21 152.601 371.807 152.245 372.713 152.118C373.274 152.04 374.192 151.907 374.5 151.702V152.686C374.5 153.658 373.697 154.4 372.568 154.4ZM381.62 150.639C381.627 149.444 382.339 148.744 383.377 148.744C384.41 148.744 385.031 149.42 385.025 150.555V156H387.597V150.096C387.597 147.935 386.329 146.607 384.397 146.607C383.021 146.607 382.025 147.283 381.608 148.363H381.5V146.727H379.049V156H381.62V150.639ZM393.041 156.151C394.538 156.151 395.317 155.288 395.673 154.515H395.782V156H398.317V143.636H395.751V148.285H395.673C395.329 147.53 394.586 146.607 393.035 146.607C391 146.607 389.28 148.188 389.28 151.376C389.28 154.479 390.928 156.151 393.041 156.151ZM393.856 154.104C392.594 154.104 391.906 152.982 391.906 151.364C391.906 149.758 392.582 148.653 393.856 148.653C395.105 148.653 395.806 149.71 395.806 151.364C395.806 153.018 395.093 154.104 393.856 154.104ZM404.414 156H409.697C412.474 156 413.953 154.551 413.953 152.583C413.953 150.754 412.643 149.649 411.236 149.583V149.462C412.522 149.172 413.47 148.261 413.47 146.806C413.47 144.952 412.093 143.636 409.365 143.636H404.414V156ZM407.028 153.863V150.579H409.22C410.475 150.579 411.254 151.303 411.254 152.324C411.254 153.253 410.62 153.863 409.159 153.863H407.028ZM407.028 148.81V145.749H409.015C410.174 145.749 410.832 146.347 410.832 147.24C410.832 148.218 410.035 148.81 408.966 148.81H407.028ZM415.605 156H418.177V146.727H415.605V156ZM416.897 145.532C417.664 145.532 418.292 144.946 418.292 144.228C418.292 143.516 417.664 142.93 416.897 142.93C416.137 142.93 415.509 143.516 415.509 144.228C415.509 144.946 416.137 145.532 416.897 145.532ZM422.881 156.175C424.252 156.175 425.139 155.577 425.592 154.714H425.664V156H428.103V149.746C428.103 147.536 426.232 146.607 424.167 146.607C421.946 146.607 420.485 147.669 420.129 149.359L422.507 149.553C422.682 148.937 423.232 148.484 424.155 148.484C425.031 148.484 425.532 148.925 425.532 149.685V149.722C425.532 150.319 424.898 150.398 423.286 150.555C421.451 150.724 419.803 151.339 419.803 153.41C419.803 155.245 421.113 156.175 422.881 156.175ZM423.618 154.4C422.827 154.4 422.26 154.032 422.26 153.326C422.26 152.601 422.857 152.245 423.763 152.118C424.324 152.04 425.242 151.907 425.55 151.702V152.686C425.55 153.658 424.747 154.4 423.618 154.4ZM437.814 149.371C437.584 147.663 436.208 146.607 433.866 146.607C431.493 146.607 429.93 147.705 429.936 149.492C429.93 150.881 430.805 151.78 432.616 152.142L434.222 152.462C435.031 152.625 435.399 152.921 435.411 153.386C435.399 153.935 434.801 154.328 433.902 154.328C432.984 154.328 432.374 153.935 432.218 153.181L429.688 153.314C429.93 155.088 431.439 156.181 433.896 156.181C436.298 156.181 438.019 154.956 438.025 153.126C438.019 151.786 437.144 150.983 435.345 150.615L433.666 150.277C432.803 150.09 432.483 149.794 432.489 149.347C432.483 148.792 433.111 148.43 433.908 148.43C434.801 148.43 435.333 148.919 435.459 149.516L437.814 149.371ZM443.627 143.636V156H446.163V147.923H446.265L449.465 155.94H451.192L454.391 147.953H454.494V156H457.029V143.636H453.806L450.401 151.943H450.256L446.851 143.636H443.627ZM459.135 156H461.706V146.727H459.135V156ZM460.427 145.532C461.193 145.532 461.821 144.946 461.821 144.228C461.821 143.516 461.193 142.93 460.427 142.93C459.666 142.93 459.038 143.516 459.038 144.228C459.038 144.946 459.666 145.532 460.427 145.532ZM467.944 159.67C470.594 159.67 472.478 158.463 472.478 156.091V146.727H469.924V148.285H469.828C469.483 147.53 468.729 146.607 467.177 146.607C465.143 146.607 463.422 148.188 463.422 151.346C463.422 154.43 465.095 155.867 467.183 155.867C468.662 155.867 469.49 155.125 469.828 154.358H469.936V156.054C469.936 157.328 469.121 157.823 468.004 157.823C466.869 157.823 466.296 157.328 466.085 156.767L463.706 157.087C464.014 158.548 465.445 159.67 467.944 159.67ZM467.998 153.935C466.737 153.935 466.048 152.933 466.048 151.333C466.048 149.758 466.725 148.653 467.998 148.653C469.248 148.653 469.948 149.71 469.948 151.333C469.948 152.969 469.236 153.935 467.998 153.935ZM474.524 156H477.096V146.727H474.524V156ZM475.816 145.532C476.583 145.532 477.211 144.946 477.211 144.228C477.211 143.516 476.583 142.93 475.816 142.93C475.056 142.93 474.428 143.516 474.428 144.228C474.428 144.946 475.056 145.532 475.816 145.532ZM484.088 146.727H482.344V144.506H479.772V146.727H478.504V148.659H479.772V153.489C479.76 155.306 480.997 156.205 482.863 156.127C483.527 156.103 483.998 155.97 484.257 155.885L483.853 153.972C483.726 153.996 483.454 154.056 483.213 154.056C482.7 154.056 482.344 153.863 482.344 153.151V148.659H484.088V146.727ZM488.408 156.175C489.778 156.175 490.666 155.577 491.118 154.714H491.191V156H493.63V149.746C493.63 147.536 491.758 146.607 489.694 146.607C487.472 146.607 486.011 147.669 485.655 149.359L488.033 149.553C488.209 148.937 488.758 148.484 489.682 148.484C490.557 148.484 491.058 148.925 491.058 149.685V149.722C491.058 150.319 490.424 150.398 488.812 150.555C486.977 150.724 485.329 151.339 485.329 153.41C485.329 155.245 486.639 156.175 488.408 156.175ZM489.144 154.4C488.353 154.4 487.786 154.032 487.786 153.326C487.786 152.601 488.384 152.245 489.289 152.118C489.851 152.04 490.768 151.907 491.076 151.702V152.686C491.076 153.658 490.273 154.4 489.144 154.4ZM500.557 146.727H498.812V144.506H496.241V146.727H494.973V148.659H496.241V153.489C496.229 155.306 497.466 156.205 499.332 156.127C499.996 156.103 500.467 155.97 500.726 155.885L500.322 153.972C500.195 153.996 499.923 154.056 499.682 154.056C499.169 154.056 498.812 153.863 498.812 153.151V148.659H500.557V146.727ZM502.232 156H504.804V146.727H502.232V156ZM503.524 145.532C504.291 145.532 504.919 144.946 504.919 144.228C504.919 143.516 504.291 142.93 503.524 142.93C502.764 142.93 502.136 143.516 502.136 144.228C502.136 144.946 502.764 145.532 503.524 145.532ZM511.054 156.181C513.867 156.181 515.618 154.255 515.618 151.4C515.618 148.526 513.867 146.607 511.054 146.607C508.241 146.607 506.49 148.526 506.49 151.4C506.49 154.255 508.241 156.181 511.054 156.181ZM511.066 154.189C509.768 154.189 509.104 153 509.104 151.382C509.104 149.764 509.768 148.569 511.066 148.569C512.34 148.569 513.004 149.764 513.004 151.382C513.004 153 512.34 154.189 511.066 154.189ZM519.862 150.639C519.868 149.444 520.58 148.744 521.618 148.744C522.651 148.744 523.273 149.42 523.267 150.555V156H525.838V150.096C525.838 147.935 524.57 146.607 522.639 146.607C521.262 146.607 520.266 147.283 519.85 148.363H519.741V146.727H517.29V156H519.862V150.639Z" fill="#FF7D34"/>
<rect y="166" width="321" height="70" fill="#FFB7D5"/>
<path d="M136.463 207C140.23 207 142.512 204.67 142.512 200.806C142.512 196.955 140.23 194.636 136.499 194.636H132.08V207H136.463ZM134.694 204.76V196.876H136.36C138.678 196.876 139.904 198.059 139.904 200.806C139.904 203.565 138.678 204.76 136.354 204.76H134.694ZM148.626 207.181C150.92 207.181 152.465 206.064 152.827 204.344L150.449 204.187C150.189 204.893 149.525 205.261 148.668 205.261C147.382 205.261 146.567 204.41 146.567 203.028V203.022H152.882V202.315C152.882 199.164 150.974 197.607 148.523 197.607C145.794 197.607 144.026 199.544 144.026 202.406C144.026 205.346 145.77 207.181 148.626 207.181ZM146.567 201.428C146.621 200.371 147.424 199.526 148.565 199.526C149.682 199.526 150.455 200.323 150.461 201.428H146.567ZM154.56 210.477H157.132V205.515H157.21C157.566 206.288 158.345 207.151 159.842 207.151C161.955 207.151 163.603 205.479 163.603 202.376C163.603 199.188 161.883 197.607 159.848 197.607C158.297 197.607 157.554 198.53 157.21 199.285H157.095V197.727H154.56V210.477ZM157.077 202.364C157.077 200.71 157.778 199.653 159.027 199.653C160.301 199.653 160.977 200.758 160.977 202.364C160.977 203.982 160.289 205.104 159.027 205.104C157.79 205.104 157.077 204.018 157.077 202.364ZM167.89 194.636H165.318V207H167.89V194.636ZM174.139 207.181C176.952 207.181 178.703 205.255 178.703 202.4C178.703 199.526 176.952 197.607 174.139 197.607C171.326 197.607 169.575 199.526 169.575 202.4C169.575 205.255 171.326 207.181 174.139 207.181ZM174.151 205.189C172.853 205.189 172.189 204 172.189 202.382C172.189 200.764 172.853 199.569 174.151 199.569C175.425 199.569 176.089 200.764 176.089 202.382C176.089 204 175.425 205.189 174.151 205.189ZM181.648 210.477C183.561 210.477 184.576 209.499 185.101 208.002L188.705 197.739L185.982 197.727L184.044 204.537H183.948L182.028 197.727H179.323L182.65 207.266L182.499 207.658C182.161 208.527 181.515 208.57 180.609 208.292L180.03 210.212C180.398 210.369 180.996 210.477 181.648 210.477Z" fill="#AA0B29"/>
<path d="M362 171L350.846 173.989L359.011 182.154L362 171ZM334.707 199.707L356.343 178.071L354.929 176.657L333.293 198.293L334.707 199.707Z" fill="#FF7D34"/>
<path d="M359 102L356.011 90.8464L347.846 99.0114L359 102ZM333.293 77.7071L351.929 96.3431L353.343 94.9289L334.707 76.2929L333.293 77.7071Z" fill="#FF7D34"/>
<path d="M160 154L165.774 144L154.226 144L160 154ZM159 124L159 145L161 145L161 124L159 124Z" fill="#A72626"/>
<rect y="42" width="321" height="70" fill="#FFB7D5"/>
<path d="M143.942 72.7915H147.727V83H150.311V72.7915H154.096V70.6364H143.942V72.7915ZM158.601 83.1811C160.895 83.1811 162.44 82.0643 162.802 80.3438L160.424 80.1868C160.164 80.8931 159.5 81.2614 158.643 81.2614C157.357 81.2614 156.542 80.4102 156.542 79.0277V79.0217H162.857V78.3153C162.857 75.1641 160.949 73.6065 158.498 73.6065C155.769 73.6065 154.001 75.5444 154.001 78.4059C154.001 81.3459 155.745 83.1811 158.601 83.1811ZM156.542 77.4279C156.597 76.3714 157.399 75.5263 158.54 75.5263C159.657 75.5263 160.43 76.3232 160.436 77.4279H156.542ZM172.25 76.3714C172.021 74.663 170.644 73.6065 168.302 73.6065C165.93 73.6065 164.366 74.7053 164.372 76.4922C164.366 77.8807 165.241 78.7802 167.052 79.1424L168.658 79.4624C169.467 79.6254 169.835 79.9212 169.848 80.386C169.835 80.9354 169.238 81.3278 168.338 81.3278C167.421 81.3278 166.811 80.9354 166.654 80.1808L164.125 80.3136C164.366 82.0884 165.875 83.1811 168.332 83.1811C170.735 83.1811 172.456 81.9556 172.462 80.1264C172.456 78.7862 171.58 77.9833 169.781 77.6151L168.103 77.277C167.24 77.0898 166.92 76.794 166.926 76.3473C166.92 75.7919 167.547 75.4297 168.344 75.4297C169.238 75.4297 169.769 75.9187 169.896 76.5163L172.25 76.3714ZM179.013 73.7273H177.268V71.5057H174.697V73.7273H173.429V75.6591H174.697V80.4886C174.685 82.3058 175.922 83.2053 177.788 83.1268C178.452 83.1026 178.923 82.9698 179.182 82.8853L178.778 80.9716C178.651 80.9957 178.379 81.0561 178.138 81.0561C177.625 81.0561 177.268 80.8629 177.268 80.1506V75.6591H179.013V73.7273Z" fill="#AA0B29"/>
<path fill-rule="evenodd" clip-rule="evenodd" d="M30 71C30 71.0009 30 71.0052 30.0031 71.0153C30.0064 71.0264 30.0148 71.0485 30.0351 71.0814C30.0775 71.1506 30.1641 71.2545 30.3262 71.3823C30.6564 71.6425 31.1962 71.9206 31.9523 72.1726C33.454 72.6732 35.5923 73 38 73C40.4077 73 42.546 72.6732 44.0477 72.1726C44.8038 71.9206 45.3436 71.6425 45.6738 71.3823C45.8359 71.2545 45.9225 71.1506 45.9649 71.0814C45.9852 71.0485 45.9935 71.0264 45.9969 71.0153C46 71.0052 46 71.001 46 71.0001C46 70.9993 46.0001 70.9951 45.9969 70.9847C45.9935 70.9736 45.9852 70.9515 45.9649 70.9186C45.9225 70.8494 45.8359 70.7455 45.6738 70.6177C45.3436 70.3575 44.8038 70.0794 44.0477 69.8274C42.546 69.3268 40.4077 69 38 69C35.5923 69 33.454 69.3268 31.9523 69.8274C31.1962 70.0794 30.6564 70.3575 30.3262 70.6177C30.1641 70.7455 30.0775 70.8494 30.0351 70.9186C30.0148 70.9515 30.0064 70.9736 30.0031 70.9847C30 70.9948 30 70.9991 30 71ZM31.3198 67.93C33.0754 67.3448 35.4371 67 38 67C40.5629 67 42.9246 67.3448 44.6802 67.93C45.5528 68.2209 46.331 68.5892 46.9117 69.0469C47.4811 69.4956 48 70.1481 48 71C48 71.8519 47.4811 72.5044 46.9117 72.9531C46.331 73.4108 45.5528 73.7791 44.6802 74.07C42.9246 74.6552 40.5629 75 38 75C35.4371 75 33.0754 74.6552 31.3198 74.07C30.4472 73.7791 29.669 73.4108 29.0883 72.9531C28.5189 72.5044 28 71.8519 28 71C28 70.1481 28.5189 69.4956 29.0883 69.0469C29.669 68.5892 30.4472 68.2209 31.3198 67.93Z" fill="#AA0B29"/>
<path fill-rule="evenodd" clip-rule="evenodd" d="M29 77C29.5523 77 30 77.4477 30 78C30 78.0019 30.0001 78.007 30.0034 78.018C30.0069 78.0298 30.0154 78.0521 30.0356 78.0851C30.0777 78.1543 30.1635 78.258 30.3242 78.3853C30.6516 78.6447 31.1879 78.9223 31.9417 79.174C33.4389 79.6738 35.5768 80 38 80C40.4232 80 42.5611 79.6738 44.0583 79.174C44.8121 78.9223 45.3484 78.6447 45.6758 78.3853C45.8365 78.258 45.9223 78.1543 45.9644 78.0851C45.9846 78.0521 45.993 78.0298 45.9966 78.018C45.9999 78.007 46 78.0019 46 78C46 77.4477 46.4477 77 47 77C47.5523 77 48 77.4477 48 78C48 78.8494 47.4868 79.502 46.9179 79.9528C46.3391 80.4115 45.5629 80.7802 44.6917 81.071C42.9389 81.6562 40.5768 82 38 82C35.4232 82 33.0611 81.6562 31.3083 81.071C30.4371 80.7802 29.6609 80.4115 29.0821 79.9528C28.5132 79.502 28 78.8494 28 78C28 77.4477 28.4477 77 29 77Z" fill="#AA0B29"/>
<path fill-rule="evenodd" clip-rule="evenodd" d="M29 70C29.5523 70 30 70.4477 30 71V85C30 85.0019 30.0001 85.007 30.0034 85.018C30.0069 85.0298 30.0154 85.0521 30.0356 85.0851C30.0777 85.1543 30.1635 85.258 30.3242 85.3853C30.6516 85.6447 31.1879 85.9223 31.9417 86.174C33.4389 86.6738 35.5768 87 38 87C40.4232 87 42.5611 86.6738 44.0583 86.174C44.8121 85.9223 45.3484 85.6447 45.6758 85.3853C45.8365 85.258 45.9223 85.1543 45.9644 85.0851C45.9846 85.0521 45.993 85.0298 45.9966 85.018C45.9999 85.007 46 85.0019 46 85V71.0001C46 70.4478 46.4477 70 47 70C47.5523 70 48 70.4477 48 71V85C48 85.8494 47.4868 86.502 46.9179 86.9528C46.3391 87.4115 45.5629 87.7802 44.6917 88.071C42.9389 88.6562 40.5768 89 38 89C35.4232 89 33.0611 88.6562 31.3083 88.071C30.4371 87.7802 29.6609 87.4115 29.0821 86.9528C28.5132 86.502 28 85.8494 28 85V71C28 70.4477 28.4477 70 29 70Z" fill="#AA0B29"/>
<g clip-path="url(#clip0)">
<path d="M45.0002 207.9C44.5002 207.9 44.1002 207.6 44.0002 207.1C43.9002 206.6 44.2002 206 44.8002 205.9C47.0002 205.5 48.4002 203.3 47.9002 201.2C47.5002 199.3 45.9002 198 44.0002 198H42.7002C42.2002 198 41.8002 197.7 41.7002 197.2C40.7002 193.5 36.9002 191.2 33.2002 192.2C31.4002 192.7 29.9002 193.8 29.0002 195.4C28.0002 197.1 27.7002 198.9 28.2002 200.8C28.7002 202.7 29.9002 204.2 31.6002 205.2C32.1002 205.4 32.3002 206 32.0002 206.5C31.7002 207 31.1002 207.2 30.6002 206.9C28.4002 205.7 26.9002 203.7 26.2002 201.3C25.6002 199 25.9002 196.5 27.2002 194.5C28.4002 192.4 30.4002 191 32.7002 190.4C37.2002 189.2 41.9002 191.8 43.4002 196.1H44.0002C46.8002 196.1 49.3002 198.1 49.9002 200.9C50.6002 204.1 48.5002 207.3 45.2002 208C45.1002 207.9 45.1002 207.9 45.0002 207.9Z" fill="#AA0B29"/>
<path d="M37.0002 214C36.8002 214 36.6002 213.9 36.4002 213.8C35.9002 213.5 35.8002 212.9 36.1002 212.4L39.1002 208H35.0002C34.6002 208 34.3002 207.8 34.1002 207.5C33.9002 207.2 33.9002 206.8 34.1002 206.5L38.1002 200.5C38.4002 200 39.0002 199.9 39.5002 200.2C40.0002 200.5 40.1002 201.1 39.8002 201.6L36.8002 206H41.0002C41.4002 206 41.7002 206.2 41.9002 206.5C42.1002 206.8 42.1002 207.2 41.9002 207.5L37.9002 213.5C37.6002 213.8 37.3002 214 37.0002 214Z" fill="#AA0B29"/>
</g>
<defs>
<clipPath id="clip0">
<rect width="24" height="24" fill="white" transform="translate(26 190)"/>
</clipPath>
</defs>
</svg>
