<svg width="584" height="540" viewBox="0 0 584 540" fill="none" xmlns="http://www.w3.org/2000/svg">
<path d="M427.84 510C431.607 510 433.889 507.67 433.889 503.806C433.889 499.955 431.607 497.636 427.876 497.636H423.457V510H427.84ZM426.071 507.76V499.876H427.738C430.056 499.876 431.281 501.059 431.281 503.806C431.281 506.565 430.056 507.76 427.732 507.76H426.071ZM438.421 510.175C439.792 510.175 440.679 509.577 441.132 508.714H441.204V510H443.643V503.746C443.643 501.536 441.772 500.607 439.707 500.607C437.486 500.607 436.025 501.669 435.669 503.359L438.047 503.553C438.222 502.937 438.772 502.484 439.695 502.484C440.571 502.484 441.072 502.925 441.072 503.685V503.722C441.072 504.319 440.438 504.398 438.826 504.555C436.991 504.724 435.343 505.339 435.343 507.41C435.343 509.245 436.653 510.175 438.421 510.175ZM439.158 508.4C438.367 508.4 437.8 508.032 437.8 507.326C437.8 506.601 438.397 506.245 439.303 506.118C439.864 506.04 440.782 505.907 441.09 505.702V506.686C441.09 507.658 440.287 508.4 439.158 508.4ZM450.571 500.727H448.826V498.506H446.254V500.727H444.987V502.659H446.254V507.489C446.242 509.306 447.48 510.205 449.345 510.127C450.009 510.103 450.48 509.97 450.74 509.885L450.335 507.972C450.209 507.996 449.937 508.056 449.695 508.056C449.182 508.056 448.826 507.863 448.826 507.151V502.659H450.571V500.727ZM454.89 510.175C456.261 510.175 457.148 509.577 457.601 508.714H457.673V510H460.112V503.746C460.112 501.536 458.241 500.607 456.176 500.607C453.954 500.607 452.494 501.669 452.137 503.359L454.516 503.553C454.691 502.937 455.24 502.484 456.164 502.484C457.039 502.484 457.54 502.925 457.54 503.685V503.722C457.54 504.319 456.907 504.398 455.295 504.555C453.459 504.724 451.811 505.339 451.811 507.41C451.811 509.245 453.121 510.175 454.89 510.175ZM455.627 508.4C454.836 508.4 454.268 508.032 454.268 507.326C454.268 506.601 454.866 506.245 455.772 506.118C456.333 506.04 457.251 505.907 457.559 505.702V506.686C457.559 507.658 456.756 508.4 455.627 508.4ZM466.09 510H471.373C474.15 510 475.629 508.551 475.629 506.583C475.629 504.754 474.319 503.649 472.912 503.583V503.462C474.198 503.172 475.146 502.261 475.146 500.806C475.146 498.952 473.769 497.636 471.04 497.636H466.09V510ZM468.704 507.863V504.579H470.896C472.151 504.579 472.93 505.303 472.93 506.324C472.93 507.253 472.296 507.863 470.835 507.863H468.704ZM468.704 502.81V499.749H470.69C471.849 499.749 472.507 500.347 472.507 501.24C472.507 502.218 471.711 502.81 470.642 502.81H468.704ZM477.281 510H479.853V500.727H477.281V510ZM478.573 499.532C479.34 499.532 479.968 498.946 479.968 498.228C479.968 497.516 479.34 496.93 478.573 496.93C477.812 496.93 477.185 497.516 477.185 498.228C477.185 498.946 477.812 499.532 478.573 499.532ZM484.557 510.175C485.928 510.175 486.815 509.577 487.268 508.714H487.34V510H489.779V503.746C489.779 501.536 487.908 500.607 485.843 500.607C483.621 500.607 482.161 501.669 481.804 503.359L484.183 503.553C484.358 502.937 484.907 502.484 485.831 502.484C486.706 502.484 487.207 502.925 487.207 503.685V503.722C487.207 504.319 486.574 504.398 484.962 504.555C483.126 504.724 481.478 505.339 481.478 507.41C481.478 509.245 482.788 510.175 484.557 510.175ZM485.294 508.4C484.503 508.4 483.935 508.032 483.935 507.326C483.935 506.601 484.533 506.245 485.439 506.118C486 506.04 486.918 505.907 487.225 505.702V506.686C487.225 507.658 486.423 508.4 485.294 508.4ZM499.49 503.371C499.26 501.663 497.884 500.607 495.541 500.607C493.169 500.607 491.605 501.705 491.611 503.492C491.605 504.881 492.481 505.78 494.292 506.142L495.898 506.462C496.706 506.625 497.075 506.921 497.087 507.386C497.075 507.935 496.477 508.328 495.578 508.328C494.66 508.328 494.05 507.935 493.893 507.181L491.364 507.314C491.605 509.088 493.115 510.181 495.572 510.181C497.974 510.181 499.695 508.956 499.701 507.126C499.695 505.786 498.819 504.983 497.02 504.615L495.342 504.277C494.479 504.09 494.159 503.794 494.165 503.347C494.159 502.792 494.787 502.43 495.584 502.43C496.477 502.43 497.008 502.919 497.135 503.516L499.49 503.371ZM516.212 501.965C515.868 499.109 513.706 497.467 510.845 497.467C507.579 497.467 505.086 499.773 505.086 503.818C505.086 507.851 507.537 510.169 510.845 510.169C514.014 510.169 515.928 508.062 516.212 505.786L513.568 505.774C513.32 507.096 512.282 507.857 510.887 507.857C509.01 507.857 507.736 506.462 507.736 503.818C507.736 501.246 508.992 499.779 510.905 499.779C512.336 499.779 513.368 500.607 513.568 501.965H516.212ZM520.61 504.639C520.616 503.444 521.346 502.744 522.397 502.744C523.441 502.744 524.057 503.414 524.051 504.555V510H526.623V504.096C526.629 501.923 525.349 500.607 523.417 500.607C522.01 500.607 521.069 501.271 520.646 502.363H520.537V497.636H518.038V510H520.61V504.639ZM532.872 510.181C535.166 510.181 536.712 509.064 537.074 507.344L534.695 507.187C534.436 507.893 533.772 508.261 532.915 508.261C531.629 508.261 530.814 507.41 530.814 506.028V506.022H537.128V505.315C537.128 502.164 535.221 500.607 532.77 500.607C530.041 500.607 528.272 502.544 528.272 505.406C528.272 508.346 530.017 510.181 532.872 510.181ZM530.814 504.428C530.868 503.371 531.671 502.526 532.812 502.526C533.929 502.526 534.701 503.323 534.707 504.428H530.814ZM542.996 510.181C545.465 510.181 547.017 508.732 547.138 506.601H544.711C544.56 507.591 543.908 508.147 543.026 508.147C541.825 508.147 541.046 507.138 541.046 505.364C541.046 503.613 541.831 502.611 543.026 502.611C543.968 502.611 544.572 503.233 544.711 504.156H547.138C547.029 502.013 545.405 500.607 542.984 500.607C540.171 500.607 538.432 502.556 538.432 505.4C538.432 508.219 540.141 510.181 542.996 510.181ZM548.784 510H551.356V507.054L552.05 506.263L554.58 510H557.592L553.976 504.742L557.417 500.727H554.465L551.495 504.247H551.356V497.636H548.784V510ZM558.679 510H561.25V500.727H558.679V510ZM559.971 499.532C560.737 499.532 561.365 498.946 561.365 498.228C561.365 497.516 560.737 496.93 559.971 496.93C559.21 496.93 558.582 497.516 558.582 498.228C558.582 498.946 559.21 499.532 559.971 499.532ZM565.882 504.639C565.888 503.444 566.601 502.744 567.639 502.744C568.671 502.744 569.293 503.42 569.287 504.555V510H571.859V504.096C571.859 501.935 570.591 500.607 568.659 500.607C567.283 500.607 566.287 501.283 565.87 502.363H565.761V500.727H563.31V510H565.882V504.639ZM578.063 513.67C580.713 513.67 582.597 512.463 582.597 510.091V500.727H580.043V502.285H579.947C579.603 501.53 578.848 500.607 577.297 500.607C575.262 500.607 573.542 502.188 573.542 505.346C573.542 508.43 575.214 509.867 577.303 509.867C578.782 509.867 579.609 509.125 579.947 508.358H580.055V510.054C580.055 511.328 579.24 511.823 578.124 511.823C576.989 511.823 576.415 511.328 576.204 510.767L573.825 511.087C574.133 512.548 575.564 513.67 578.063 513.67ZM578.118 507.935C576.856 507.935 576.168 506.933 576.168 505.333C576.168 503.758 576.844 502.653 578.118 502.653C579.367 502.653 580.067 503.71 580.067 505.333C580.067 506.969 579.355 507.935 578.118 507.935Z" fill="#FF7D34"/>
<path d="M400 504L390 498.226V509.774L400 504ZM369 505H391V503H369V505Z" fill="#FF7D34"/>
<rect x="35" y="470" width="321" height="70" fill="#FFB7D5"/>
<path d="M157.108 511H159.722V505.893H164.751V503.738H159.722V500.792H165.294V498.636H157.108V511ZM170.549 511.181C172.844 511.181 174.389 510.064 174.751 508.344L172.373 508.187C172.113 508.893 171.449 509.261 170.592 509.261C169.306 509.261 168.491 508.41 168.491 507.028V507.022H174.806V506.315C174.806 503.164 172.898 501.607 170.447 501.607C167.718 501.607 165.949 503.544 165.949 506.406C165.949 509.346 167.694 511.181 170.549 511.181ZM168.491 505.428C168.545 504.371 169.348 503.526 170.489 503.526C171.606 503.526 172.379 504.323 172.385 505.428H168.491ZM180.71 511.181C183.004 511.181 184.549 510.064 184.911 508.344L182.533 508.187C182.273 508.893 181.609 509.261 180.752 509.261C179.466 509.261 178.651 508.41 178.651 507.028V507.022H184.966V506.315C184.966 503.164 183.058 501.607 180.607 501.607C177.878 501.607 176.11 503.544 176.11 506.406C176.11 509.346 177.854 511.181 180.71 511.181ZM178.651 505.428C178.705 504.371 179.508 503.526 180.649 503.526C181.766 503.526 182.539 504.323 182.545 505.428H178.651ZM190.061 511.151C191.558 511.151 192.337 510.288 192.693 509.515H192.802V511H195.337V498.636H192.771V503.285H192.693C192.349 502.53 191.606 501.607 190.055 501.607C188.02 501.607 186.3 503.188 186.3 506.376C186.3 509.479 187.948 511.151 190.061 511.151ZM190.876 509.104C189.614 509.104 188.926 507.982 188.926 506.364C188.926 504.758 189.602 503.653 190.876 503.653C192.125 503.653 192.826 504.71 192.826 506.364C192.826 508.018 192.113 509.104 190.876 509.104ZM197.5 511H200.035V509.515H200.15C200.506 510.288 201.285 511.151 202.782 511.151C204.895 511.151 206.543 509.479 206.543 506.376C206.543 503.188 204.823 501.607 202.788 501.607C201.237 501.607 200.494 502.53 200.15 503.285H200.072V498.636H197.5V511ZM200.017 506.364C200.017 504.71 200.718 503.653 201.967 503.653C203.241 503.653 203.917 504.758 203.917 506.364C203.917 507.982 203.229 509.104 201.967 509.104C200.73 509.104 200.017 508.018 200.017 506.364ZM210.903 511.175C212.274 511.175 213.161 510.577 213.614 509.714H213.686V511H216.125V504.746C216.125 502.536 214.254 501.607 212.189 501.607C209.968 501.607 208.507 502.669 208.151 504.359L210.529 504.553C210.704 503.937 211.254 503.484 212.177 503.484C213.053 503.484 213.554 503.925 213.554 504.685V504.722C213.554 505.319 212.92 505.398 211.308 505.555C209.473 505.724 207.825 506.339 207.825 508.41C207.825 510.245 209.135 511.175 210.903 511.175ZM211.64 509.4C210.849 509.4 210.282 509.032 210.282 508.326C210.282 507.601 210.879 507.245 211.785 507.118C212.346 507.04 213.264 506.907 213.572 506.702V507.686C213.572 508.658 212.769 509.4 211.64 509.4ZM222.31 511.181C224.779 511.181 226.331 509.732 226.451 507.601H224.025C223.874 508.591 223.222 509.147 222.34 509.147C221.139 509.147 220.36 508.138 220.36 506.364C220.36 504.613 221.145 503.611 222.34 503.611C223.282 503.611 223.886 504.233 224.025 505.156H226.451C226.343 503.013 224.719 501.607 222.298 501.607C219.485 501.607 217.746 503.556 217.746 506.4C217.746 509.219 219.455 511.181 222.31 511.181ZM228.098 511H230.67V508.054L231.364 507.263L233.894 511H236.906L233.29 505.742L236.731 501.727H233.779L230.809 505.247H230.67V498.636H228.098V511Z" fill="#AA0B29"/>
<path d="M195 458L200.774 448L189.226 448L195 458ZM194 428L194 449L196 449L196 428L194 428Z" fill="#A72626"/>
<g clip-path="url(#clip0)">
<path fill-rule="evenodd" clip-rule="evenodd" d="M77.2929 493.293C77.6834 492.902 78.3166 492.902 78.7071 493.293L82.7071 497.293C83.0976 497.683 83.0976 498.317 82.7071 498.707L78.7071 502.707C78.3166 503.098 77.6834 503.098 77.2929 502.707C76.9024 502.317 76.9024 501.683 77.2929 501.293L80.5858 498L77.2929 494.707C76.9024 494.317 76.9024 493.683 77.2929 493.293Z" fill="#AA0B29"/>
<path fill-rule="evenodd" clip-rule="evenodd" d="M68 499C67.2044 499 66.4413 499.316 65.8787 499.879C65.3161 500.441 65 501.204 65 502V504C65 504.552 64.5523 505 64 505C63.4477 505 63 504.552 63 504V502C63 500.674 63.5268 499.402 64.4645 498.464C65.4021 497.527 66.6739 497 68 497H82C82.5523 497 83 497.448 83 498C83 498.552 82.5523 499 82 499H68Z" fill="#AA0B29"/>
<path fill-rule="evenodd" clip-rule="evenodd" d="M68.7071 507.293C69.0976 507.683 69.0976 508.317 68.7071 508.707L65.4142 512L68.7071 515.293C69.0976 515.683 69.0976 516.317 68.7071 516.707C68.3166 517.098 67.6834 517.098 67.2929 516.707L63.2929 512.707C62.9024 512.317 62.9024 511.683 63.2929 511.293L67.2929 507.293C67.6834 506.902 68.3166 506.902 68.7071 507.293Z" fill="#AA0B29"/>
<path fill-rule="evenodd" clip-rule="evenodd" d="M82 505C82.5523 505 83 505.448 83 506V508C83 509.326 82.4732 510.598 81.5355 511.536C80.5979 512.473 79.3261 513 78 513H64C63.4477 513 63 512.552 63 512C63 511.448 63.4477 511 64 511H78C78.7956 511 79.5587 510.684 80.1213 510.121C80.6839 509.559 81 508.796 81 508V506C81 505.448 81.4477 505 82 505Z" fill="#AA0B29"/>
</g>
<path d="M1 507.5H0V508.5H1V507.5ZM1 6V5H0V6H1ZM19 6L9 0.226497V11.7735L19 6ZM19 506.5H1V508.5H19V506.5ZM2 507.5V6H0V507.5H2ZM1 7H10V5H1V7Z" fill="#A72626"/>
<defs>
<clipPath id="clip0">
<rect width="24" height="24" fill="white" transform="translate(61 493)"/>
</clipPath>
</defs>
</svg>
