<svg width="340" height="134" viewBox="0 0 340 134" fill="none" xmlns="http://www.w3.org/2000/svg">
<path opacity="0.2" fill-rule="evenodd" clip-rule="evenodd" d="M10 0C4.47715 0 0 4.47715 0 10V93.5195C0 99.0424 4.47716 103.52 10 103.52H196.877C211.384 114.211 218.117 126.764 219.873 134C221.735 122.492 221.166 112.339 219.072 103.52H330C335.523 103.52 340 99.0424 340 93.5195V10C340 4.47715 335.523 0 330 0H10Z" fill="black"/>
<path d="M28.9482 21.091V32H31.1854V24.8729H31.2759L34.0991 31.9468H35.6225L38.4457 24.8995H38.5362V32H40.7734V21.091H37.929L34.9247 28.4205H34.7969L31.7926 21.091H28.9482Z" fill="black"/>
<path d="M42.6311 32H44.9003V27.3711C44.9003 26.3644 45.6354 25.6719 46.6368 25.6719C46.9511 25.6719 47.3825 25.7252 47.5956 25.7944V23.7809C47.3932 23.733 47.1109 23.701 46.8818 23.701C45.9656 23.701 45.2146 24.2337 44.9163 25.2458H44.8311V23.8182H42.6311V32Z" fill="black"/>
<path d="M54.5736 32.1545C55.7828 32.1545 56.5658 31.6272 56.9653 30.8655H57.0292V32H59.1812V26.4816C59.1812 24.532 57.5299 23.7117 55.7082 23.7117C53.748 23.7117 52.4589 24.6492 52.1446 26.1407L54.2433 26.3111C54.3978 25.7678 54.8825 25.3683 55.6975 25.3683C56.4699 25.3683 56.912 25.7571 56.912 26.4283V26.4603C56.912 26.9876 56.3527 27.0569 54.9305 27.1954C53.3112 27.3445 51.857 27.8878 51.857 29.7149C51.857 31.3342 53.0129 32.1545 54.5736 32.1545ZM55.2235 30.5885C54.5257 30.5885 54.0249 30.2635 54.0249 29.6403C54.0249 29.0011 54.5523 28.6868 55.3513 28.575C55.8467 28.5057 56.6563 28.3885 56.928 28.2074V29.0757C56.928 29.9333 56.2195 30.5885 55.2235 30.5885Z" fill="black"/>
<path d="M63.2108 27.2699C63.2162 26.2152 63.8447 25.5973 64.7609 25.5973C65.6718 25.5973 66.2204 26.1939 66.2151 27.1954V32H68.4843V26.7905C68.4843 24.8836 67.3657 23.7117 65.6611 23.7117C64.4466 23.7117 63.5677 24.3083 63.2002 25.2618H63.1043V23.8182H60.9417V32H63.2108V27.2699Z" fill="black"/>
<path d="M73.2876 32.1332C74.6087 32.1332 75.2958 31.3715 75.6101 30.6897H75.706V32H77.9432V21.091H75.6793V25.1925H75.6101C75.3065 24.5267 74.6513 23.7117 73.2823 23.7117C71.4872 23.7117 69.9691 25.1073 69.9691 27.9198C69.9691 30.6577 71.4233 32.1332 73.2876 32.1332ZM74.0067 30.3275C72.8935 30.3275 72.2862 29.3367 72.2862 27.9091C72.2862 26.4922 72.8828 25.5174 74.0067 25.5174C75.1094 25.5174 75.7273 26.4496 75.7273 27.9091C75.7273 29.3687 75.0987 30.3275 74.0067 30.3275Z" fill="black"/>
<path d="M83.3232 21.091V32H85.5604V24.8729H85.6509L88.4741 31.9468H89.9975L92.8207 24.8995H92.9112V32H95.1484V21.091H92.304L89.2997 28.4205H89.1719L86.1676 21.091H83.3232Z" fill="black"/>
<path d="M97.0061 32H99.2753V27.3711C99.2753 26.3644 100.01 25.6719 101.012 25.6719C101.326 25.6719 101.758 25.7252 101.971 25.7944V23.7809C101.768 23.733 101.486 23.701 101.257 23.701C100.341 23.701 99.5896 24.2337 99.2913 25.2458H99.2061V23.8182H97.0061V32Z" fill="black"/>
<path d="M109.951 26.1513C109.749 24.6439 108.534 23.7117 106.468 23.7117C104.374 23.7117 102.995 24.6812 103 26.2579C102.995 27.483 103.767 28.2767 105.365 28.5963L106.782 28.8786C107.496 29.0224 107.821 29.2834 107.831 29.6936C107.821 30.1783 107.293 30.5245 106.5 30.5245C105.69 30.5245 105.152 30.1783 105.013 29.5125L102.782 29.6297C102.995 31.1957 104.326 32.1598 106.494 32.1598C108.614 32.1598 110.132 31.0785 110.138 29.4645C110.132 28.282 109.36 27.5736 107.773 27.2486L106.292 26.9503C105.53 26.7852 105.248 26.5242 105.253 26.13C105.248 25.64 105.802 25.3204 106.505 25.3204C107.293 25.3204 107.762 25.7518 107.874 26.2792L109.951 26.1513Z" fill="black"/>
<path d="M118.948 32C122.272 32 124.286 29.9439 124.286 26.5348C124.286 23.1364 122.272 21.091 118.98 21.091H115.081V32H118.948ZM117.387 30.0238V23.0672H118.858C120.903 23.0672 121.984 24.1112 121.984 26.5348C121.984 28.9692 120.903 30.0238 118.852 30.0238H117.387Z" fill="black"/>
<path d="M131.198 28.5164C131.204 29.6137 130.453 30.189 129.638 30.189C128.78 30.189 128.226 29.587 128.221 28.6229V23.8182H125.951V29.0277C125.957 30.94 127.075 32.1066 128.721 32.1066C129.952 32.1066 130.836 31.4727 131.204 30.5139H131.289V32H133.467V23.8182H131.198V28.5164Z" fill="black"/>
<path d="M135.282 32H137.552V27.3711C137.552 26.3644 138.287 25.6719 139.288 25.6719C139.602 25.6719 140.034 25.7252 140.247 25.7944V23.7809C140.045 23.733 139.762 23.701 139.533 23.701C138.617 23.701 137.866 24.2337 137.568 25.2458H137.482V23.8182H135.282V32Z" fill="black"/>
<path d="M148.228 26.1513C148.025 24.6439 146.811 23.7117 144.744 23.7117C142.651 23.7117 141.271 24.6812 141.276 26.2579C141.271 27.483 142.043 28.2767 143.641 28.5963L145.058 28.8786C145.772 29.0224 146.097 29.2834 146.108 29.6936C146.097 30.1783 145.57 30.5245 144.776 30.5245C143.966 30.5245 143.428 30.1783 143.29 29.5125L141.058 29.6297C141.271 31.1957 142.603 32.1598 144.771 32.1598C146.891 32.1598 148.409 31.0785 148.414 29.4645C148.409 28.282 147.636 27.5736 146.049 27.2486L144.568 26.9503C143.807 26.7852 143.524 26.5242 143.53 26.13C143.524 25.64 144.078 25.3204 144.781 25.3204C145.57 25.3204 146.038 25.7518 146.15 26.2792L148.228 26.1513Z" fill="black"/>
<path d="M152.112 21.091H149.843V32H152.112V21.091Z" fill="black"/>
<path d="M157.659 32.1598C159.683 32.1598 161.046 31.1744 161.366 29.6563L159.267 29.5178C159.038 30.141 158.452 30.466 157.696 30.466C156.561 30.466 155.842 29.7149 155.842 28.4951V28.4897H161.414V27.8665C161.414 25.086 159.731 23.7117 157.568 23.7117C155.16 23.7117 153.6 25.4216 153.6 27.9464C153.6 30.5405 155.139 32.1598 157.659 32.1598ZM155.842 27.0835C155.89 26.1513 156.599 25.4056 157.605 25.4056C158.591 25.4056 159.273 26.1087 159.278 27.0835H155.842Z" fill="black"/>
<path d="M164.061 35.0682C165.75 35.0682 166.645 34.2053 167.108 32.8843L170.288 23.8289L167.886 23.8182L166.176 29.8267H166.091L164.397 23.8182H162.011L164.946 32.2344L164.812 32.5807C164.514 33.3477 163.944 33.385 163.145 33.14L162.634 34.8339C162.959 34.9723 163.486 35.0682 164.061 35.0682Z" fill="black"/>
<path d="M173.403 30.5086H171.528L171.501 31.1052C171.437 32.554 171.022 34.0402 170.868 34.6634H172.338C172.593 34.0189 173.201 32.5061 173.344 31.0945L173.403 30.5086Z" fill="black"/>
<path d="M182.134 32.1598C184.616 32.1598 186.161 30.4606 186.161 27.9411C186.161 25.4056 184.616 23.7117 182.134 23.7117C179.651 23.7117 178.107 25.4056 178.107 27.9411C178.107 30.4606 179.651 32.1598 182.134 32.1598ZM182.144 30.402C180.999 30.402 180.413 29.3527 180.413 27.9251C180.413 26.4976 180.999 25.4429 182.144 25.4429C183.268 25.4429 183.854 26.4976 183.854 27.9251C183.854 29.3527 183.268 30.402 182.144 30.402Z" fill="black"/>
<path d="M192.036 23.8182H190.411V23.2696C190.411 22.7156 190.635 22.3907 191.301 22.3907C191.572 22.3907 191.849 22.4493 192.031 22.5079L192.43 20.8033C192.148 20.7181 191.525 20.5796 190.827 20.5796C189.287 20.5796 188.142 21.4478 188.142 23.227V23.8182H186.986V25.5228H188.142V32H190.411V25.5228H192.036V23.8182Z" fill="black"/>
<path d="M199.163 27.2699C199.168 26.2152 199.797 25.5973 200.713 25.5973C201.624 25.5973 202.173 26.1939 202.167 27.1954V32H204.436V26.7905C204.436 24.8836 203.318 23.7117 201.613 23.7117C200.399 23.7117 199.52 24.3083 199.152 25.2618H199.056V23.8182H196.894V32H199.163V27.2699Z" fill="black"/>
<path d="M211.472 28.5164C211.477 29.6137 210.726 30.189 209.911 30.189C209.053 30.189 208.499 29.587 208.494 28.6229V23.8182H206.225V29.0277C206.23 30.94 207.349 32.1066 208.995 32.1066C210.225 32.1066 211.109 31.4727 211.477 30.5139H211.562V32H213.741V23.8182H211.472V28.5164Z" fill="black"/>
<path d="M215.556 32H217.825V27.0888C217.825 26.1833 218.4 25.5814 219.157 25.5814C219.903 25.5814 220.403 26.0927 220.403 26.8971V32H222.603V27.0036C222.603 26.1567 223.088 25.5814 223.914 25.5814C224.638 25.5814 225.181 26.0341 225.181 26.945V32H227.445V26.4976C227.445 24.7238 226.39 23.7117 224.867 23.7117C223.668 23.7117 222.736 24.3243 222.401 25.2618H222.316C222.055 24.3136 221.218 23.7117 220.094 23.7117C218.992 23.7117 218.155 24.2976 217.814 25.2618H217.719V23.8182H215.556V32Z" fill="black"/>
<path d="M229.28 32H231.517V30.6897H231.619C231.933 31.3715 232.62 32.1332 233.941 32.1332C235.805 32.1332 237.26 30.6577 237.26 27.9198C237.26 25.1073 235.741 23.7117 233.946 23.7117C232.577 23.7117 231.922 24.5267 231.619 25.1925H231.549V21.091H229.28V32ZM231.501 27.9091C231.501 26.4496 232.119 25.5174 233.222 25.5174C234.346 25.5174 234.942 26.4922 234.942 27.9091C234.942 29.3367 234.335 30.3275 233.222 30.3275C232.13 30.3275 231.501 29.3687 231.501 27.9091Z" fill="black"/>
<path d="M242.502 32.1598C244.527 32.1598 245.89 31.1744 246.21 29.6563L244.111 29.5178C243.882 30.141 243.296 30.466 242.54 30.466C241.405 30.466 240.686 29.7149 240.686 28.4951V28.4897H246.258V27.8665C246.258 25.086 244.574 23.7117 242.412 23.7117C240.004 23.7117 238.443 25.4216 238.443 27.9464C238.443 30.5405 239.983 32.1598 242.502 32.1598ZM240.686 27.0835C240.734 26.1513 241.442 25.4056 242.449 25.4056C243.435 25.4056 244.116 26.1087 244.122 27.0835H240.686Z" fill="black"/>
<path d="M247.739 32H250.008V27.3711C250.008 26.3644 250.743 25.6719 251.744 25.6719C252.059 25.6719 252.49 25.7252 252.703 25.7944V23.7809C252.501 23.733 252.218 23.701 251.989 23.701C251.073 23.701 250.322 24.2337 250.024 25.2458H249.938V23.8182H247.739V32Z" fill="black"/>
<path d="M261.748 23.8182H260.123V23.2696C260.123 22.7156 260.347 22.3907 261.013 22.3907C261.284 22.3907 261.561 22.4493 261.742 22.5079L262.142 20.8033C261.86 20.7181 261.236 20.5796 260.539 20.5796C258.999 20.5796 257.854 21.4478 257.854 23.227V23.8182H256.698V25.5228H257.854V32H260.123V25.5228H261.748V23.8182Z" fill="black"/>
<path d="M266.538 32.1598C269.02 32.1598 270.565 30.4606 270.565 27.9411C270.565 25.4056 269.02 23.7117 266.538 23.7117C264.056 23.7117 262.511 25.4056 262.511 27.9411C262.511 30.4606 264.056 32.1598 266.538 32.1598ZM266.548 30.402C265.403 30.402 264.817 29.3527 264.817 27.9251C264.817 26.4976 265.403 25.4429 266.548 25.4429C267.672 25.4429 268.258 26.4976 268.258 27.9251C268.258 29.3527 267.672 30.402 266.548 30.402Z" fill="black"/>
<path d="M277.287 28.5164C277.292 29.6137 276.541 30.189 275.726 30.189C274.869 30.189 274.315 29.587 274.309 28.6229V23.8182H272.04V29.0277C272.046 30.94 273.164 32.1066 274.81 32.1066C276.041 32.1066 276.925 31.4727 277.292 30.5139H277.378V32H279.556V23.8182H277.287V28.5164Z" fill="black"/>
<path d="M281.371 32H283.641V27.3711C283.641 26.3644 284.376 25.6719 285.377 25.6719C285.691 25.6719 286.123 25.7252 286.336 25.7944V23.7809C286.133 23.733 285.851 23.701 285.622 23.701C284.706 23.701 283.955 24.2337 283.657 25.2458H283.571V23.8182H281.371V32Z" fill="black"/>
<path d="M289.038 30.5086H287.163L287.136 31.1052C287.072 32.554 286.657 34.0402 286.502 34.6634H287.972C288.228 34.0189 288.835 32.5061 288.979 31.0945L289.038 30.5086Z" fill="black"/>
<path d="M28.9482 54H31.2546V50.4631H33.1935C35.7024 50.4631 37.1619 48.9663 37.1619 46.7877C37.1619 44.6197 35.729 43.091 33.2521 43.091H28.9482V54ZM31.2546 48.6147V44.9766H32.81C34.1417 44.9766 34.7862 45.701 34.7862 46.7877C34.7862 47.869 34.1417 48.6147 32.8207 48.6147H31.2546Z" fill="black"/>
<path d="M38.6175 54H40.8866V49.3711C40.8866 48.3644 41.6217 47.6719 42.6231 47.6719C42.9374 47.6719 43.3689 47.7252 43.5819 47.7944V45.7809C43.3795 45.733 43.0972 45.701 42.8682 45.701C41.952 45.701 41.2009 46.2337 40.9026 47.2458H40.8174V45.8182H38.6175V54Z" fill="black"/>
<path d="M44.7551 54H47.0243V45.8182H44.7551V54ZM45.8951 44.7635C46.5716 44.7635 47.1255 44.2468 47.1255 43.613C47.1255 42.9844 46.5716 42.4677 45.8951 42.4677C45.2239 42.4677 44.6699 42.9844 44.6699 43.613C44.6699 44.2468 45.2239 44.7635 45.8951 44.7635Z" fill="black"/>
<path d="M56.4699 45.8182H54.0676L52.3737 51.6723H52.2884L50.5892 45.8182H48.1922L51.0526 54H53.6095L56.4699 45.8182Z" fill="black"/>
<path d="M61.0815 54.1598C63.1056 54.1598 64.4693 53.1744 64.7889 51.6563L62.6902 51.5178C62.4611 52.141 61.8752 52.466 61.1188 52.466C59.9842 52.466 59.2651 51.7149 59.2651 50.4951V50.4897H64.8368V49.8665C64.8368 47.086 63.1536 45.7117 60.9909 45.7117C58.5833 45.7117 57.0226 47.4216 57.0226 49.9464C57.0226 52.5405 58.562 54.1598 61.0815 54.1598ZM59.2651 49.0835C59.313 48.1513 60.0215 47.4056 61.0282 47.4056C62.0137 47.4056 62.6955 48.1087 62.7008 49.0835H59.2651Z" fill="black"/>
<path d="M70.6696 45.8182H69.1301V43.858H66.861V45.8182H65.7424V47.5228H66.861V51.7841C66.8503 53.3875 67.9423 54.1812 69.5882 54.1119C70.1742 54.0906 70.5897 53.9734 70.8187 53.8988L70.4618 52.2103C70.35 52.2316 70.1103 52.2848 69.8972 52.2848C69.4444 52.2848 69.1301 52.1144 69.1301 51.4858V47.5228H70.6696V45.8182Z" fill="black"/>
<path d="M79.5292 54C82.8531 54 84.8666 51.9439 84.8666 48.5348C84.8666 45.1364 82.8531 43.091 79.5612 43.091H75.662V54H79.5292ZM77.9685 52.0238V45.0672H79.4387C81.4841 45.0672 82.5654 46.1112 82.5654 48.5348C82.5654 50.9691 81.4841 52.0238 79.4333 52.0238H77.9685Z" fill="black"/>
<path d="M86.5325 54H88.8017V49.3711C88.8017 48.3644 89.5368 47.6719 90.5382 47.6719C90.8524 47.6719 91.2839 47.7252 91.497 47.7944V45.7809C91.2946 45.733 91.0123 45.701 90.7832 45.701C89.867 45.701 89.1159 46.2337 88.8176 47.2458H88.7324V45.8182H86.5325V54Z" fill="black"/>
<path d="M92.6702 54H94.9394V45.8182H92.6702V54ZM93.8101 44.7635C94.4866 44.7635 95.0406 44.2468 95.0406 43.613C95.0406 42.9844 94.4866 42.4677 93.8101 42.4677C93.1389 42.4677 92.585 42.9844 92.585 43.613C92.585 44.2468 93.1389 44.7635 93.8101 44.7635Z" fill="black"/>
<path d="M104.385 45.8182H101.983L100.289 51.6723H100.203L98.5043 45.8182H96.1072L98.9677 54H101.525L104.385 45.8182Z" fill="black"/>
<path d="M108.997 54.1598C111.021 54.1598 112.384 53.1744 112.704 51.6563L110.605 51.5178C110.376 52.141 109.79 52.466 109.034 52.466C107.899 52.466 107.18 51.7149 107.18 50.4951V50.4897H112.752V49.8665C112.752 47.086 111.069 45.7117 108.906 45.7117C106.498 45.7117 104.938 47.4216 104.938 49.9464C104.938 52.5405 106.477 54.1598 108.997 54.1598ZM107.18 49.0835C107.228 48.1513 107.937 47.4056 108.943 47.4056C109.929 47.4056 110.611 48.1087 110.616 49.0835H107.18Z" fill="black"/>
<path d="M116.699 52.5086H114.824L114.797 53.1052C114.733 54.554 114.318 56.0402 114.163 56.6634H115.634C115.889 56.0189 116.497 54.5061 116.64 53.0945L116.699 52.5086Z" fill="black"/>
<path d="M123.347 54H125.744L127.15 48.8544H127.251L128.657 54H131.06L133.281 45.8182H130.991L129.744 51.2834H129.675L128.332 45.8182H126.079L124.758 51.3154H124.684L123.416 45.8182H121.12L123.347 54Z" fill="black"/>
<path d="M138.015 54.1598C140.039 54.1598 141.403 53.1744 141.722 51.6563L139.624 51.5178C139.395 52.141 138.809 52.466 138.052 52.466C136.918 52.466 136.199 51.7149 136.199 50.4951V50.4897H141.77V49.8665C141.77 47.086 140.087 45.7117 137.925 45.7117C135.517 45.7117 133.956 47.4216 133.956 49.9464C133.956 52.5405 135.496 54.1598 138.015 54.1598ZM136.199 49.0835C136.247 48.1513 136.955 47.4056 137.962 47.4056C138.947 47.4056 139.629 48.1087 139.634 49.0835H136.199Z" fill="black"/>
<path d="M143.251 54H145.52V49.3711C145.52 48.3644 146.256 47.6719 147.257 47.6719C147.571 47.6719 148.003 47.7252 148.216 47.7944V45.7809C148.013 45.733 147.731 45.701 147.502 45.701C146.586 45.701 145.835 46.2337 145.536 47.2458H145.451V45.8182H143.251V54Z" fill="black"/>
<path d="M152.737 54.1598C154.761 54.1598 156.125 53.1744 156.444 51.6563L154.345 51.5178C154.116 52.141 153.53 52.466 152.774 52.466C151.639 52.466 150.92 51.7149 150.92 50.4951V50.4897H156.492V49.8665C156.492 47.086 154.809 45.7117 152.646 45.7117C150.239 45.7117 148.678 47.4216 148.678 49.9464C148.678 52.5405 150.217 54.1598 152.737 54.1598ZM150.92 49.0835C150.968 48.1513 151.677 47.4056 152.684 47.4056C153.669 47.4056 154.351 48.1087 154.356 49.0835H150.92Z" fill="black"/>
<path d="M161.445 57.0682H163.714V52.6897H163.783C164.097 53.3715 164.784 54.1332 166.105 54.1332C167.97 54.1332 169.424 52.6577 169.424 49.9198C169.424 47.1073 167.906 45.7117 166.111 45.7117C164.742 45.7117 164.087 46.5267 163.783 47.1925H163.682V45.8182H161.445V57.0682ZM163.666 49.9091C163.666 48.4496 164.284 47.5174 165.386 47.5174C166.51 47.5174 167.107 48.4922 167.107 49.9091C167.107 51.3367 166.5 52.3275 165.386 52.3275C164.294 52.3275 163.666 51.3687 163.666 49.9091Z" fill="black"/>
<path d="M170.937 54H173.206V49.3711C173.206 48.3644 173.941 47.6719 174.942 47.6719C175.257 47.6719 175.688 47.7252 175.901 47.7944V45.7809C175.699 45.733 175.417 45.701 175.188 45.701C174.271 45.701 173.52 46.2337 173.222 47.2458H173.137V45.8182H170.937V54Z" fill="black"/>
<path d="M180.39 54.1598C182.873 54.1598 184.417 52.4606 184.417 49.9411C184.417 47.4056 182.873 45.7117 180.39 45.7117C177.908 45.7117 176.363 47.4056 176.363 49.9411C176.363 52.4606 177.908 54.1598 180.39 54.1598ZM180.401 52.402C179.256 52.402 178.67 51.3527 178.67 49.9251C178.67 48.4976 179.256 47.4429 180.401 47.4429C181.525 47.4429 182.111 48.4976 182.111 49.9251C182.111 51.3527 181.525 52.402 180.401 52.402Z" fill="black"/>
<path d="M191.14 50.5164C191.145 51.6137 190.394 52.189 189.579 52.189C188.721 52.189 188.167 51.587 188.162 50.6229V45.8182H185.893V51.0277C185.898 52.94 187.017 54.1066 188.663 54.1066C189.893 54.1066 190.777 53.4727 191.145 52.5139H191.23V54H193.409V45.8182H191.14V50.5164Z" fill="black"/>
<path d="M198.239 54.1332C199.56 54.1332 200.247 53.3715 200.561 52.6897H200.657V54H202.894V43.091H200.631V47.1925H200.561C200.258 46.5267 199.602 45.7117 198.233 45.7117C196.438 45.7117 194.92 47.1073 194.92 49.9198C194.92 52.6577 196.374 54.1332 198.239 54.1332ZM198.958 52.3275C197.845 52.3275 197.237 51.3367 197.237 49.9091C197.237 48.4922 197.834 47.5174 198.958 47.5174C200.061 47.5174 200.678 48.4496 200.678 49.9091C200.678 51.3687 200.05 52.3275 198.958 52.3275Z" fill="black"/>
<path d="M212.584 45.8182H211.044V43.858H208.775V45.8182H207.656V47.5228H208.775V51.7841C208.764 53.3875 209.856 54.1812 211.502 54.1119C212.088 54.0906 212.504 53.9734 212.733 53.8988L212.376 52.2103C212.264 52.2316 212.024 52.2848 211.811 52.2848C211.358 52.2848 211.044 52.1144 211.044 51.4858V47.5228H212.584V45.8182Z" fill="black"/>
<path d="M217.671 54.1598C220.153 54.1598 221.698 52.4606 221.698 49.9411C221.698 47.4056 220.153 45.7117 217.671 45.7117C215.188 45.7117 213.644 47.4056 213.644 49.9411C213.644 52.4606 215.188 54.1598 217.671 54.1598ZM217.681 52.402C216.536 52.402 215.95 51.3527 215.95 49.9251C215.95 48.4976 216.536 47.4429 217.681 47.4429C218.805 47.4429 219.391 48.4976 219.391 49.9251C219.391 51.3527 218.805 52.402 217.681 52.402Z" fill="black"/>
<path d="M233.452 48.1513C233.25 46.6439 232.035 45.7117 229.969 45.7117C227.875 45.7117 226.496 46.6812 226.501 48.2579C226.496 49.483 227.268 50.2767 228.866 50.5963L230.283 50.8786C230.997 51.0224 231.322 51.2834 231.332 51.6936C231.322 52.1783 230.794 52.5245 230.001 52.5245C229.191 52.5245 228.653 52.1783 228.514 51.5125L226.283 51.6297C226.496 53.1957 227.827 54.1598 229.995 54.1598C232.115 54.1598 233.633 53.0785 233.639 51.4645C233.633 50.282 232.861 49.5736 231.274 49.2486L229.793 48.9503C229.031 48.7852 228.749 48.5242 228.754 48.13C228.749 47.64 229.303 47.3204 230.006 47.3204C230.794 47.3204 231.263 47.7518 231.375 48.2792L233.452 48.1513Z" fill="black"/>
<path d="M237.401 54.1545C238.61 54.1545 239.393 53.6272 239.792 52.8655H239.856V54H242.008V48.4816C242.008 46.532 240.357 45.7117 238.535 45.7117C236.575 45.7117 235.286 46.6492 234.972 48.1407L237.07 48.3111C237.225 47.7678 237.71 47.3683 238.525 47.3683C239.297 47.3683 239.739 47.7571 239.739 48.4283V48.4603C239.739 48.9876 239.18 49.0569 237.758 49.1954C236.138 49.3445 234.684 49.8878 234.684 51.7149C234.684 53.3342 235.84 54.1545 237.401 54.1545ZM238.051 52.5885C237.353 52.5885 236.852 52.2635 236.852 51.6403C236.852 51.0011 237.379 50.6868 238.178 50.575C238.674 50.5057 239.483 50.3885 239.755 50.2074V51.0757C239.755 51.9333 239.047 52.5885 238.051 52.5885Z" fill="black"/>
<path d="M244.877 57.0682C246.565 57.0682 247.46 56.2053 247.924 54.8843L251.104 45.8289L248.701 45.8182L246.991 51.8267H246.906L245.212 45.8182H242.826L245.761 54.2344L245.628 54.5807C245.33 55.3477 244.76 55.385 243.961 55.14L243.449 56.8339C243.774 56.9723 244.301 57.0682 244.877 57.0682Z" fill="black"/>
<path d="M260.089 45.8182H258.549V43.858H256.28V45.8182H255.161V47.5228H256.28V51.7841C256.269 53.3875 257.361 54.1812 259.007 54.1119C259.593 54.0906 260.009 53.9734 260.238 53.8988L259.881 52.2103C259.769 52.2316 259.529 52.2848 259.316 52.2848C258.863 52.2848 258.549 52.1144 258.549 51.4858V47.5228H260.089V45.8182Z" fill="black"/>
<path d="M264.012 49.2699C264.017 48.2152 264.661 47.5973 265.588 47.5973C266.51 47.5973 267.053 48.1886 267.048 49.1954V54H269.317V48.7905C269.322 46.8729 268.193 45.7117 266.489 45.7117C265.247 45.7117 264.416 46.2976 264.044 47.2618H263.948V43.091H261.742V54H264.012V49.2699Z" fill="black"/>
<path d="M273.436 54.1545C274.645 54.1545 275.428 53.6272 275.828 52.8655H275.892V54H278.044V48.4816C278.044 46.532 276.392 45.7117 274.57 45.7117C272.61 45.7117 271.321 46.6492 271.007 48.1407L273.106 48.3111C273.26 47.7678 273.745 47.3683 274.56 47.3683C275.332 47.3683 275.774 47.7571 275.774 48.4283V48.4603C275.774 48.9876 275.215 49.0569 273.793 49.1954C272.173 49.3445 270.719 49.8878 270.719 51.7149C270.719 53.3342 271.875 54.1545 273.436 54.1545ZM274.086 52.5885C273.388 52.5885 272.887 52.2635 272.887 51.6403C272.887 51.0011 273.415 50.6868 274.214 50.575C274.709 50.5057 275.519 50.3885 275.79 50.2074V51.0757C275.79 51.9333 275.082 52.5885 274.086 52.5885Z" fill="black"/>
<path d="M284.156 45.8182H282.616V43.858H280.347V45.8182H279.229V47.5228H280.347V51.7841C280.337 53.3875 281.429 54.1812 283.075 54.1119C283.661 54.0906 284.076 53.9734 284.305 53.8988L283.948 52.2103C283.836 52.2316 283.597 52.2848 283.384 52.2848C282.931 52.2848 282.616 52.1144 282.616 51.4858V47.5228H284.156V45.8182Z" fill="black"/>
<path d="M293.458 45.8182H291.918V43.858H289.649V45.8182H288.53V47.5228H289.649V51.7841C289.638 53.3875 290.73 54.1812 292.376 54.1119C292.962 54.0906 293.378 53.9734 293.607 53.8988L293.25 52.2103C293.138 52.2316 292.898 52.2848 292.685 52.2848C292.233 52.2848 291.918 52.1144 291.918 51.4858V47.5228H293.458V45.8182Z" fill="black"/>
<path d="M297.381 49.2699C297.386 48.2152 298.031 47.5973 298.957 47.5973C299.879 47.5973 300.422 48.1886 300.417 49.1954V54H302.686V48.7905C302.691 46.8729 301.562 45.7117 299.858 45.7117C298.617 45.7117 297.786 46.2976 297.413 47.2618H297.317V43.091H295.112V54H297.381V49.2699Z" fill="black"/>
<path d="M308.201 54.1598C310.225 54.1598 311.588 53.1744 311.908 51.6563L309.809 51.5178C309.58 52.141 308.994 52.466 308.238 52.466C307.103 52.466 306.384 51.7149 306.384 50.4951V50.4897H311.956V49.8665C311.956 47.086 310.273 45.7117 308.11 45.7117C305.702 45.7117 304.142 47.4216 304.142 49.9464C304.142 52.5405 305.681 54.1598 308.201 54.1598ZM306.384 49.0835C306.432 48.1513 307.141 47.4056 308.147 47.4056C309.133 47.4056 309.815 48.1087 309.82 49.0835H306.384Z" fill="black"/>
<path d="M314.603 57.0682C316.292 57.0682 317.187 56.2053 317.65 54.8843L320.83 45.8289L318.428 45.8182L316.718 51.8267H316.633L314.939 45.8182H312.553L315.488 54.2344L315.354 54.5807C315.056 55.3477 314.486 55.385 313.687 55.14L313.176 56.8339C313.501 56.9723 314.028 57.0682 314.603 57.0682Z" fill="black"/>
<path d="M30.5195 76H32.9165L34.3228 70.8545H34.424L35.8303 76H38.2326L40.4538 67.8182H38.1634L36.9169 73.2834H36.8477L35.5053 67.8182H33.2521L31.9311 73.3154H31.8565L30.5888 67.8182H28.293L30.5195 76Z" fill="black"/>
<path d="M45.1879 76.1598C47.2121 76.1598 48.5757 75.1744 48.8953 73.6563L46.7966 73.5178C46.5676 74.141 45.9816 74.466 45.2252 74.466C44.0906 74.466 43.3715 73.7149 43.3715 72.4951V72.4897H48.9433V71.8665C48.9433 69.086 47.26 67.7117 45.0974 67.7117C42.6897 67.7117 41.129 69.4216 41.129 71.9464C41.129 74.5405 42.6684 76.1598 45.1879 76.1598ZM43.3715 71.0835C43.4195 70.1513 44.1279 69.4056 45.1347 69.4056C46.1201 69.4056 46.8019 70.1087 46.8073 71.0835H43.3715Z" fill="black"/>
<path d="M50.4241 76H52.6933V71.3711C52.6933 70.3644 53.4284 69.6719 54.4298 69.6719C54.7441 69.6719 55.1755 69.7252 55.3886 69.7944V67.7809C55.1862 67.733 54.9039 67.701 54.6748 67.701C53.7586 67.701 53.0075 68.2337 52.7093 69.2458H52.624V67.8182H50.4241V76Z" fill="black"/>
<path d="M59.9096 76.1598C61.9338 76.1598 63.2974 75.1744 63.617 73.6563L61.5183 73.5178C61.2892 74.141 60.7033 74.466 59.9469 74.466C58.8123 74.466 58.0932 73.7149 58.0932 72.4951V72.4897H63.665V71.8665C63.665 69.086 61.9817 67.7117 59.8191 67.7117C57.4114 67.7117 55.8507 69.4216 55.8507 71.9464C55.8507 74.5405 57.3901 76.1598 59.9096 76.1598ZM58.0932 71.0835C58.1412 70.1513 58.8496 69.4056 59.8564 69.4056C60.8418 69.4056 61.5236 70.1087 61.5289 71.0835H58.0932Z" fill="black"/>
<path d="M68.6175 79.0682H70.8866V74.6897H70.9559C71.2702 75.3715 71.9573 76.1332 73.2783 76.1332C75.1427 76.1332 76.5969 74.6577 76.5969 71.9198C76.5969 69.1073 75.0787 67.7117 73.2836 67.7117C71.9147 67.7117 71.2595 68.5267 70.9559 69.1925H70.8547V67.8182H68.6175V79.0682ZM70.8387 71.9091C70.8387 70.4496 71.4566 69.5174 72.5592 69.5174C73.6832 69.5174 74.2797 70.4922 74.2797 71.9091C74.2797 73.3367 73.6725 74.3275 72.5592 74.3275C71.4672 74.3275 70.8387 73.3687 70.8387 71.9091Z" fill="black"/>
<path d="M81.8383 76.1598C83.8625 76.1598 85.2261 75.1744 85.5457 73.6563L83.447 73.5178C83.218 74.141 82.632 74.466 81.8756 74.466C80.741 74.466 80.0219 73.7149 80.0219 72.4951V72.4897H85.5937V71.8665C85.5937 69.086 83.9104 67.7117 81.7478 67.7117C79.3401 67.7117 77.7794 69.4216 77.7794 71.9464C77.7794 74.5405 79.3188 76.1598 81.8383 76.1598ZM80.0219 71.0835C80.0699 70.1513 80.7783 69.4056 81.7851 69.4056C82.7705 69.4056 83.4523 70.1087 83.4577 71.0835H80.0219Z" fill="black"/>
<path d="M87.0745 76H89.3437V71.3711C89.3437 70.3644 90.0787 69.6719 91.0802 69.6719C91.3944 69.6719 91.8259 69.7252 92.039 69.7944V67.7809C91.8366 67.733 91.5542 67.701 91.3252 67.701C90.409 67.701 89.6579 68.2337 89.3596 69.2458H89.2744V67.8182H87.0745V76Z" fill="black"/>
<path d="M98.0222 67.8182H96.3976V67.2696C96.3976 66.7156 96.6213 66.3907 97.2871 66.3907C97.5588 66.3907 97.8358 66.4493 98.0169 66.5079L98.4164 64.8033C98.1341 64.7181 97.5108 64.5796 96.813 64.5796C95.2736 64.5796 94.1284 65.4478 94.1284 67.227V67.8182H92.9725V69.5228H94.1284V76H96.3976V69.5228H98.0222V67.8182Z" fill="black"/>
<path d="M102.844 76.1598C104.868 76.1598 106.232 75.1744 106.552 73.6563L104.453 73.5178C104.224 74.141 103.638 74.466 102.881 74.466C101.747 74.466 101.028 73.7149 101.028 72.4951V72.4897H106.6V71.8665C106.6 69.086 104.916 67.7117 102.754 67.7117C100.346 67.7117 98.7852 69.4216 98.7852 71.9464C98.7852 74.5405 100.325 76.1598 102.844 76.1598ZM101.028 71.0835C101.076 70.1513 101.784 69.4056 102.791 69.4056C103.776 69.4056 104.458 70.1087 104.464 71.0835H101.028Z" fill="black"/>
<path d="M111.777 76.1598C113.956 76.1598 115.325 74.8814 115.431 73.0011H113.29C113.157 73.8747 112.581 74.3647 111.804 74.3647C110.744 74.3647 110.057 73.4752 110.057 71.9091C110.057 70.3644 110.749 69.4802 111.804 69.4802C112.635 69.4802 113.167 70.0288 113.29 70.8438H115.431C115.335 68.9528 113.902 67.7117 111.766 67.7117C109.284 67.7117 107.75 69.4322 107.75 71.9411C107.75 74.4287 109.258 76.1598 111.777 76.1598Z" fill="black"/>
<path d="M121.236 67.8182H119.697V65.858H117.427V67.8182H116.309V69.5228H117.427V73.7841C117.417 75.3875 118.509 76.1812 120.155 76.1119C120.741 76.0906 121.156 75.9734 121.385 75.8988L121.028 74.2103C120.916 74.2316 120.677 74.2848 120.464 74.2848C120.011 74.2848 119.697 74.1144 119.697 73.4858V69.5228H121.236V67.8182Z" fill="black"/>
<path d="M125.159 65.091H122.89V76H125.159V65.091Z" fill="black"/>
<path d="M128.378 79.0682C130.066 79.0682 130.961 78.2053 131.425 76.8843L134.605 67.8289L132.202 67.8182L130.492 73.8267H130.407L128.713 67.8182H126.327L129.262 76.2344L129.129 76.5807C128.831 77.3477 128.261 77.385 127.462 77.14L126.95 78.8339C127.275 78.9723 127.802 79.0682 128.378 79.0682Z" fill="black"/>
<path d="M141.507 71.2699C141.512 70.2152 142.141 69.5973 143.057 69.5973C143.968 69.5973 144.516 70.1939 144.511 71.1954V76H146.78V70.7905C146.78 68.8836 145.662 67.7117 143.957 67.7117C142.743 67.7117 141.864 68.3083 141.496 69.2618H141.4V67.8182H139.238V76H141.507V71.2699Z" fill="black"/>
<path d="M152.265 76.1598C154.748 76.1598 156.292 74.4606 156.292 71.9411C156.292 69.4056 154.748 67.7117 152.265 67.7117C149.783 67.7117 148.238 69.4056 148.238 71.9411C148.238 74.4606 149.783 76.1598 152.265 76.1598ZM152.276 74.402C151.131 74.402 150.545 73.3527 150.545 71.9251C150.545 70.4976 151.131 69.4429 152.276 69.4429C153.4 69.4429 153.986 70.4976 153.986 71.9251C153.986 73.3527 153.4 74.402 152.276 74.402Z" fill="black"/>
<path d="M157.768 76H160.037V71.3711C160.037 70.3644 160.772 69.6719 161.774 69.6719C162.088 69.6719 162.519 69.7252 162.732 69.7944V67.7809C162.53 67.733 162.248 67.701 162.019 67.701C161.102 67.701 160.351 68.2337 160.053 69.2458H159.968V67.8182H157.768V76Z" fill="black"/>
<path d="M163.906 76H166.175V71.0888C166.175 70.1833 166.75 69.5814 167.506 69.5814C168.252 69.5814 168.753 70.0927 168.753 70.8971V76H170.953V71.0036C170.953 70.1567 171.437 69.5814 172.263 69.5814C172.988 69.5814 173.531 70.0341 173.531 70.945V76H175.795V70.4976C175.795 68.7238 174.74 67.7117 173.217 67.7117C172.018 67.7117 171.086 68.3243 170.75 69.2618H170.665C170.404 68.3136 169.568 67.7117 168.444 67.7117C167.341 67.7117 166.505 68.2976 166.164 69.2618H166.068V67.8182H163.906V76Z" fill="black"/>
<path d="M179.92 76.1545C181.129 76.1545 181.912 75.6272 182.312 74.8655H182.376V76H184.528V70.4816C184.528 68.532 182.877 67.7117 181.055 67.7117C179.095 67.7117 177.806 68.6492 177.491 70.1407L179.59 70.3111C179.745 69.7678 180.229 69.3683 181.044 69.3683C181.817 69.3683 182.259 69.7571 182.259 70.4283V70.4603C182.259 70.9876 181.699 71.0569 180.277 71.1954C178.658 71.3445 177.204 71.8878 177.204 73.7149C177.204 75.3342 178.36 76.1545 179.92 76.1545ZM180.57 74.5885C179.872 74.5885 179.372 74.2635 179.372 73.6403C179.372 73.0011 179.899 72.6868 180.698 72.575C181.193 72.5057 182.003 72.3885 182.275 72.2074V73.0757C182.275 73.9333 181.566 74.5885 180.57 74.5885Z" fill="black"/>
<path d="M188.558 65.091H186.288V76H188.558V65.091Z" fill="black"/>
<path d="M191.702 76.1385C192.383 76.1385 192.975 75.5686 192.98 74.8601C192.975 74.1623 192.383 73.5924 191.702 73.5924C190.998 73.5924 190.418 74.1623 190.423 74.8601C190.418 75.5686 190.998 76.1385 191.702 76.1385Z" fill="black"/>
<path d="M196.169 76.1385C196.851 76.1385 197.442 75.5686 197.448 74.8601C197.442 74.1623 196.851 73.5924 196.169 73.5924C195.466 73.5924 194.886 74.1623 194.891 74.8601C194.886 75.5686 195.466 76.1385 196.169 76.1385Z" fill="black"/>
<path d="M200.637 76.1385C201.319 76.1385 201.91 75.5686 201.916 74.8601C201.91 74.1623 201.319 73.5924 200.637 73.5924C199.934 73.5924 199.353 74.1623 199.359 74.8601C199.353 75.5686 199.934 76.1385 200.637 76.1385Z" fill="black"/>
</svg>
