<svg width="590" height="436" viewBox="0 0 590 436" fill="none" xmlns="http://www.w3.org/2000/svg">
<path d="M511.838 284.691L519.823 253.454H466.882C456.505 253.454 446.423 256.906 438.224 263.267C430.025 269.628 424.175 278.536 421.597 288.588L416.188 309.775H479.536C486.941 309.775 494.136 307.31 499.985 302.768C505.834 298.226 510.004 291.866 511.838 284.691V284.691Z" fill="#FFB7D5"/>
<path d="M474.021 300.161L485.796 254.109" stroke="#A15842" stroke-width="2" stroke-linecap="round" stroke-linejoin="round"/>
<path d="M417.163 388.06V397.03H497.683V388.06H417.163Z" fill="#A15842"/>
<path d="M510.944 429.449L490.002 304.787H424.844L403.902 429.449C403.808 430.039 403.842 430.643 404.003 431.219C404.165 431.795 404.449 432.329 404.837 432.784C405.224 433.24 405.706 433.606 406.249 433.857C406.791 434.108 407.382 434.239 407.98 434.24V434.24C408.924 434.241 409.84 433.92 410.575 433.328C411.311 432.736 411.821 431.91 412.02 430.987L439.441 304.76H475.4L502.82 430.987C503.022 431.91 503.533 432.735 504.269 433.327C505.005 433.919 505.922 434.241 506.866 434.24C507.464 434.239 508.055 434.108 508.597 433.857C509.14 433.606 509.622 433.24 510.009 432.784C510.397 432.329 510.681 431.795 510.843 431.219C511.004 430.643 511.038 430.039 510.944 429.449V429.449Z" fill="#A15842"/>
<path d="M483.869 388.06V397.03H564.39V388.06H483.869Z" fill="#CA7358"/>
<path d="M577.65 429.449L556.708 304.787H491.551L470.603 429.449C470.51 430.039 470.545 430.643 470.707 431.219C470.869 431.795 471.154 432.329 471.542 432.784C471.93 433.24 472.412 433.605 472.955 433.857C473.497 434.108 474.088 434.238 474.686 434.24V434.24C475.63 434.241 476.546 433.92 477.282 433.328C478.017 432.736 478.527 431.91 478.727 430.987L506.147 304.76H542.085L569.506 430.987C569.707 431.909 570.219 432.735 570.955 433.327C571.691 433.919 572.607 434.241 573.551 434.24V434.24C574.151 434.242 574.744 434.113 575.289 433.863C575.835 433.614 576.319 433.248 576.709 432.792C577.099 432.336 577.385 431.801 577.548 431.224C577.71 430.647 577.745 430.041 577.65 429.449Z" fill="#CA7358"/>
<path d="M542.527 309.775H416.188L418.318 301.295H473.776L494.926 218.581C497.807 207.314 504.357 197.326 513.543 190.193C522.728 183.061 534.027 179.189 545.657 179.188V179.188C574.116 179.188 594.94 206.013 587.892 233.582L574.824 284.686C572.991 291.861 568.822 298.221 562.974 302.764C557.126 307.307 549.932 309.774 542.527 309.775V309.775Z" fill="#FFB7D5"/>
<rect x="432.309" y="77" width="116" height="207" fill="#F5F5F5"/>
<ellipse cx="490.309" cy="77.3616" rx="57.9999" ry="12.3606" fill="#FEC20A"/>
<ellipse cx="490.309" cy="283.311" rx="57.9999" ry="12.3606" fill="#F5F5F5"/>
<ellipse cx="490.309" cy="262.393" rx="25.6721" ry="12.3606" fill="#E1E1E1"/>
<ellipse cx="490.309" cy="73.5574" rx="52.295" ry="8.55736" fill="#F5F5F5"/>
<path d="M419.627 300.47H486.839" stroke="#A15842" stroke-width="2" stroke-linecap="round" stroke-linejoin="round"/>
<path d="M277.867 400.585L341.971 430.396C341.971 430.396 343.568 428.757 346.229 425.515L281.029 395.145C279.638 396.74 278.564 398.587 277.867 400.585V400.585Z" fill="#FF7235"/>
<path d="M486.706 301.407L484.726 309.205" stroke="#A15842" stroke-width="4" stroke-linecap="round" stroke-linejoin="round"/>
<path d="M191.475 388.06V397.03H271.995V388.06H191.475Z" fill="#A15842"/>
<path d="M178.214 429.449L199.156 304.787H264.319L285.261 429.449C285.356 430.04 285.321 430.644 285.16 431.22C284.998 431.797 284.713 432.331 284.325 432.786C283.937 433.242 283.454 433.608 282.911 433.859C282.368 434.11 281.776 434.24 281.178 434.24V434.24C280.235 434.24 279.32 433.917 278.585 433.325C277.85 432.734 277.339 431.909 277.138 430.987L249.717 304.787H213.758L186.338 431.014C186.136 431.935 185.625 432.761 184.891 433.352C184.156 433.944 183.241 434.266 182.297 434.266V434.266C181.696 434.267 181.102 434.136 180.557 433.884C180.011 433.631 179.527 433.263 179.139 432.804C178.75 432.346 178.466 431.808 178.306 431.229C178.147 430.649 178.115 430.042 178.214 429.449V429.449Z" fill="#A15842"/>
<path d="M124.768 388.06V397.03H205.289V388.06H124.768Z" fill="#CA7358"/>
<path d="M111.508 429.449L132.45 304.787H197.613L218.554 429.449C218.649 430.04 218.615 430.644 218.453 431.22C218.291 431.797 218.007 432.331 217.618 432.786C217.23 433.242 216.748 433.608 216.205 433.859C215.661 434.11 215.07 434.24 214.471 434.24C213.528 434.24 212.613 433.917 211.878 433.325C211.143 432.734 210.633 431.909 210.431 430.987L183.011 304.787H147.052L119.631 431.014C119.43 431.935 118.919 432.761 118.184 433.352C117.449 433.944 116.534 434.266 115.591 434.266V434.266C114.99 434.267 114.396 434.136 113.85 433.884C113.305 433.631 112.821 433.263 112.432 432.804C112.043 432.346 111.759 431.808 111.6 431.229C111.44 430.649 111.409 430.042 111.508 429.449V429.449Z" fill="#CA7358"/>
<path d="M177.325 284.691L169.34 253.454H222.281C232.658 253.453 242.741 256.905 250.94 263.266C259.14 269.627 264.989 278.536 267.566 288.588L272.975 309.748H209.627C202.225 309.751 195.033 307.29 189.184 302.753C183.336 298.216 179.163 291.862 177.325 284.691V284.691Z" fill="#3EC1F3"/>
<path d="M146.631 309.775H272.969L270.84 301.295H215.382L194.227 218.581C191.345 207.314 184.795 197.326 175.61 190.193C166.424 183.061 155.125 179.189 143.495 179.188V179.188C115.037 179.188 94.212 206.013 101.26 233.582L114.334 284.686C116.165 291.862 120.334 298.223 126.182 302.766C132.03 307.31 139.225 309.775 146.631 309.775V309.775Z" fill="#3EC1F3"/>
<path d="M269.531 300.47H202.318" stroke="#4756DF" stroke-width="4" stroke-miterlimit="10" stroke-linecap="round"/>
<path d="M215.142 300.161L203.362 254.109" stroke="#4756DF" stroke-width="4" stroke-miterlimit="10" stroke-linecap="round"/>
<path d="M202.712 302.482L204.432 309.205" stroke="#4756DF" stroke-width="4" stroke-linecap="round" stroke-linejoin="round"/>
<path d="M106.36 252.39H139.625" stroke="#4756DF" stroke-width="4" stroke-linecap="round" stroke-linejoin="round"/>
<path d="M193.13 416.412L192.46 417.956L10.9075 420.186C9.47511 420.186 8.05674 420.468 6.73338 421.017C5.41002 421.565 4.20759 422.368 3.19474 423.381C2.18188 424.394 1.37844 425.596 0.830291 426.92C0.282138 428.243 0 429.661 0 431.094V434.783H185.188H224.905C230.362 429.816 206.034 420.878 193.13 416.412Z" fill="#EAA58B"/>
<path d="M6.45703 434.25V430.311" stroke="#A15842" stroke-width="2" stroke-linecap="round" stroke-linejoin="round"/>
<path d="M11.4185 434.25V430.311" stroke="#A15842" stroke-width="2" stroke-linecap="round" stroke-linejoin="round"/>
<path d="M76.9539 423.38C74.5903 412.51 71.9979 378.425 71.753 375.167C71.3378 375.167 70.9226 375.199 70.502 375.226C55.107 376.216 45.674 396.077 43.1934 400.543C43.1934 400.543 34.0106 402.981 26.9253 406.245C27.9969 406.757 28.826 407.669 29.2356 408.784C30.2523 411.775 27.5747 415.39 23.2575 416.854C21.9698 417.301 20.6113 417.508 19.249 417.466C21.2027 428.56 30.9603 434.799 51.6361 434.799H87.4728C84.4651 434.091 78.7532 431.658 76.9539 423.38Z" fill="#EAA58B"/>
<path d="M192.747 393.181C189.143 397.711 176.724 401.789 172.279 391.11C163.293 395.837 142.149 391.11 144.017 370.056C122.191 374.368 100.472 387.889 99.3438 388.597C105.657 399.84 112.652 412.552 114.191 416.433C116.884 423.167 116.735 432.989 110.358 434.798H192.135C196.601 419.803 197.447 405.105 192.747 393.181Z" fill="#EAA58B"/>
<path d="M172.279 391.11C176.724 401.789 189.143 397.711 192.747 393.181C189.021 383.769 181.887 376.066 170.293 371.254C162.58 368.06 153.296 368.22 144.017 370.056C142.149 391.11 163.293 395.837 172.279 391.11Z" fill="#30242A"/>
<path d="M23.2575 416.854C27.5747 415.39 30.2524 411.776 29.2356 408.784C28.826 407.669 27.997 406.757 26.9253 406.245C22.4803 408.289 18.8658 410.658 18.8658 412.957C18.8625 414.469 18.9908 415.977 19.2491 417.466C20.6114 417.508 21.9699 417.301 23.2575 416.854V416.854Z" fill="#30242A"/>
<path d="M52.1313 434.266V431.11C52.1313 429.678 52.4133 428.26 52.9612 426.938C53.5091 425.615 54.3122 424.413 55.3245 423.401C56.3369 422.388 57.5387 421.585 58.8615 421.037C60.1842 420.49 61.6018 420.208 63.0335 420.208H79.4879" stroke="#A15842" stroke-width="2" stroke-linecap="round" stroke-linejoin="round"/>
<path d="M58.583 434.266V430.333" stroke="#A15842" stroke-width="2" stroke-linecap="round" stroke-linejoin="round"/>
<path d="M63.5498 434.266V430.333" stroke="#A15842" stroke-width="2" stroke-linecap="round" stroke-linejoin="round"/>
<path d="M131.566 434.266V430.333" stroke="#A15842" stroke-width="2" stroke-linecap="round" stroke-linejoin="round"/>
<path d="M136.533 434.266V430.333" stroke="#A15842" stroke-width="2" stroke-linecap="round" stroke-linejoin="round"/>
<path d="M124.614 434.266V431.11C124.614 429.678 124.896 428.259 125.444 426.936C125.992 425.613 126.796 424.411 127.809 423.399C128.822 422.386 130.024 421.583 131.348 421.036C132.671 420.488 134.089 420.207 135.521 420.208H153.621" stroke="#A15842" stroke-width="2" stroke-linecap="round" stroke-linejoin="round"/>
<path d="M131.071 393.096C130.075 398.062 132.061 412.957 140.999 419.904" stroke="#A15842" stroke-width="2" stroke-linecap="round" stroke-linejoin="round"/>
<path d="M38.2215 433.851C27.7026 432.041 21.6446 427.644 19.1533 421.075" stroke="#A15842" stroke-width="2" stroke-linecap="round" stroke-linejoin="round"/>
<path d="M196.601 418.147C196.012 423.555 194.944 428.899 193.407 434.117" stroke="#A15842" stroke-width="2" stroke-linecap="round" stroke-linejoin="round"/>
<path d="M57.5933 402.529C60.0583 404.723 63.231 405.957 66.5311 406.005" stroke="#A15842" stroke-width="2" stroke-linecap="round" stroke-linejoin="round"/>
<path d="M114.19 416.433C112.631 412.542 105.673 399.84 99.3437 388.598L99.2958 388.629C93.504 382.353 86.2963 374.672 71.7529 375.167C71.9978 378.425 74.5903 412.51 76.9538 423.38C78.7531 431.658 84.465 434.091 87.4727 434.799H110.363C116.751 432.989 116.884 423.167 114.19 416.433Z" fill="#30242A"/>
<path d="M33.7607 359.175L41.9321 354.182L38.3015 366.894L47.9101 361.182" stroke="#FFB7D5" stroke-width="2" stroke-linecap="round" stroke-linejoin="round"/>
<path d="M49.624 334.587L58.2318 333.9L50.1351 342.647L59.8235 341.971" stroke="#FFB7D5" stroke-width="2" stroke-linecap="round" stroke-linejoin="round"/>
<path d="M536.836 148.915L537.677 153.642C537.554 152.042 537.272 150.458 536.836 148.915V148.915Z" fill="#A15842"/>
<path d="M180.621 48.5487C194.027 48.5487 204.895 37.6807 204.895 24.2744C204.895 10.868 194.027 0 180.621 0C167.214 0 156.346 10.868 156.346 24.2744C156.346 37.6807 167.214 48.5487 180.621 48.5487Z" fill="#30242A"/>
<path d="M197.384 40.4574C195.898 41.1388 208.366 11.5571 214.722 16.1777C220.71 20.5375 204.895 36.9919 197.384 40.4574Z" fill="#3EC1F3"/>
<path d="M196.692 42.267C195.334 43.8906 163.538 32.7702 167.946 26.3503C172.162 20.1752 198.049 40.6434 196.692 42.267Z" fill="#3EC1F3"/>
<path d="M240.55 57.4546C235.935 58.2319 229.175 56.6455 229.175 56.6455C219.923 67.0473 210.096 69.3576 210.096 69.3576C203.74 62.4373 192.177 62.4373 190.447 72.2482C188.526 83.1237 202.004 86.1208 202.004 86.1208C202.004 86.1208 203.915 99.7165 198.714 106.653C197.985 107.622 197.314 108.473 196.644 109.224H222.425L221.658 104.619C221.658 104.619 229.749 107.51 236.686 103.464C243.622 99.4184 245.357 91.9019 243.042 80.3396C241.674 73.4938 241.722 65.0244 240.55 57.4546Z" fill="#EAA58B"/>
<path d="M231.927 204.544C220.508 211.001 214.546 223.41 214.546 223.41H254.263L242.451 199.721C237.745 201.754 233.332 203.734 231.927 204.544Z" fill="#FF7235"/>
<path d="M176.372 115.793C158.933 117.731 152.503 123.917 139.807 139.152C136.671 142.915 131.822 149.325 128.787 153.328L128.883 153.408C128.883 153.408 106.797 180.796 107.813 201.621L138.79 210.272L159.934 182.718L165.896 201.089C165.896 201.089 152.492 209.031 145.045 223.447H214.546C214.546 223.447 220.508 211.038 231.927 204.581C233.343 203.772 237.745 201.802 242.451 199.758L240.854 196.564L245.81 181.233L256.755 193.625C256.755 193.625 249.302 196.75 242.456 199.721L254.269 223.409H295.977C319.309 208.02 301.433 180.221 293.991 170.288C288.865 163.458 265.192 129.08 248.812 120.148C237.889 114.191 223.399 115.021 223.399 115.021L222.43 109.224H196.644C193.109 113.174 189.484 114.335 176.372 115.793Z" fill="#FF7235"/>
<path d="M256.723 192.518L265.687 189.154" stroke="#A15842" stroke-width="2" stroke-miterlimit="10" stroke-linecap="round"/>
<path d="M175.797 196.963C175.936 187.211 177.543 162.505 189.723 149.926C203.159 136.085 233.412 139.008 242.845 151.417C252.278 163.825 245.826 181.227 245.826 181.227L241.359 196.617L254.263 223.425H138.577L161.414 202.574L175.797 196.963Z" fill="#FFB7D5"/>
<path d="M175.824 196.601H241.322" stroke="#F5EBDD" stroke-width="2" stroke-miterlimit="10" stroke-linecap="round"/>
<path d="M204.123 175.75H229.441" stroke="#F5EBDD" stroke-width="2" stroke-miterlimit="10" stroke-linecap="round"/>
<path d="M250.793 196.106L263.697 225.917H238.874C233.913 225.917 227.455 225.917 227.956 223.431C223.979 226.412 217.527 225.917 218.022 223.431C211.571 226.412 209.585 224.426 209.09 223.431C208.595 222.435 215.047 213.998 229.441 206.013C237.804 201.424 250.793 196.106 250.793 196.106Z" fill="#EAA58B"/>
<path d="M215.046 225.395C215.046 225.395 222.499 217.942 238.874 209.015" stroke="#A15842" stroke-width="2" stroke-miterlimit="10" stroke-linecap="round"/>
<path d="M243.345 214.477C234.891 219.769 226.766 225.571 219.018 231.852" stroke="#A15842" stroke-width="2" stroke-miterlimit="10" stroke-linecap="round"/>
<path d="M248.307 220.434C234.929 227.386 220.024 236.819 220.024 236.819" stroke="#A15842" stroke-width="2" stroke-miterlimit="10" stroke-linecap="round"/>
<path d="M175.927 114.928L188.961 110.101C188.992 110.09 189.025 110.085 189.058 110.086C189.091 110.087 189.123 110.095 189.153 110.109C189.183 110.122 189.209 110.142 189.232 110.166C189.254 110.19 189.271 110.218 189.283 110.249L204.702 151.888C205.365 153.679 205.29 155.66 204.492 157.396C203.695 159.132 202.24 160.48 200.449 161.143C198.658 161.806 196.676 161.731 194.94 160.933C193.205 160.136 191.857 158.681 191.194 156.89L175.774 115.251C175.763 115.22 175.758 115.187 175.759 115.154C175.76 115.12 175.769 115.088 175.783 115.057C175.797 115.027 175.817 115 175.842 114.978C175.867 114.956 175.896 114.939 175.927 114.928V114.928Z" fill="#A15842"/>
<path d="M233.21 162.894C234.151 163.002 235.104 162.923 236.016 162.663C236.927 162.402 237.777 161.964 238.519 161.374C239.261 160.784 239.879 160.054 240.338 159.225C240.797 158.396 241.088 157.485 241.195 156.543L245.496 118.588C240.967 116.826 236.209 115.72 231.368 115.303L226.864 154.909C226.756 155.85 226.834 156.803 227.095 157.714C227.355 158.624 227.792 159.475 228.382 160.217C228.971 160.958 229.701 161.576 230.529 162.036C231.358 162.495 232.268 162.787 233.21 162.894Z" fill="#A15842"/>
<path d="M197.809 158.06C200.141 158.06 202.031 156.17 202.031 153.839C202.031 151.508 200.141 149.618 197.809 149.618C195.478 149.618 193.588 151.508 193.588 153.839C193.588 156.17 195.478 158.06 197.809 158.06Z" fill="#30242A"/>
<path d="M234.157 159.37C236.488 159.37 238.378 157.48 238.378 155.148C238.378 152.817 236.488 150.927 234.157 150.927C231.826 150.927 229.936 152.817 229.936 155.148C229.936 157.48 231.826 159.37 234.157 159.37Z" fill="#30242A"/>
<path d="M152.875 116.757L178.401 109.224H196.644C197.314 108.473 197.985 107.627 198.714 106.653C203.915 99.7326 202.004 86.1208 202.004 86.1208C202.004 86.1208 188.526 83.1238 190.447 72.2482C192.177 62.4267 203.756 62.4267 210.096 69.3577C210.096 69.3577 219.923 67.0474 229.175 56.6456C229.175 56.6456 235.935 58.2426 240.551 57.4547C239.741 52.2432 238.357 47.4628 235.531 43.9281C228.61 35.2564 209.521 29.4806 194.493 40.4627C179.465 51.4447 180.62 69.3577 181.185 76.294C181.185 76.294 165.002 71.0931 153.445 83.2143C150.1 86.6852 147.664 90.9282 146.353 95.5668C145.041 100.205 144.896 105.096 145.928 109.804C145.928 109.804 124.635 109.203 120.499 128.878C118.37 138.955 121.729 145.987 125.982 150.65L128.644 145.231L152.875 116.757Z" fill="#30242A"/>
<path d="M176.372 115.793C189.489 114.335 193.114 113.174 196.649 109.224H178.401L152.875 116.757L128.633 145.247L125.971 150.666C126.838 151.617 127.77 152.507 128.761 153.328C131.774 149.325 136.644 142.915 139.78 139.152C152.497 123.917 158.928 117.731 176.372 115.793Z" fill="#30242A"/>
<path d="M221.243 105.689C218.849 104.736 216.513 103.643 214.248 102.416" stroke="#A15842" stroke-width="2" stroke-linecap="round" stroke-linejoin="round"/>
<path d="M145.018 110.459C145.856 113.642 146.99 116.739 148.404 119.711" stroke="black" stroke-width="2" stroke-linecap="round" stroke-linejoin="round"/>
<path d="M180.109 76.7944L181.776 85.546" stroke="black" stroke-width="2" stroke-linecap="round" stroke-linejoin="round"/>
<path d="M160.749 183.213L172.348 166.812" stroke="#A15842" stroke-width="2" stroke-miterlimit="10" stroke-linecap="round"/>
<path d="M202.004 92.7695C205.356 92.7695 208.073 90.0525 208.073 86.7009C208.073 83.3493 205.356 80.6323 202.004 80.6323C198.653 80.6323 195.936 83.3493 195.936 86.7009C195.936 90.0525 198.653 92.7695 202.004 92.7695Z" fill="#F5EBDD"/>
<path d="M203.159 76.2939L198.539 73.4087" stroke="#A15842" stroke-width="2" stroke-linecap="round" stroke-linejoin="round"/>
<path d="M232.73 89.8632C231.772 90.4594 228.19 90.9278 226.742 88.165" stroke="#A15842" stroke-width="2" stroke-linecap="round" stroke-linejoin="round"/>
<path d="M223.314 76.8634C224.272 76.8634 225.049 76.0864 225.049 75.128C225.049 74.1696 224.272 73.3926 223.314 73.3926C222.355 73.3926 221.578 74.1696 221.578 75.128C221.578 76.0864 222.355 76.8634 223.314 76.8634Z" fill="#30242A"/>
<path d="M236.686 74.5641C237.644 74.5641 238.421 73.7871 238.421 72.8287C238.421 71.8702 237.644 71.0933 236.686 71.0933C235.727 71.0933 234.95 71.8702 234.95 72.8287C234.95 73.7871 235.727 74.5641 236.686 74.5641Z" fill="#30242A"/>
<path d="M232.06 77.4546C232.06 77.4546 233.657 81.4045 233.247 82.1923C232.975 82.6954 232.563 83.1081 232.06 83.3795" stroke="#A15842" stroke-width="2" stroke-linecap="round" stroke-linejoin="round"/>
<path d="M321.555 428.948H312.048C312.713 430.825 312.991 432.817 312.868 434.804H353C353.714 426.931 348.481 418.344 333.41 411.493L333.096 411.344C328.96 414.448 325.244 419.585 321.555 428.948Z" fill="#3EC1F3"/>
<path d="M332.697 411.152C320.161 404.935 322.423 391.28 326.075 360.309C325.21 358.8 323.91 357.586 322.346 356.825C320.782 356.063 319.025 355.789 317.303 356.039C315.581 356.289 313.975 357.05 312.691 358.225C311.407 359.399 310.507 360.932 310.105 362.625C309.648 360.731 308.567 359.045 307.036 357.84C305.506 356.634 303.614 355.979 301.665 355.979C299.717 355.979 297.825 356.634 296.294 357.84C294.763 359.045 293.682 360.731 293.225 362.625C292.768 360.731 291.687 359.045 290.156 357.84C288.625 356.634 286.733 355.979 284.785 355.979C282.836 355.979 280.944 356.634 279.414 357.84C277.883 359.045 276.802 360.731 276.345 362.625C275.888 360.731 274.807 359.045 273.276 357.84C271.745 356.634 269.853 355.979 267.905 355.979C265.956 355.979 264.064 356.634 262.533 357.84C261.002 359.045 259.922 360.731 259.465 362.625C259.007 360.731 257.927 359.045 256.396 357.84C254.865 356.634 252.973 355.979 251.024 355.979C249.076 355.979 247.184 356.634 245.653 357.84C244.122 359.045 243.041 360.731 242.584 362.625C242.264 361.293 241.634 360.055 240.743 359.014C239.853 357.973 238.729 357.157 237.463 356.634C236.196 356.111 234.824 355.895 233.458 356.005C232.093 356.115 230.773 356.546 229.606 357.264C229.659 360.006 229.766 362.87 229.936 365.899C230.745 380.234 233.982 399.409 236.761 413.889C250.303 414.613 255.791 424.61 257.521 428.948H280.321C280.529 428.416 280.731 427.921 280.939 427.42L281.067 427.117C281.264 426.654 281.455 426.201 281.652 425.76C281.7 425.642 281.753 425.536 281.801 425.424C281.977 425.03 282.153 424.652 282.334 424.28L282.493 423.944C282.66 423.589 282.825 423.254 282.988 422.938L283.212 422.486L283.712 421.522L284 420.99C284.096 420.809 284.197 420.633 284.292 420.458C284.463 420.154 284.638 419.856 284.825 419.563C284.899 419.446 284.969 419.329 285.038 419.212C285.437 418.557 285.836 417.94 286.241 417.359L286.315 417.248C286.544 416.923 286.773 416.609 287.002 416.3C288.393 414.408 290.046 412.723 291.91 411.296C292.336 411.53 292.778 411.754 293.246 411.967C304.335 417.003 310.095 422.991 312.086 428.927H321.556C325.245 419.563 328.961 414.426 333.091 411.317L332.697 411.152Z" fill="#F5EBDD"/>
<path d="M312.048 428.948H312.086C310.095 423.013 304.335 417.024 293.246 411.988C292.778 411.775 292.336 411.552 291.91 411.317C290.106 412.697 288.503 414.32 287.146 416.14V416.14L287.05 416.268L287.007 416.321C286.778 416.63 286.55 416.944 286.321 417.269L286.246 417.381C285.842 417.961 285.442 418.578 285.043 419.233C284.974 419.35 284.905 419.467 284.83 419.585C284.66 419.877 284.484 420.175 284.298 420.479C284.202 420.649 284.101 420.825 284.005 421.011L283.718 421.544L283.217 422.507L282.994 422.959C282.83 423.282 282.665 423.618 282.499 423.966L282.339 424.301C282.168 424.674 281.993 425.052 281.806 425.446C281.759 425.557 281.705 425.664 281.657 425.781C281.46 426.223 281.269 426.675 281.072 427.138L280.944 427.442C280.737 427.942 280.534 428.448 280.327 428.97H257.548C255.797 424.631 250.308 414.634 236.787 413.91C239.103 425.999 241.104 434.82 241.104 434.82H312.868C312.994 432.827 312.715 430.83 312.048 428.948V428.948Z" fill="#3EC1F3"/>
<path d="M157.453 246.342V237.292H140.483C139.068 245.379 139.402 253.674 141.462 261.62H142.154C146.208 261.62 150.096 260.011 152.965 257.147C155.833 254.282 157.448 250.396 157.453 246.342Z" fill="#A15842"/>
<path d="M309.083 248.189L308.274 247.732C302.61 247.513 295.668 248.062 287.273 249.951L287.14 249.983C286.464 250.132 285.777 250.297 285.08 250.468L284.692 250.564C284.021 250.729 283.345 250.904 282.658 251.096L282.248 251.202C281.498 251.405 280.742 251.623 279.97 251.847L279.735 251.91C278.873 252.166 277.995 252.443 277.106 252.709C246.108 262.424 232.358 286.778 228.222 301.875H237.388C234.652 314.609 229.036 328.119 229.606 357.264C230.773 356.544 232.094 356.111 233.461 356C234.828 355.889 236.202 356.104 237.469 356.627C238.737 357.151 239.863 357.967 240.754 359.01C241.644 360.052 242.275 361.291 242.595 362.625C243.052 360.731 244.133 359.045 245.663 357.84C247.194 356.635 249.086 355.979 251.035 355.979C252.983 355.979 254.875 356.635 256.406 357.84C257.937 359.045 259.018 360.731 259.475 362.625C259.932 360.731 261.013 359.045 262.544 357.84C264.075 356.635 265.967 355.979 267.915 355.979C269.864 355.979 271.755 356.635 273.286 357.84C274.817 359.045 275.898 360.731 276.355 362.625C276.812 360.731 277.893 359.045 279.424 357.84C280.955 356.635 282.847 355.979 284.795 355.979C286.744 355.979 288.636 356.635 290.167 357.84C291.698 359.045 292.778 360.731 293.235 362.625C293.693 360.731 294.773 359.045 296.304 357.84C297.835 356.635 299.727 355.979 301.676 355.979C303.624 355.979 305.516 356.635 307.047 357.84C308.578 359.045 309.659 360.731 310.116 362.625C310.517 360.932 311.418 359.399 312.701 358.225C313.985 357.05 315.592 356.289 317.314 356.039C319.035 355.789 320.792 356.063 322.357 356.825C323.921 357.586 325.22 358.8 326.086 360.309C326.953 352.936 327.901 344.584 328.747 335.119C333.624 280.38 337.339 264.324 309.083 248.189Z" fill="#EAA58B"/>
<path d="M312.894 434.431C313.161 426.814 307.773 418.589 293.246 411.988C276.802 404.535 284.116 385.59 288.577 335.614C293.56 279.805 297.334 264.207 267.231 247.737C240.918 233.364 214.109 223.91 214.109 223.91" stroke="#30242A" stroke-width="2" stroke-miterlimit="10" stroke-linecap="round"/>
<path d="M277.106 252.704C244.724 262.876 232.171 286.842 228.2 301.87C232.358 286.784 246.108 262.44 277.106 252.704Z" fill="#A15842"/>
<path d="M259.23 248.237C270.346 243.002 282.528 240.429 294.811 240.721C281.612 234.233 268.077 228.455 254.263 223.409H145.045C145.045 223.409 142.063 228.376 140.525 237.048C140.525 237.138 140.498 237.223 140.482 237.314H157.453V246.363C157.453 248.372 157.057 250.362 156.289 252.218C155.52 254.074 154.393 255.761 152.972 257.182C151.551 258.602 149.865 259.729 148.009 260.498C146.153 261.267 144.163 261.663 142.154 261.663H141.462C147.408 284.468 167.269 301.891 192.731 301.891H214.439C218.852 285.548 228.69 262.578 259.23 248.237Z" fill="#FFB7D5"/>
<path d="M277.106 252.704C290.238 248.578 300.47 247.434 308.274 247.732L307.39 247.242C303.174 244.937 298.942 242.755 294.811 240.721C282.528 240.429 270.346 243.003 259.23 248.238C228.69 262.579 218.852 285.549 214.439 301.87H228.2C232.171 286.842 244.724 262.877 277.106 252.704Z" fill="#A15842"/>
<path d="M238.123 303.243H249.909" stroke="#A15842" stroke-width="2" stroke-linecap="round" stroke-linejoin="round"/>
<path d="M282.397 194.121V219.438" stroke="#30242A" stroke-width="2" stroke-miterlimit="10" stroke-linecap="round"/>
<path d="M295.205 160.232C295.205 160.232 291.548 168.004 282.397 168.004C273.246 168.004 269.621 160.232 269.621 160.232" stroke="#30242A" stroke-width="2" stroke-linecap="round" stroke-linejoin="round"/>
<path d="M271.314 177.24H293.486V179.556C293.486 182.497 292.317 185.317 290.238 187.397C288.158 189.476 285.338 190.644 282.397 190.644V190.644C279.456 190.644 276.636 189.476 274.556 187.397C272.477 185.317 271.309 182.497 271.309 179.556V177.24H271.314Z" fill="#A15842"/>
<path d="M270.995 159.364H293.805C294.133 159.364 294.458 159.429 294.761 159.554C295.064 159.68 295.339 159.864 295.571 160.096C295.802 160.327 295.986 160.603 296.112 160.905C296.237 161.208 296.302 161.533 296.302 161.861V179.721C296.302 183.407 294.837 186.942 292.231 189.549C289.624 192.155 286.089 193.62 282.403 193.62V193.62C280.577 193.62 278.77 193.26 277.084 192.562C275.397 191.863 273.865 190.84 272.574 189.549C271.284 188.258 270.26 186.726 269.561 185.04C268.863 183.353 268.503 181.546 268.503 179.721V161.861C268.503 161.199 268.766 160.564 269.235 160.096C269.703 159.627 270.338 159.364 271 159.364H270.995Z" stroke="#30242A" stroke-width="2" stroke-miterlimit="10" stroke-linecap="round"/>
<path d="M282.397 216.958L271.314 223.409H293.486L282.397 216.958Z" fill="#30232A"/>
<path d="M414.416 194.121V219.438" stroke="#30242A" stroke-width="2" stroke-miterlimit="10" stroke-linecap="round"/>
<path d="M427.224 160.232C427.224 160.232 423.566 168.004 414.416 168.004C405.265 168.004 401.64 160.232 401.64 160.232" stroke="#30242A" stroke-width="2" stroke-linecap="round" stroke-linejoin="round"/>
<path d="M403.332 177.24H425.504V179.556C425.504 182.497 424.336 185.317 422.256 187.397C420.177 189.476 417.356 190.644 414.416 190.644V190.644C411.475 190.644 408.654 189.476 406.575 187.397C404.495 185.317 403.327 182.497 403.327 179.556V177.24H403.332Z" fill="#FF7235"/>
<path d="M403.013 159.364H425.824C426.152 159.364 426.476 159.429 426.779 159.554C427.082 159.68 427.357 159.864 427.589 160.096C427.821 160.327 428.005 160.603 428.13 160.905C428.256 161.208 428.32 161.533 428.32 161.861V179.721C428.32 183.407 426.856 186.942 424.249 189.549C421.643 192.155 418.107 193.62 414.421 193.62V193.62C410.735 193.62 407.2 192.155 404.593 189.549C401.986 186.942 400.522 183.407 400.522 179.721V161.861C400.522 161.199 400.785 160.564 401.253 160.096C401.721 159.627 402.356 159.364 403.019 159.364H403.013Z" stroke="#30242A" stroke-width="2" stroke-miterlimit="10" stroke-linecap="round"/>
<path d="M414.416 216.958L403.333 223.409H425.504L414.416 216.958Z" fill="#30232A"/>
<path d="M142.063 191.64C142.063 191.64 165.401 189.723 175.467 189.255" stroke="#A15842" stroke-width="2" stroke-miterlimit="10" stroke-linecap="round"/>
<path d="M114.35 284.691L106.365 253.454H152.95C163.327 253.454 173.409 256.906 181.608 263.267C189.807 269.628 195.657 278.536 198.235 288.588L203.644 309.748H146.647C139.246 309.75 132.055 307.288 126.207 302.751C120.36 298.214 116.188 291.861 114.35 284.691V284.691Z" fill="#3EC1F3"/>
<path d="M314.763 382.854L323.813 397.226" stroke="#F5EBDD" stroke-width="4" stroke-miterlimit="10" stroke-linecap="round"/>
<path d="M308.375 386.048L314.231 400.421" stroke="#F5EBDD" stroke-width="4" stroke-miterlimit="10" stroke-linecap="round"/>
<path d="M484.654 308.817H541.985H541.986C549.386 308.819 556.573 306.421 562.415 302.006C568.257 297.592 572.419 291.414 574.253 284.447L484.654 308.817ZM484.654 308.817L489.895 288.862C489.895 288.862 489.895 288.861 489.895 288.861C492.49 279.006 498.378 270.266 506.638 264.023C514.898 257.779 525.06 254.389 535.522 254.39H535.522H582.14M484.654 308.817L582.14 254.39M582.14 254.39L574.254 284.447L582.14 254.39Z" fill="#FFB7D5" stroke="#A15842" stroke-width="2"/>
<path d="M509.453 223.409H178.305C174.742 223.409 171.853 226.298 171.853 229.861V229.866C171.853 233.43 174.742 236.318 178.305 236.318H509.453C513.016 236.318 515.905 233.43 515.905 229.866V229.861C515.905 226.298 513.016 223.409 509.453 223.409Z" fill="#A15842"/>
<path d="M218.523 193.625C213.918 191.533 202.137 189.654 190.719 189.654C188.547 189.654 186.21 189.692 183.767 189.761V221.946C189.42 220.189 194.078 218.528 197.171 217.453C197.171 217.453 219.901 234.817 223.952 226.875C223.952 226.875 229.883 229.27 231.405 223.409C231.405 223.409 238.357 223.409 235.877 218.448C234.205 215.063 226.944 207.525 226.944 207.525C226.944 207.525 235.568 212.726 239.853 209.51C243.84 206.545 223.979 196.106 218.523 193.625Z" fill="#EAA58B"/>
<path d="M140.573 192.63L108.303 194.121C105.327 210.005 113.626 226.391 127.664 228.871C146.131 232.129 168.547 226.678 183.767 221.951V189.761C165.119 190.304 140.573 192.63 140.573 192.63Z" fill="#FF7235"/>
<path d="M227.892 206.934C223.984 203.814 218.645 199.619 215.046 197.096" stroke="#A15842" stroke-width="2" stroke-miterlimit="10" stroke-linecap="round"/>
<path d="M209.09 202.984C218.848 209.776 227.626 218.741 231.794 223.25" stroke="#A15842" stroke-width="2" stroke-miterlimit="10" stroke-linecap="round"/>
<path d="M204.501 210C211.059 214.791 218.571 222.031 223.473 226.971" stroke="#A15842" stroke-width="2" stroke-miterlimit="10" stroke-linecap="round"/>
<path d="M286.864 80.1066C287.645 79.3255 287.645 78.0592 286.864 77.2782L274.136 64.5502C273.355 63.7692 272.089 63.7692 271.308 64.5502C270.527 65.3313 270.527 66.5976 271.308 67.3787L282.622 78.6924L271.308 90.0061C270.527 90.7871 270.527 92.0535 271.308 92.8345C272.089 93.6156 273.355 93.6156 274.136 92.8345L286.864 80.1066ZM252.309 80.6924H285.45V76.6924H252.309V80.6924Z" fill="white" fill-opacity="0.4"/>
<path d="M421.723 80.1066C422.504 79.3255 422.504 78.0592 421.723 77.2782L408.995 64.5502C408.214 63.7692 406.948 63.7692 406.167 64.5502C405.386 65.3313 405.386 66.5976 406.167 67.3787L417.481 78.6924L406.167 90.0061C405.386 90.7871 405.386 92.0535 406.167 92.8345C406.948 93.6156 408.214 93.6156 408.995 92.8345L421.723 80.1066ZM387.168 80.6924H420.309V76.6924H387.168V80.6924Z" fill="white" fill-opacity="0.4"/>
<rect x="295.309" y="57" width="80" height="47" rx="8" fill="url(#paint0_linear)"/>
<path d="M316.175 78.546H318.855C318.588 76.3634 316.64 74.8174 314.105 74.8174C311.179 74.8174 308.868 76.8769 308.868 80.4611C308.868 83.9275 310.997 86.0727 314.137 86.0727C316.956 86.0727 318.973 84.3234 318.973 81.3812V79.9315H314.249V81.8626H316.421C316.394 83.0181 315.592 83.751 314.158 83.751C312.516 83.751 311.569 82.5367 311.569 80.429C311.569 78.3373 312.57 77.1391 314.158 77.1391C315.217 77.1391 315.94 77.658 316.175 78.546Z" fill="white"/>
<path d="M322.04 85.9229H324.688V82.5206H326.485C328.994 82.5206 330.562 81.0335 330.562 78.7599C330.562 76.5078 329.026 74.9672 326.566 74.9672H322.04V85.9229ZM324.688 80.4343V77.1016H325.993C327.181 77.1016 327.817 77.7435 327.817 78.7599C327.817 79.771 327.181 80.4343 325.993 80.4343H324.688Z" fill="white"/>
<path d="M333.015 77.1177H336.342V85.9229H338.953V77.1177H342.275V74.9672H333.015V77.1177Z" fill="white"/>
<path d="M350.112 79.434H345.041V81.4507H350.112V79.434Z" fill="white"/>
<path d="M357.582 86.0727C360.15 86.0727 361.974 84.7139 361.969 82.8095C361.974 81.4614 361.091 80.4985 359.401 80.3006V80.215C360.669 80.0331 361.567 79.1825 361.562 77.9522C361.567 76.1654 359.952 74.8174 357.603 74.8174C355.239 74.8174 353.516 76.1868 353.495 78.1341H356.025C356.047 77.3851 356.721 76.8823 357.603 76.8823C358.443 76.8823 359.016 77.3905 359.01 78.1234C359.016 78.883 358.342 79.4072 357.368 79.4072H356.304V81.2902H357.368C358.475 81.2902 359.198 81.8359 359.187 82.6062C359.198 83.3819 358.534 83.9222 357.593 83.9222C356.657 83.9222 355.967 83.4247 355.94 82.7025H353.276C353.297 84.6818 355.079 86.0727 357.582 86.0727Z" fill="white"/>
<defs>
<linearGradient id="paint0_linear" x1="295.309" y1="61.5192" x2="377.789" y2="71.8115" gradientUnits="userSpaceOnUse">
<stop stop-color="#E8AB0E"/>
<stop offset="1" stop-color="#E4969B"/>
</linearGradient>
</defs>
</svg>
