<svg width="317" height="85" viewBox="0 0 317 85" fill="none" xmlns="http://www.w3.org/2000/svg">
<path opacity="0.2" fill-rule="evenodd" clip-rule="evenodd" d="M70 12C64.4772 12 60 16.4772 60 22V47C60 52.5228 64.4771 57 70 57H191.49C205.32 63.7533 211.563 72.2651 213.095 77C214.746 69.3442 214.018 62.6831 211.889 57H247C252.523 57 257 52.5228 257 47V22C257 16.4772 252.523 12 247 12H70Z" fill="black"/>
<path d="M82.8285 38.9999L83.6382 36.5123H87.5746L88.3843 38.9999H90.8559L87.0952 28.0908H84.1229L80.3569 38.9999H82.8285ZM84.2241 34.7119L85.5665 30.5837H85.6517L86.994 34.7119H84.2241Z" fill="black"/>
<path d="M94.3955 28.0908H92.1263V38.9999H94.3955V28.0908Z" fill="black"/>
<path d="M99.9419 39.1597C101.966 39.1597 103.33 38.1743 103.649 36.6562L101.551 36.5177C101.322 37.1409 100.736 37.4658 99.9792 37.4658C98.8446 37.4658 98.1255 36.7148 98.1255 35.4949V35.4896H103.697V34.8664C103.697 32.0858 102.014 30.7116 99.8513 30.7116C97.4437 30.7116 95.8829 32.4214 95.8829 34.9463C95.8829 37.5404 97.4224 39.1597 99.9419 39.1597ZM98.1255 34.0834C98.1734 33.1512 98.8819 32.4055 99.8886 32.4055C100.874 32.4055 101.556 33.1086 101.561 34.0834H98.1255Z" fill="black"/>
<path d="M106.943 30.8181H104.599L106.943 34.909L104.514 38.9999H106.857L108.445 36.1714L110.059 38.9999H112.376L109.941 34.909L112.312 30.8181H109.984L108.445 33.6785L106.943 30.8181Z" fill="black"/>
<path d="M115.949 39.1544C117.158 39.1544 117.941 38.627 118.34 37.8653H118.404V38.9999H120.556V33.4814C120.556 31.5319 118.905 30.7116 117.083 30.7116C115.123 30.7116 113.834 31.6491 113.52 33.1405L115.618 33.311C115.773 32.7677 116.258 32.3682 117.073 32.3682C117.845 32.3682 118.287 32.757 118.287 33.4282V33.4601C118.287 33.9875 117.728 34.0567 116.306 34.1952C114.686 34.3444 113.232 34.8877 113.232 36.7148C113.232 38.3341 114.388 39.1544 115.949 39.1544ZM116.598 37.5883C115.901 37.5883 115.4 37.2634 115.4 36.6402C115.4 36.001 115.927 35.6867 116.726 35.5748C117.222 35.5056 118.031 35.3884 118.303 35.2073V36.0756C118.303 36.9331 117.595 37.5883 116.598 37.5883Z" fill="black"/>
<path d="M124.783 37.5084H122.908L122.881 38.105C122.817 39.5539 122.402 41.04 122.247 41.6633H123.718C123.973 41.0187 124.581 39.5059 124.724 38.0944L124.783 37.5084Z" fill="black"/>
<path d="M134.169 30.8181H132.629V28.8579H130.36V30.8181H129.241V32.5226H130.36V36.784C130.349 38.3873 131.441 39.181 133.087 39.1118C133.673 39.0905 134.089 38.9733 134.318 38.8987L133.961 37.2101C133.849 37.2314 133.609 37.2847 133.396 37.2847C132.943 37.2847 132.629 37.1143 132.629 36.4857V32.5226H134.169V30.8181Z" fill="black"/>
<path d="M139.288 39.1597C141.312 39.1597 142.675 38.1743 142.995 36.6562L140.896 36.5177C140.667 37.1409 140.081 37.4658 139.325 37.4658C138.19 37.4658 137.471 36.7148 137.471 35.4949V35.4896H143.043V34.8664C143.043 32.0858 141.36 30.7116 139.197 30.7116C136.789 30.7116 135.229 32.4214 135.229 34.9463C135.229 37.5404 136.768 39.1597 139.288 39.1597ZM137.471 34.0834C137.519 33.1512 138.228 32.4055 139.234 32.4055C140.22 32.4055 140.902 33.1086 140.907 34.0834H137.471Z" fill="black"/>
<path d="M146.793 28.0908H144.524V38.9999H146.793V28.0908Z" fill="black"/>
<path d="M150.88 28.0908H148.611V38.9999H150.88V28.0908Z" fill="black"/>
<path d="M156.169 38.9999H158.438V34.0887C158.438 33.1832 159.014 32.5812 159.77 32.5812C160.516 32.5812 161.017 33.0926 161.017 33.8969V38.9999H163.216V34.0035C163.216 33.1565 163.701 32.5812 164.527 32.5812C165.251 32.5812 165.795 33.034 165.795 33.9449V38.9999H168.058V33.4974C168.058 31.7236 167.004 30.7116 165.48 30.7116C164.282 30.7116 163.35 31.3241 163.014 32.2616H162.929C162.668 31.3135 161.832 30.7116 160.708 30.7116C159.605 30.7116 158.769 31.2975 158.428 32.2616H158.332V30.8181H156.169V38.9999Z" fill="black"/>
<path d="M173.58 39.1597C175.604 39.1597 176.967 38.1743 177.287 36.6562L175.188 36.5177C174.959 37.1409 174.373 37.4658 173.617 37.4658C172.482 37.4658 171.763 36.7148 171.763 35.4949V35.4896H177.335V34.8664C177.335 32.0858 175.652 30.7116 173.489 30.7116C171.081 30.7116 169.521 32.4214 169.521 34.9463C169.521 37.5404 171.06 39.1597 173.58 39.1597ZM171.763 34.0834C171.811 33.1512 172.52 32.4055 173.526 32.4055C174.512 32.4055 175.194 33.1086 175.199 34.0834H171.763Z" fill="black"/>
<path d="M184.621 39.1544C185.83 39.1544 186.613 38.627 187.012 37.8653H187.076V38.9999H189.228V33.4814C189.228 31.5319 187.577 30.7116 185.755 30.7116C183.795 30.7116 182.506 31.6491 182.192 33.1405L184.29 33.311C184.445 32.7677 184.929 32.3682 185.744 32.3682C186.517 32.3682 186.959 32.757 186.959 33.4282V33.4601C186.959 33.9875 186.4 34.0567 184.977 34.1952C183.358 34.3444 181.904 34.8877 181.904 36.7148C181.904 38.3341 183.06 39.1544 184.621 39.1544ZM185.27 37.5883C184.573 37.5883 184.072 37.2634 184.072 36.6402C184.072 36.001 184.599 35.6867 185.398 35.5748C185.894 35.5056 186.703 35.3884 186.975 35.2073V36.0756C186.975 36.9331 186.266 37.5883 185.27 37.5883Z" fill="black"/>
<path d="M201.268 33.1512C201.065 31.6437 199.851 30.7116 197.784 30.7116C195.691 30.7116 194.311 31.681 194.316 33.2577C194.311 34.4829 195.083 35.2765 196.682 35.5961L198.098 35.8785C198.812 36.0223 199.137 36.2833 199.148 36.6934C199.137 37.1782 198.61 37.5244 197.816 37.5244C197.006 37.5244 196.468 37.1782 196.33 36.5123L194.098 36.6295C194.311 38.1956 195.643 39.1597 197.811 39.1597C199.931 39.1597 201.449 38.0784 201.454 36.4644C201.449 35.2819 200.677 34.5734 199.089 34.2485L197.608 33.9502C196.847 33.7851 196.564 33.5241 196.57 33.1299C196.564 32.6398 197.118 32.3202 197.821 32.3202C198.61 32.3202 199.079 32.7517 199.19 33.279L201.268 33.1512Z" fill="black"/>
<path d="M207.235 30.8181H205.696V28.8579H203.426V30.8181H202.308V32.5226H203.426V36.784C203.416 38.3873 204.508 39.181 206.154 39.1118C206.74 39.0905 207.155 38.9733 207.384 38.8987L207.027 37.2101C206.915 37.2314 206.676 37.2847 206.463 37.2847C206.01 37.2847 205.696 37.1143 205.696 36.4857V32.5226H207.235V30.8181Z" fill="black"/>
<path d="M212.322 39.1597C214.804 39.1597 216.349 37.4605 216.349 34.941C216.349 32.4055 214.804 30.7116 212.322 30.7116C209.84 30.7116 208.295 32.4055 208.295 34.941C208.295 37.4605 209.84 39.1597 212.322 39.1597ZM212.333 37.4019C211.187 37.4019 210.602 36.3525 210.602 34.925C210.602 33.4974 211.187 32.4427 212.333 32.4427C213.457 32.4427 214.043 33.4974 214.043 34.925C214.043 36.3525 213.457 37.4019 212.333 37.4019Z" fill="black"/>
<path d="M217.825 38.9999H220.094V34.371C220.094 33.3643 220.829 32.6718 221.83 32.6718C222.144 32.6718 222.576 32.7251 222.789 32.7943V30.7808C222.587 30.7329 222.304 30.7009 222.075 30.7009C221.159 30.7009 220.408 31.2336 220.11 32.2457H220.024V30.8181H217.825V38.9999Z" fill="black"/>
<path d="M225.612 42.0681C227.301 42.0681 228.196 41.2052 228.659 39.8841L231.839 30.8287L229.437 30.8181L227.727 36.8266H227.642L225.948 30.8181H223.561L226.496 39.2343L226.363 39.5805C226.065 40.3476 225.495 40.3849 224.696 40.1398L224.185 41.8337C224.51 41.9722 225.037 42.0681 225.612 42.0681Z" fill="black"/>
<path d="M233.814 39.1384C234.496 39.1384 235.087 38.5684 235.092 37.86C235.087 37.1622 234.496 36.5922 233.814 36.5922C233.111 36.5922 232.53 37.1622 232.536 37.86C232.53 38.5684 233.111 39.1384 233.814 39.1384Z" fill="black"/>
</svg>
