<svg width="588" height="385" viewBox="0 0 588 385" fill="none" xmlns="http://www.w3.org/2000/svg">
<path d="M253 149.221C253.833 120.721 266.6 63.6209 311 63.2209C355.4 62.8209 371.5 63.0542 374 63.2209" stroke="#E8AB0E" stroke-width="5"/>
<circle cx="54" cy="304" r="13" fill="#E8AB0E"/>
<circle cx="13" cy="311" r="13" fill="#C4C4C4"/>
<circle cx="95" cy="297" r="13" fill="#C4C4C4"/>
<circle cx="115" cy="325" r="13" fill="#E8AB0E"/>
<circle cx="108" cy="364" r="13" fill="#E8AB0E"/>
<circle cx="135" cy="278" r="13" fill="#C4C4C4"/>
<circle cx="147" cy="313" r="13" fill="#C4C4C4"/>
<circle cx="147" cy="353" r="13" fill="#C4C4C4"/>
<circle cx="65" cy="372" r="13" fill="#C4C4C4"/>
<circle cx="69" cy="262" r="13" fill="#C4C4C4"/>
<circle cx="80" cy="335" r="13" fill="#E8AB0E"/>
<circle cx="33" cy="346" r="13" fill="#C4C4C4"/>
<circle cx="106" cy="262" r="13" fill="#E8AB0E"/>
<circle cx="28" cy="275" r="13" fill="#E8AB0E"/>
<rect x="488" y="282" width="59" height="18" fill="#E8AB0E"/>
<path d="M574.198 291.38L545.526 308.414L545.873 273.775L574.198 291.38Z" fill="#E8AB0E"/>
<rect x="547.539" y="341.378" width="59" height="18" transform="rotate(179.725 547.539 341.378)" fill="#BCBEC0"/>
<path d="M461.297 332.413L489.886 315.241L489.706 349.882L461.297 332.413Z" fill="#BCBEC0"/>
<path d="M222.327 16.0001H232.104V13.3378H225.556V0.727362H222.327V16.0001Z" fill="#283849"/>
<path d="M237.264 16.0001L238.398 12.5175H243.909L245.042 16.0001H248.503L243.238 0.727362H239.076L233.804 16.0001H237.264ZM239.218 9.99689L241.097 4.21742H241.217L243.096 9.99689H239.218Z" fill="#283849"/>
<path d="M263.115 0.727362H259.901V10.3325H259.767L253.175 0.727362H250.341V16.0001H253.57V6.38752H253.682L260.326 16.0001H263.115V0.727362Z" fill="#283849"/>
<path d="M275.91 5.66415H279.192C278.774 2.64391 276.112 0.518555 272.659 0.518555C268.624 0.518555 265.515 3.42694 265.515 8.37864C265.515 13.211 268.423 16.2089 272.726 16.2089C276.581 16.2089 279.333 13.7703 279.333 9.7508V7.82679H272.942V10.2579H276.224C276.179 12.1521 274.889 13.3527 272.741 13.3527C270.317 13.3527 268.789 11.5406 268.789 8.34881C268.789 5.17196 270.377 3.37473 272.711 3.37473C274.374 3.37473 275.5 4.23233 275.91 5.66415Z" fill="#283849"/>
<path d="M291.192 0.727362V10.3698C291.192 12.1148 289.969 13.3751 288.09 13.3751C286.218 13.3751 284.988 12.1148 284.988 10.3698V0.727362H281.759V10.6457C281.759 13.9866 284.279 16.2164 288.09 16.2164C291.886 16.2164 294.421 13.9866 294.421 10.6457V0.727362H291.192Z" fill="#283849"/>
<path d="M299.711 16.0001L300.844 12.5175H306.355L307.489 16.0001H310.949L305.684 0.727362H301.523L296.25 16.0001H299.711ZM301.664 9.99689L303.544 4.21742H303.663L305.542 9.99689H301.664Z" fill="#283849"/>
<path d="M322.196 5.66415H325.478C325.06 2.64391 322.398 0.518555 318.945 0.518555C314.911 0.518555 311.801 3.42694 311.801 8.37864C311.801 13.211 314.709 16.2089 319.012 16.2089C322.868 16.2089 325.619 13.7703 325.619 9.7508V7.82679H319.228V10.2579H322.51C322.465 12.1521 321.175 13.3527 319.027 13.3527C316.603 13.3527 315.075 11.5406 315.075 8.34881C315.075 5.17196 316.663 3.37473 318.997 3.37473C320.66 3.37473 321.786 4.23233 322.196 5.66415Z" fill="#283849"/>
<path d="M328.045 16.0001H338.366V13.3378H331.274V9.69114H337.807V7.02885H331.274V3.38965H338.336V0.727362H328.045V16.0001Z" fill="#283849"/>
<path d="M345.764 0.727362V16.0001H348.896V6.02211H349.023L352.975 15.9255H355.108L359.06 6.05939H359.187V16.0001H362.319V0.727362H358.337L354.131 10.9887H353.952L349.746 0.727362H345.764Z" fill="#283849"/>
<path d="M379.014 8.36373C379.014 3.36728 375.912 0.518555 371.863 0.518555C367.791 0.518555 364.711 3.36728 364.711 8.36373C364.711 13.3378 367.791 16.2089 371.863 16.2089C375.912 16.2089 379.014 13.3602 379.014 8.36373ZM375.741 8.36373C375.741 11.6002 374.204 13.3527 371.863 13.3527C369.514 13.3527 367.985 11.6002 367.985 8.36373C367.985 5.12722 369.514 3.37473 371.863 3.37473C374.204 3.37473 375.741 5.12722 375.741 8.36373Z" fill="#283849"/>
<path d="M386.82 16.0001C391.474 16.0001 394.293 13.1215 394.293 8.34881C394.293 3.591 391.474 0.727362 386.865 0.727362H381.406V16.0001H386.82ZM384.635 13.2334V3.49405H386.694C389.557 3.49405 391.071 4.9557 391.071 8.34881C391.071 11.7568 389.557 13.2334 386.686 13.2334H384.635Z" fill="#283849"/>
<path d="M396.685 16.0001H407.006V13.3378H399.914V9.69114H406.446V7.02885H399.914V3.38965H406.976V0.727362H396.685V16.0001Z" fill="#283849"/>
<path d="M409.543 16.0001H419.32V13.3378H412.772V0.727362H409.543V16.0001Z" fill="#283849"/>
<path d="M429.743 5.11976H432.838C432.793 2.39782 430.556 0.518555 427.155 0.518555C423.807 0.518555 421.354 2.36799 421.369 5.14213C421.361 7.39426 422.949 8.68439 425.53 9.30336L427.193 9.72097C428.856 10.1237 429.78 10.6009 429.788 11.6301C429.78 12.7487 428.721 13.5093 427.081 13.5093C425.403 13.5093 424.195 12.7338 424.09 11.205H420.966C421.048 14.5086 423.412 16.2164 427.118 16.2164C430.847 16.2164 433.039 14.434 433.047 11.6375C433.039 9.09455 431.123 7.74476 428.468 7.14817L427.096 6.82005C425.768 6.51429 424.657 6.02211 424.68 4.92587C424.68 3.9415 425.552 3.21813 427.133 3.21813C428.677 3.21813 429.624 3.91912 429.743 5.11976Z" fill="#283849"/>
<path d="M447.327 250H450.556V245.048H453.271C456.783 245.048 458.826 242.953 458.826 239.903C458.826 236.868 456.82 234.727 453.353 234.727H447.327V250ZM450.556 242.461V237.367H452.734C454.598 237.367 455.5 238.381 455.5 239.903C455.5 241.417 454.598 242.461 452.749 242.461H450.556Z" fill="#283849"/>
<path d="M460.924 250H464.153V244.586H466.509L469.403 250H472.968L469.724 244.064C471.461 243.318 472.423 241.804 472.423 239.716C472.423 236.681 470.417 234.727 466.949 234.727H460.924V250ZM464.153 241.991V237.367H466.33C468.195 237.367 469.097 238.195 469.097 239.716C469.097 241.23 468.195 241.991 466.345 241.991H464.153Z" fill="#283849"/>
<path d="M474.705 250H485.026V247.338H477.934V243.691H484.467V241.029H477.934V237.39H484.996V234.727H474.705V250Z" fill="#283849"/>
<path d="M492.978 250C497.631 250 500.45 247.122 500.45 242.349C500.45 237.591 497.631 234.727 493.022 234.727H487.563V250H492.978ZM490.793 247.233V237.494H492.851C495.714 237.494 497.228 238.956 497.228 242.349C497.228 245.757 495.714 247.233 492.843 247.233H490.793Z" fill="#283849"/>
<path d="M506.071 234.727H502.842V250H506.071V234.727Z" fill="#283849"/>
<path d="M522.203 240.074C521.778 236.547 519.108 234.519 515.573 234.519C511.539 234.519 508.459 237.367 508.459 242.364C508.459 247.345 511.487 250.209 515.573 250.209C519.489 250.209 521.853 247.606 522.203 244.795L518.937 244.78C518.631 246.413 517.348 247.353 515.626 247.353C513.306 247.353 511.733 245.63 511.733 242.364C511.733 239.187 513.284 237.375 515.648 237.375C517.415 237.375 518.691 238.396 518.937 240.074H522.203Z" fill="#283849"/>
<path d="M523.937 237.39H528.613V250H531.804V237.39H536.48V234.727H523.937V237.39Z" fill="#283849"/>
<path d="M541.775 234.727H538.546V250H541.775V234.727Z" fill="#283849"/>
<path d="M558.466 242.364C558.466 237.367 555.364 234.519 551.315 234.519C547.243 234.519 544.163 237.367 544.163 242.364C544.163 247.338 547.243 250.209 551.315 250.209C555.364 250.209 558.466 247.36 558.466 242.364ZM555.193 242.364C555.193 245.6 553.656 247.353 551.315 247.353C548.966 247.353 547.437 245.6 547.437 242.364C547.437 239.127 548.966 237.375 551.315 237.375C553.656 237.375 555.193 239.127 555.193 242.364Z" fill="#283849"/>
<path d="M573.633 234.727H570.419V244.332H570.285L563.692 234.727H560.858V250H564.087V240.388H564.199L570.844 250H573.633V234.727Z" fill="#283849"/>
<path d="M584.586 239.12H587.681C587.636 236.398 585.399 234.519 581.998 234.519C578.65 234.519 576.196 236.368 576.211 239.142C576.204 241.394 577.792 242.684 580.373 243.303L582.036 243.721C583.699 244.124 584.623 244.601 584.631 245.63C584.623 246.749 583.564 247.509 581.924 247.509C580.246 247.509 579.038 246.734 578.933 245.205H575.809C575.891 248.509 578.255 250.216 581.961 250.216C585.69 250.216 587.882 248.434 587.89 245.638C587.882 243.095 585.966 241.745 583.311 241.148L581.939 240.82C580.611 240.514 579.5 240.022 579.522 238.926C579.522 237.941 580.395 237.218 581.976 237.218C583.52 237.218 584.467 237.919 584.586 239.12Z" fill="#283849"/>
<path d="M36.3271 225H42.8524C46.2828 225 48.1098 223.21 48.1098 220.779C48.1098 218.52 46.4916 217.155 44.754 217.073V216.924C46.3424 216.566 47.5132 215.44 47.5132 213.642C47.5132 211.353 45.8129 209.727 42.4422 209.727H36.3271V225ZM39.5562 222.36V218.303H42.2632C43.8144 218.303 44.7764 219.198 44.7764 220.459C44.7764 221.607 43.9933 222.36 42.1887 222.36H39.5562ZM39.5562 216.118V212.337H42.0097C43.4415 212.337 44.2544 213.076 44.2544 214.179C44.2544 215.388 43.27 216.118 41.95 216.118H39.5562Z" fill="#283849"/>
<path d="M53.44 209.727H50.2109V225H53.44V209.727Z" fill="#283849"/>
<path d="M66.2238 214.664H69.5051C69.0874 211.644 66.4252 209.519 62.9724 209.519C58.9379 209.519 55.8282 212.427 55.8282 217.379C55.8282 222.211 58.7366 225.209 63.0395 225.209C66.895 225.209 69.6468 222.77 69.6468 218.751V216.827H63.2558V219.258H66.537C66.4923 221.152 65.2021 222.353 63.0544 222.353C60.6308 222.353 59.102 220.541 59.102 217.349C59.102 214.172 60.6904 212.375 63.0246 212.375C64.6876 212.375 65.8137 213.232 66.2238 214.664Z" fill="#283849"/>
<path d="M82.3467 225C87.0001 225 89.819 222.122 89.819 217.349C89.819 212.591 87.0001 209.727 82.3914 209.727H76.9326V225H82.3467ZM80.1617 222.233V212.494H82.2199C85.0835 212.494 86.5974 213.956 86.5974 217.349C86.5974 220.757 85.0835 222.233 82.2124 222.233H80.1617Z" fill="#283849"/>
<path d="M93.9821 225L95.1156 221.517H100.627L101.76 225H105.22L99.9554 209.727H95.7942L90.5218 225H93.9821ZM95.9359 218.997L97.8152 213.217H97.9345L99.8137 218.997H95.9359Z" fill="#283849"/>
<path d="M104.59 212.39H109.266V225H112.458V212.39H117.134V209.727H104.59V212.39Z" fill="#283849"/>
<path d="M119.945 225L121.078 221.517H126.589L127.723 225H131.183L125.918 209.727H121.757L116.485 225H119.945ZM121.899 218.997L123.778 213.217H123.897L125.777 218.997H121.899Z" fill="#283849"/>
<rect x="243" y="34" width="8" height="121.307" fill="#C4C4C4"/>
<rect x="243" y="147.778" width="145" height="8" fill="#C4C4C4"/>
</svg>
